<svg width="80" height="80" viewBox="0 0 80 80" fill="none" xmlns="http://www.w3.org/2000/svg">
<path d="M70.3899 40.0137C70.4019 39.9889 70.3995 39.9769 70.4147 39.9497C70.4835 39.8049 70.5299 39.6297 70.5299 39.4489C70.5299 39.3089 70.5011 39.1657 70.4323 39.0273C70.3963 38.9545 70.3347 38.9025 70.2819 38.8433C70.3395 38.6785 70.4259 38.4265 70.4259 38.4265C70.4467 38.3465 70.4563 38.2665 70.4563 38.1873C70.4563 37.8937 70.3163 37.6193 70.0683 37.4481C69.7411 37.2225 69.2987 37.2289 68.9683 37.4641C68.7123 37.6281 68.5339 37.9273 68.3659 38.2241C68.2579 38.1089 68.1451 38.0337 67.9155 38.0913C67.6267 38.1625 67.6635 38.2177 67.4275 38.5585C66.5923 39.7761 65.4827 41.6921 64.2043 41.7585C63.9291 41.7257 63.8443 41.6457 63.5115 41.1233C60.7499 36.7233 57.3555 34.1169 52.8619 30.9169C52.6003 30.6937 52.0307 29.8057 51.4787 28.9489C50.5251 27.4657 49.4443 25.7849 48.3515 25.0153C47.5163 24.4121 46.6243 24.0905 45.7627 23.7809C44.7203 23.4049 43.7339 23.0505 42.8475 22.2041C42.4939 21.8577 42.1747 21.3929 41.8067 20.8545C41.0563 19.7585 40.0971 18.4201 38.2731 17.2385C38.3179 16.9737 38.3755 16.6137 38.3755 16.1745C38.3755 15.6353 38.2259 14.7905 37.9835 14.3409C37.7987 13.9985 37.5099 13.8001 37.2371 13.7345C36.7387 13.6137 35.9387 13.7969 35.4003 14.0385C36.4643 10.8961 38.9563 8.82009 40.2547 7.74729C40.9755 7.15129 41.3859 6.81129 41.3859 6.35049C41.3859 6.27609 41.3763 6.19929 41.3547 6.11689C41.1667 5.26889 40.2259 5.22489 39.8235 5.20569L39.7451 5.20169C39.1955 5.18809 37.4411 5.24809 36.1699 6.21689C35.7947 6.31689 35.4643 6.47129 35.1643 6.66089C35.1491 6.60729 35.1523 6.55129 35.1275 6.49929C34.9739 6.16809 34.5715 5.84329 33.9003 5.92809C32.6427 6.12089 31.9347 6.44729 31.4555 6.71049C31.4243 6.72889 31.3291 6.78729 31.3291 6.78729C30.8891 7.05049 30.1795 7.50489 29.6507 8.56329C29.1475 8.93609 28.5851 9.50649 28.3707 10.3641C27.8283 10.7361 27.3835 11.3641 27.3507 12.1753C27.0155 12.5713 26.8115 12.9897 26.7171 13.4289C26.1803 12.9585 25.5427 12.6385 24.7875 12.5129L24.7331 12.5041L24.6787 12.5025C24.4419 12.4985 23.9491 12.4889 23.5755 12.8657L23.4803 12.9617L23.4243 13.0841C23.3667 13.2113 23.3451 13.3337 23.3451 13.4457C23.3451 13.7473 23.5067 13.9817 23.5715 14.0761L23.6131 14.1393C23.6227 14.1625 23.7451 14.7529 23.7451 14.7529L23.8235 15.4017C24.0211 16.4705 24.4795 17.0273 25.0635 17.5241C24.9379 17.9009 24.8667 18.2489 24.8667 18.5521C24.8667 19.0689 25.0035 19.4913 25.1243 19.8625C25.1243 19.8625 25.1555 19.9625 25.1779 20.0321C25.1851 20.0913 25.1899 20.1545 25.1899 20.2305C25.1899 20.9641 24.9067 22.3937 24.6859 23.2385C24.6859 23.2409 24.5995 23.5185 24.5995 23.5185C24.4339 24.0345 24.1363 24.9617 24.1363 25.9833C24.1363 26.3521 24.1747 26.7329 24.2723 27.1105C24.4651 27.7553 24.9619 28.5265 25.6531 28.8585C25.6795 28.8697 26.0419 29.0145 26.0419 29.0145C26.3899 29.1457 26.4947 29.1857 26.6435 29.4241C26.7707 29.6233 26.8243 30.2617 26.8243 30.9281C26.8243 31.4209 26.7955 31.9297 26.7459 32.2857L26.7387 32.3353C26.7387 32.3353 26.7387 32.3889 26.7387 32.3905C26.7387 32.7489 26.9659 33.0785 27.3051 33.2121C27.5979 33.3289 28.0403 33.3121 28.4019 32.9201C28.6379 32.6801 28.8411 32.4129 29.0203 32.1281C29.0675 32.1977 29.0779 32.2929 29.1451 32.3513L29.1755 32.3785L29.2099 32.4017C29.3347 32.4889 29.4827 32.5209 29.6315 32.5329C29.1851 32.8361 28.6403 33.1793 27.9075 33.6177C23.6931 34.2817 20.8987 35.8169 20.3739 37.6977C13.6755 40.9585 9.35547 47.7985 9.35547 55.2593C9.35547 66.0345 18.1203 74.8017 28.8931 74.8017C39.6659 74.8017 48.4435 66.0345 48.4435 55.2593C48.4435 52.7065 47.9227 50.2329 46.9915 47.9321C47.0611 47.9001 47.1515 47.8569 47.2435 47.8137C47.3075 47.8841 47.3739 47.9545 47.3739 47.9545C47.6195 48.2481 48.1051 48.6033 48.4987 48.6137C48.8907 48.6241 49.1387 48.5737 49.1387 48.5737C49.1387 48.5737 49.1635 48.5665 49.1835 48.5617C49.2163 48.6185 49.4011 48.9401 49.4011 48.9401C49.7875 49.5321 50.4123 49.5169 50.7475 49.5081C50.9555 49.5025 51.1051 49.4993 51.2883 49.5785C51.4787 49.6665 51.5499 49.9321 51.6419 50.5313L51.7171 50.9689C51.8267 51.4425 52.1035 51.6665 52.2523 51.7865L52.2579 51.7921C52.2883 51.9409 52.3811 52.4217 52.3811 52.4217C52.4507 52.9409 52.5307 53.5289 53.0771 53.7617C53.0651 53.7561 53.0923 53.7561 53.1291 53.7569C53.2171 54.1921 53.2363 54.7201 53.7427 55.0249C53.8595 55.0945 54.0067 55.1081 54.1563 55.1217C54.1619 55.1449 54.1699 55.1713 54.1699 55.1713C54.3011 55.8393 54.8315 56.0073 55.0315 56.0721C55.0315 56.0721 55.0387 56.0745 55.0411 56.0753C55.0715 56.1249 55.3723 56.6185 55.3723 56.6185C55.5843 57.0017 55.7835 57.3633 56.0491 57.5817L56.1699 57.6817L56.3203 57.7249C56.3987 57.7465 56.4747 57.7561 56.5507 57.7569C57.1947 58.5777 58.9603 61.2121 58.9603 63.6569C58.9603 63.7737 58.9563 63.8897 58.9483 64.0049C58.8331 65.6689 58.1523 66.5193 57.7019 67.0817C57.1859 67.7257 57.1635 68.4785 57.1635 68.7745V68.8153C57.2267 69.5337 57.6035 69.7713 57.8771 69.9449C58.1691 70.1001 58.9907 70.4457 60.1443 69.9649C61.0963 69.5673 61.2987 68.8545 61.4315 68.3825C61.4931 68.1681 61.5339 68.0329 61.6027 67.9657C62.0427 67.5385 62.5563 66.9209 62.6219 65.9137C62.6291 65.8313 62.6315 65.7473 62.6315 65.6601C62.6315 64.8105 62.3587 63.7425 62.0971 62.7921C61.9891 62.3881 61.8435 61.4361 61.8139 60.5681C62.1867 61.0833 62.4987 61.5993 62.6835 61.9169L62.7763 62.0745C63.0227 62.4921 63.7267 63.6881 63.7267 64.8537C63.7267 64.9817 63.7187 65.1089 63.6995 65.2353C63.5707 66.0193 63.3243 66.4713 63.0379 66.9937C62.7403 67.5369 62.4035 68.1521 62.2187 69.1449C62.1955 69.2809 62.1843 69.4137 62.1843 69.5425C62.1843 70.0849 62.3883 70.5577 62.7691 70.8809C63.3035 71.3345 64.1043 71.4217 64.9659 71.1217C66.0331 70.7369 66.7659 69.5257 66.9971 67.8825C67.1339 67.7849 67.2755 67.6825 67.2755 67.6825C67.5531 67.3705 67.6275 67.0177 67.6275 66.7225C67.6275 66.4721 67.5739 66.2633 67.5467 66.1553C66.9771 63.8625 66.8771 62.7417 66.8771 61.8409C66.8771 61.5985 66.8843 61.3713 66.8923 61.1417L66.8555 59.1833C66.7883 58.5841 66.5051 58.1249 66.2531 57.8729C66.1379 57.7409 65.8315 57.3897 65.8315 57.3897C65.5219 57.0729 65.1387 56.6809 65.0547 56.3345C64.9467 55.8841 64.9043 55.3233 64.9043 54.6953C64.9043 53.6009 65.0315 52.3041 65.1563 51.0337C65.2907 49.6697 65.4203 48.3489 65.4203 47.1809C65.4203 46.6761 65.3843 46.2121 65.3275 45.7729C68.5051 45.8713 69.9475 42.5985 70.4379 41.4817L70.5211 41.2937C70.6115 41.0537 70.6483 40.8489 70.6483 40.6761C70.6483 40.3593 70.5235 40.1545 70.3907 40.0169L70.3899 40.0137ZM31.8219 28.8033C31.8659 28.4641 31.9051 28.2329 31.9451 27.9769C32.0179 28.0121 32.1179 28.0233 32.2091 28.0417C32.3051 28.5785 32.6339 28.8617 32.8627 29.0137C32.8627 29.0153 33.0203 29.6361 33.0203 29.6361C33.0283 29.6545 33.0491 29.6785 33.0587 29.6977C32.8491 29.8665 32.6179 30.0617 32.3235 30.3233L31.8867 30.7121C31.4851 31.0697 31.1611 31.3561 30.8387 31.6241C31.3251 30.8217 31.7099 29.6625 31.8219 28.8033Z" fill="white"/>
<path d="M10.1025 55.2581C10.1025 44.8781 18.5201 36.4629 28.8913 36.4629C39.2625 36.4629 47.6929 44.8781 47.6929 55.2581C47.6929 65.6381 39.2745 74.0501 28.8913 74.0501C18.5081 74.0501 10.1025 65.6389 10.1025 55.2581Z" fill="#FF0000"/>
<path d="M12.3789 55.2577C12.3789 46.1305 19.7853 38.7305 28.9133 38.7305C38.0413 38.7305 45.4421 46.1305 45.4421 55.2577C45.4421 64.3849 38.0373 71.7785 28.9133 71.7785C19.7893 71.7785 12.3789 64.3833 12.3789 55.2577Z" fill="white"/>
<path d="M13.6055 55.2564C13.6055 46.8028 20.4615 39.9492 28.9135 39.9492C37.3655 39.9492 44.2167 46.8036 44.2167 55.2564C44.2167 63.7092 37.3615 70.5612 28.9135 70.5612C20.4655 70.5612 13.6055 63.7108 13.6055 55.2564Z" fill="#FF0000"/>
<path d="M69.8047 40.4718C69.7567 40.4438 69.6983 40.4526 69.6471 40.4606C69.6039 40.467 69.5631 40.4734 69.5415 40.455C69.5247 40.4398 69.5167 40.407 69.5183 40.3566C69.5351 40.0782 69.6487 39.8302 69.7703 39.603C69.8023 39.535 69.8151 39.4262 69.7783 39.3518C69.7559 39.307 69.7175 39.2774 69.6671 39.2662C69.5831 39.2494 69.4895 39.2862 69.4255 39.3622C69.4071 39.3862 69.3823 39.399 69.3703 39.3942C69.3607 39.391 69.3599 39.3726 69.3599 39.3654C69.3695 39.195 69.4559 38.9702 69.5479 38.7326C69.6111 38.5686 69.6767 38.3982 69.7191 38.239C69.7391 38.1606 69.7159 38.0918 69.6535 38.0494C69.5783 37.9982 69.4711 38.0014 69.3927 38.0582C69.2383 38.1582 69.0959 38.4102 68.9591 38.6534C68.7959 38.9438 68.6263 39.243 68.4543 39.243C68.4479 39.243 68.4407 39.243 68.4343 39.2414C68.3839 39.2358 68.3719 39.183 68.3551 39.0982C68.3407 39.023 68.3247 38.9374 68.2599 38.8878C68.2303 38.8646 68.1959 38.855 68.1631 38.8606C68.1183 38.8678 68.0759 38.9006 68.0391 38.9566C66.9143 40.771 65.6703 42.4558 64.1935 42.4934C63.4783 42.4286 63.2463 42.0646 62.8943 41.5142C61.6095 39.4662 60.1127 37.7006 58.1823 35.959C56.4463 34.3918 54.5535 33.0166 52.4391 31.511C52.0447 31.179 51.4975 30.3278 50.8631 29.3414C49.9455 27.9142 48.9055 26.2974 47.9303 25.6094C47.1711 25.0622 46.3663 24.7718 45.5143 24.4654C44.4455 24.0806 43.3407 23.6822 42.3423 22.7302C41.9303 22.3278 41.5775 21.8118 41.2039 21.2654C40.4383 20.147 39.4855 18.755 37.5135 17.5958C37.4735 17.5718 37.5015 17.407 37.5375 17.1982C37.6295 16.6686 37.7991 15.683 37.3191 14.6454C37.2799 14.5582 37.2135 14.4934 37.1231 14.4534L37.1183 14.4518C36.0703 14.2798 35.0495 15.027 34.5583 15.3862C34.4239 15.4846 34.2967 15.5774 34.2695 15.5774C34.2695 15.5774 34.2687 15.5774 34.2679 15.5774C34.2679 15.5774 34.2671 15.575 34.2679 15.5678C34.9119 11.211 38.2055 8.4886 39.7879 7.1798C40.3647 6.703 40.6831 6.4398 40.6463 6.303C40.5719 5.9702 40.1551 5.9502 39.7871 5.9326L39.7039 5.9286C39.3591 5.9222 37.5831 5.927 36.4743 6.87419C35.4775 7.0886 34.7719 7.80139 34.4431 8.39899C33.8359 8.69819 32.9927 9.20219 32.6367 10.1222C32.0471 10.4038 31.5815 10.951 31.3375 11.3222C32.1023 9.27979 33.8087 7.57499 34.3631 7.12699C34.4711 7.02779 34.5087 6.90459 34.4623 6.80459C34.4039 6.67819 34.2279 6.62139 33.9879 6.65099C32.8639 6.82379 32.2311 7.115 31.8047 7.3494C31.7719 7.3694 31.7375 7.3902 31.7015 7.4118C31.2823 7.66379 30.6487 8.04379 30.2079 9.05019C29.4359 9.59179 29.0623 10.1382 28.9983 10.8198C28.5239 11.0398 28.0015 11.5838 28.0711 12.4038C27.5303 12.9366 27.2959 13.4686 27.3327 14.0782C27.1447 14.2646 27.0279 14.4278 26.8823 14.7126C26.3615 13.8878 25.6151 13.3886 24.6623 13.2302C24.4767 13.227 24.2447 13.223 24.0919 13.3766L24.0879 13.3822C24.0447 13.4766 24.1031 13.5606 24.1703 13.6582C24.2111 13.7174 24.2575 13.7846 24.2887 13.8654C24.4335 14.1934 24.4503 14.415 24.4711 14.6958C24.4831 14.8566 24.4967 15.0382 24.5383 15.2646C24.7311 16.2998 25.1903 16.719 25.8663 17.2382C25.9391 17.3142 25.9063 17.3766 25.8375 17.4894L25.8295 17.503C25.4295 18.439 25.6263 19.0454 25.8159 19.6326C25.8431 19.7174 25.8711 19.8014 25.8959 19.8846C26.0375 20.8878 25.3967 23.3942 25.3903 23.4198C25.3695 23.4998 25.3343 23.611 25.2927 23.7398C25.0719 24.4254 24.6623 25.7022 24.9767 26.9262C25.1159 27.3886 25.4999 27.9726 25.9671 28.1966C26.0847 28.2478 26.1935 28.2886 26.2983 28.3286C26.6799 28.4734 26.9815 28.5878 27.2599 29.035C27.7111 29.727 27.5199 31.9958 27.4663 32.387C27.4663 32.447 27.5079 32.5054 27.5695 32.5302C27.6119 32.547 27.7247 32.5702 27.8623 32.4222C28.3503 31.9238 28.7023 31.3158 28.9079 30.6158C29.0735 30.0502 29.0999 29.5742 29.1127 29.3454C29.1151 29.3062 29.1167 29.271 29.1191 29.2462C29.3575 29.6342 29.3943 30.259 29.4263 30.8118C29.4535 31.2734 29.4767 31.6726 29.6231 31.7998C29.6639 31.8278 29.7135 31.8294 29.7703 31.8046C30.1879 31.6198 30.9199 30.055 31.0959 28.7078C31.3519 26.7478 31.6079 25.7542 31.8575 25.7542C31.8607 25.7542 31.8639 25.7542 31.8671 25.7542C32.0015 25.7646 32.0167 26.1766 32.0279 26.4774C32.0303 26.539 32.0327 26.599 32.0351 26.6526C32.0743 27.3598 32.1855 27.3878 32.5279 27.371C32.5575 27.3694 32.5887 27.3678 32.6199 27.367C32.8711 27.387 32.8903 27.655 32.9039 27.8502V27.8662C32.9303 28.1934 33.1391 28.327 33.3407 28.4558C33.3767 28.479 33.4127 28.5022 33.4455 28.5238C33.5495 28.6206 33.5679 28.7718 33.5871 28.931C33.6031 29.0606 33.6191 29.195 33.6791 29.3222C33.7599 29.4958 33.8695 29.671 34.1167 29.7758L34.1231 29.7774C34.1719 29.7798 34.2111 29.8022 34.2151 29.8206C34.2175 29.8318 34.2007 29.8462 34.1767 29.8574C33.9191 29.9102 33.5463 30.2118 32.8079 30.8678C32.6503 31.007 32.5039 31.1374 32.3663 31.2598C31.0135 32.4646 30.5071 32.9158 28.1695 34.3086C23.9447 34.9462 21.1255 36.4742 20.9863 38.2022V38.215L20.9967 38.2206C21.8271 38.6222 23.1551 38.3822 23.9095 37.931C24.2391 37.7342 24.4271 37.511 24.4415 37.3014C24.7655 37.1006 25.5055 36.8486 25.8167 36.763C25.8527 36.7502 25.8791 36.7502 25.8959 36.7606C25.9255 36.7798 25.9303 36.8406 25.9351 36.911C25.9463 37.0606 25.9623 37.2654 26.2447 37.2838L26.3111 37.2806C26.8775 37.2518 27.4623 37.2222 28.0167 36.9318L28.1111 36.8782C28.4119 36.707 28.6495 36.5718 28.8727 36.527L28.8791 36.5254L28.9111 36.4854C32.0023 36.487 35.0679 37.2574 37.7759 38.7134C40.3983 40.1238 42.6799 42.1662 44.3735 44.6198C44.3767 44.6246 44.6615 45.0678 44.9759 45.391C45.2847 45.7166 45.5575 45.9294 45.5855 45.9518C45.6551 46.0494 45.7271 46.003 45.7847 45.9646C45.8279 45.9366 45.8687 45.9094 45.9135 45.9262C46.3367 46.0846 46.4999 46.5526 46.6191 46.8942C46.6919 47.1022 46.7447 47.2534 46.8359 47.2534H46.8391C46.9511 47.2462 47.0207 47.179 47.0879 47.1142C47.1359 47.0678 47.1855 47.0206 47.2503 46.995C47.2591 46.995 47.2679 46.9942 47.2775 46.9942C47.5215 46.9942 47.7383 47.2542 47.9311 47.4838C48.1023 47.6886 48.2647 47.883 48.4311 47.883C48.4359 47.883 48.4407 47.883 48.4455 47.883L48.4543 47.8798C48.6119 47.7798 48.6423 47.6502 48.6639 47.555C48.6807 47.4822 48.6919 47.4438 48.7327 47.4318C48.8631 47.3926 48.9487 47.4814 49.0575 47.5942C49.1295 47.6694 49.2111 47.7542 49.3183 47.8078L49.3247 47.8094C49.6583 47.8438 49.7407 48.0326 49.8279 48.231C49.8655 48.3158 49.9039 48.4038 49.9623 48.4758C50.1695 48.7894 50.4143 48.7822 50.7247 48.775C50.9687 48.7686 51.2447 48.7614 51.5759 48.9054C52.1703 49.179 52.2671 49.8094 52.3599 50.419C52.3815 50.559 52.4015 50.691 52.4279 50.8198C52.4767 51.0302 52.5935 51.1246 52.7071 51.2158C52.8031 51.2934 52.8935 51.367 52.9383 51.5094C53.0263 51.7606 53.0663 52.059 53.1023 52.3222C53.1543 52.7102 53.1959 53.0166 53.3575 53.0854C53.4079 53.1126 53.4623 53.0998 53.5191 53.0862C53.5775 53.0726 53.6383 53.059 53.6975 53.0854C53.7335 53.1054 53.7671 53.2806 53.7999 53.451C53.8655 53.7942 53.9559 54.2646 54.1919 54.4486C54.2583 54.4846 54.3167 54.4678 54.3735 54.4518C54.4311 54.4358 54.4855 54.4206 54.5495 54.4582C54.7879 54.583 54.8647 54.8942 54.8887 55.0694C54.9287 55.2694 55.0919 55.3214 55.2487 55.3718C55.3631 55.4086 55.4815 55.4462 55.5519 55.5438C55.6975 55.6998 55.8551 55.9838 56.0063 56.259C56.1831 56.5798 56.3511 56.883 56.5079 57.0126L56.5151 57.0166C56.5983 57.0406 56.6263 57.0054 56.6519 56.9742C56.6775 56.9422 56.6991 56.915 56.7879 56.935C56.8679 56.955 57.6511 57.899 58.3847 59.2686C59.0407 60.4926 59.7951 62.3166 59.6703 64.0526C59.5391 65.9414 58.7423 66.9374 58.2663 67.5326C57.9247 67.9582 57.8871 68.4638 57.8879 68.8086C57.9143 69.103 58.0303 69.1758 58.2607 69.3214L58.2751 69.3302C58.4287 69.4102 58.9967 69.6438 59.8559 69.2846C60.4831 69.023 60.6047 68.5934 60.7231 68.1774C60.8015 67.9022 60.8751 67.6414 61.0895 67.4342C61.4559 67.0782 61.8375 66.6126 61.8871 65.859C61.9407 65.1262 61.6783 64.0422 61.3863 62.9798C61.2471 62.463 60.8511 60.1582 61.2103 59.0198C61.2295 58.963 61.2591 58.9286 61.2943 58.9222C61.3359 58.9142 61.3887 58.9462 61.4439 59.0134C62.2775 59.7838 62.9719 60.967 63.3055 61.535C63.3407 61.595 63.3719 61.6478 63.3991 61.6942L63.4023 61.699C63.7087 62.2214 64.6407 63.8094 64.4175 65.3342C64.2663 66.2542 63.9647 66.8054 63.6735 67.3382C63.3895 67.8574 63.0951 68.3934 62.9327 69.2726C62.8567 69.715 62.9647 70.0862 63.2367 70.3166C63.4279 70.4782 63.6879 70.5606 63.9911 70.5606C64.2151 70.5606 64.4623 70.5158 64.7231 70.4254C65.5583 70.123 66.1703 69.0118 66.3199 67.5278C66.3495 67.4238 66.3991 67.4022 66.4743 67.3702C66.5423 67.3414 66.6263 67.3046 66.7207 67.1958C66.9023 66.991 66.9359 66.7318 66.8335 66.3294C66.0863 63.3158 66.1207 62.2454 66.1567 61.1126C66.1743 60.5766 66.1919 60.0214 66.1231 59.2414C66.0799 58.8598 65.8895 58.5254 65.7231 58.367C65.6327 58.2318 65.4799 58.0758 65.3039 57.895C64.9327 57.515 64.4703 57.0422 64.3399 56.4998C64.0143 55.1414 64.2231 53.0142 64.4247 50.9574C64.6407 48.7542 64.8647 46.475 64.4479 45.0718C64.4127 44.943 64.4047 44.8686 64.4231 44.8534C64.4399 44.8382 64.5055 44.8662 64.5735 44.8966C64.6591 44.9334 64.7759 44.9846 64.9151 45.0086C67.8991 45.439 69.2535 42.3454 69.7639 41.1806C69.7959 41.1078 69.8247 41.043 69.8503 40.9854C69.9287 40.7782 69.9839 40.5542 69.8007 40.4702L69.8047 40.4718Z" fill="black"/>
<path d="M28.3915 12.7353C28.6875 12.3649 29.2843 12.1953 29.2587 12.0761C29.2067 11.9681 28.9851 12.0649 28.8187 12.0761C28.7491 12.0873 28.6547 12.0697 28.6651 11.9881C28.9443 11.0097 29.9003 10.8345 30.1907 10.5241C30.2243 10.4641 30.1907 10.4641 30.1155 10.4217C29.9643 10.4153 29.7227 10.5809 29.7227 10.4369C29.8355 9.46175 31.0243 8.99215 31.2475 8.91535C31.3051 8.86495 31.2531 8.79695 31.1787 8.78495C31.0771 8.79695 30.9955 8.85855 30.9811 8.73455C31.0963 8.25135 31.7411 7.86335 32.1579 7.65615C32.5827 7.48255 33.4219 7.22415 33.4219 7.35295C33.4219 7.40415 32.7627 7.72415 32.5451 8.04975C32.3643 8.31775 32.2003 8.49295 32.1859 8.91535C31.5107 9.24655 31.1779 9.99295 31.1323 10.7057C30.6539 10.9513 30.2875 11.8185 30.4451 12.1753C29.8939 12.7105 29.6227 13.4833 29.6531 14.2585C28.4603 15.8193 28.8131 16.4137 30.1283 16.8977C30.3235 16.9601 30.5083 16.9713 30.5451 16.8777C30.5915 16.7849 30.4315 16.7273 30.3723 16.5929C29.6571 14.9993 30.5587 14.2017 31.8171 13.6649C31.9155 13.6177 31.8419 13.5057 31.6939 13.5089C31.3539 13.5057 31.0491 13.5929 31.0067 13.4833C30.8227 12.9625 32.1747 11.8849 32.8411 11.6801C33.1235 11.5969 33.0043 11.4537 32.8875 11.4737C32.7091 11.4569 32.4339 11.5609 32.3451 11.3289C32.5147 10.7409 34.1355 9.96255 34.3739 9.82255C34.5203 9.72975 34.5819 9.56335 33.8659 9.70975C33.7987 9.71935 33.7251 9.71935 33.7563 9.62175C33.8915 9.19855 35.4083 8.60575 36.1795 8.33855C36.3011 8.28175 36.3355 8.09215 35.9723 8.16335C35.8411 8.18335 35.5995 8.27055 35.5531 8.17375C35.5995 7.60015 37.2747 7.15855 37.8731 7.02815C38.0083 6.98255 38.0331 6.90575 37.9155 6.84895C37.7251 6.79135 37.4235 6.94175 37.5387 6.74175C37.9891 6.45695 39.1827 6.45295 39.5963 6.52015C39.7115 6.54095 39.7387 6.56655 39.7499 6.59135C39.6211 6.89135 37.6155 7.47855 37.3683 8.68415C36.7667 8.93295 36.1795 9.50495 36.1107 9.99535C35.7939 10.1657 35.1611 10.6865 35.1243 11.4033C34.7795 11.6609 33.8739 12.4649 34.1747 13.4401C33.6915 13.8937 33.3171 14.3569 33.3363 15.6305C33.3435 16.0689 32.7731 16.7809 32.1859 16.9465C32.0203 17.0129 32.0859 17.1473 32.2051 17.1785C33.1899 17.4689 34.1051 16.9345 34.4627 16.5953C35.5995 15.5129 36.3571 15.1225 36.8683 15.0585C36.9611 15.0337 36.9611 15.1009 36.9763 15.1529C37.0491 15.4361 37.2259 16.1265 36.9787 17.0953C36.6555 18.3073 35.7283 18.8697 35.4651 19.2009C35.4187 19.2473 35.5955 19.7625 35.5011 20.0265C35.3939 20.3609 35.5147 20.5681 35.6379 20.6193C35.9731 20.7433 36.2115 19.4897 36.4131 19.5217C36.5747 19.5305 36.5475 19.8049 36.7403 19.9033C36.8427 19.9393 36.9923 19.9081 37.0099 19.7937C37.0347 19.4441 37.1643 18.5873 37.2499 18.4961C37.3115 18.4185 37.5019 18.8065 37.5131 19.0417C37.5267 20.0169 36.9787 20.8457 37.3011 21.5177C37.3723 21.6625 37.5339 21.6505 37.6459 21.5441C37.9403 21.2281 38.1419 20.0841 38.7963 19.9393C39.6787 19.7441 40.5507 22.1617 39.9291 22.8073C39.6275 23.0633 39.2483 22.8377 38.8747 23.0449C38.4723 23.2801 38.5059 24.1777 38.2307 24.5497C38.0675 24.7137 37.8731 24.7417 37.4955 24.7713C36.6955 24.8329 36.9395 27.1177 37.0627 27.5249C37.1419 27.7665 37.3123 27.7201 37.4243 27.6377C37.5395 27.5401 37.6267 27.0697 37.6499 26.6313C37.6827 26.4929 37.9251 26.4377 38.0995 26.2673C38.2875 26.1217 38.1883 25.9617 38.3019 25.8193C38.4651 25.6369 38.6251 25.7977 38.7579 25.5945C39.1027 25.3081 38.8579 24.8585 39.1363 24.6689C39.5459 24.4001 39.9099 24.5337 40.2715 24.1377C40.4931 23.8913 40.5219 23.3689 40.8331 23.2809C42.4891 23.2409 44.1371 25.1489 44.4187 25.7153C45.2379 27.4105 43.9267 29.9697 44.8227 30.4593C45.9499 31.1145 45.7059 32.3873 45.5827 32.7073C45.3387 33.3569 43.5347 34.1833 43.3019 35.6873C43.1851 37.1321 43.9387 36.8329 43.9923 36.6529C44.0499 36.4713 44.1003 36.2353 44.1899 36.0553C44.2611 35.8953 44.4819 35.9657 44.5075 36.1209C44.5499 36.2561 44.8595 36.6425 45.3187 35.7913C45.6075 35.2505 46.3859 34.5529 46.9691 34.1521C47.5427 33.7449 47.6803 32.4713 47.7803 32.1809C47.8555 31.9305 48.0667 31.9305 48.0979 31.6601C48.1195 31.3825 47.5963 30.4593 47.9075 29.7985C48.0523 29.5777 48.4019 29.4217 48.6635 29.7257C48.9371 30.0425 48.4939 31.0793 48.9891 31.1025C49.4123 31.1145 49.4587 30.6185 49.8243 30.6505C50.1979 30.7225 49.5259 32.0897 49.8939 32.3001C50.1195 32.3929 50.4035 32.2841 50.5187 32.5105C50.6227 32.8881 49.9475 33.5745 50.5299 33.5745C56.6979 33.4657 58.9507 38.3185 58.5555 39.2049C58.3707 39.5409 57.6267 39.0401 57.5203 39.3801C56.9571 41.2785 58.2299 42.7169 58.5979 42.9649C58.7059 43.0265 58.9003 42.9385 58.8859 42.7009C58.8243 42.1593 58.5243 41.8705 58.5843 41.3345C58.6883 40.3905 60.7947 40.9729 60.9019 41.6905C60.9427 41.9593 60.9579 42.1801 61.1947 42.4065C61.4947 42.6897 62.2139 42.3705 62.2835 42.9985C62.3755 44.2177 60.8547 44.2873 59.8027 45.0425C59.3011 45.4281 59.4147 45.6969 59.8395 45.8353C60.3451 45.9705 61.1547 45.8257 61.5627 46.4241C62.1435 47.2545 61.3803 48.9913 61.3371 49.7241C61.2947 50.4673 62.6243 52.6377 62.6523 53.7465C62.7483 54.2993 62.3675 54.5977 61.8979 54.1433C61.4443 53.6697 60.9707 52.9377 60.6187 52.3897C60.5163 52.2169 60.2475 52.2057 60.2531 52.5609C60.2475 53.5209 64.7923 59.4353 64.9075 60.4041C65.0115 60.9153 64.7283 61.3473 64.8483 61.8433C64.8883 61.9881 65.0747 61.9057 65.0891 62.0217C65.1139 62.3505 64.7795 62.8481 65.2547 63.0857C65.4899 63.7353 65.2547 64.0065 65.3779 64.5449C65.4395 65.0809 65.6931 65.8241 65.7507 66.3657C65.6235 67.8913 65.0387 68.4857 64.5731 68.7129C64.1715 68.9137 64.0059 68.5529 64.0427 68.2417C64.1483 67.3185 65.1715 65.6809 64.7635 63.8361C63.7139 59.0897 58.6355 55.7217 57.7875 53.9177C57.5147 53.2369 56.5411 53.1609 56.4851 52.3617C56.3875 52.1033 56.1315 52.1809 55.9139 51.9441C55.7307 51.7369 55.7371 51.1137 55.5403 50.6577C55.4827 50.5145 55.3043 50.5865 55.1731 50.4489C54.4515 49.4985 54.6059 44.8585 53.9619 44.2241C53.4867 43.9593 53.1179 44.6961 52.5267 44.7585C52.0747 44.8049 51.3267 43.6809 51.0531 43.9657C50.8315 44.1873 50.9275 44.7585 50.9451 44.8481C50.9683 44.9265 51.0811 45.3225 50.9275 45.3225C50.7891 45.3281 50.5907 45.0441 50.0179 44.8105C49.6355 44.6721 49.2739 44.8105 49.0971 44.6961C48.7067 44.2745 49.1107 43.3881 48.4547 43.1353C48.2707 43.0641 48.2379 42.5953 48.1435 42.4081C48.0531 42.2745 47.8651 42.2849 47.7803 42.1817C47.6019 41.9129 47.4779 41.5841 47.3979 41.2065C47.3307 40.9473 46.7323 41.2697 46.6859 40.8617C46.6283 40.5881 46.3075 40.5025 46.0603 40.4601C45.7579 40.4241 45.8851 39.7593 45.6219 39.6497C45.5099 39.5985 45.4683 39.7273 45.3507 39.6665C45.2299 39.5161 45.2523 39.3721 45.0987 39.2641C44.9683 39.1761 44.8411 39.3241 44.7467 39.2177C44.3643 38.7537 44.6683 37.9737 44.4699 37.7433C44.3387 37.5993 44.1123 37.7593 43.9139 37.5873C43.7195 37.4393 43.6875 37.1953 43.5715 37.1609C43.2315 37.1545 43.1123 37.0929 42.9739 36.9233C42.3547 36.0577 42.4243 35.0609 42.2123 34.7065C42.0739 34.4737 41.8659 34.3289 41.7099 34.7673C41.3987 35.5209 41.4315 38.3305 40.5307 38.7129C39.8363 39.0529 39.2171 37.8569 38.8747 37.6441C38.7211 37.5625 38.6939 37.8153 38.5843 37.8257C38.2683 37.7017 38.3395 37.3257 38.0827 37.1761C37.8347 37.0673 37.9403 37.4177 37.7979 37.3873C37.5515 37.1609 37.5515 36.5521 37.3323 36.4441C37.1555 36.3761 37.0515 36.5833 36.9499 36.4953C36.5939 36.1857 36.8427 35.4945 36.4131 35.2769C36.2267 35.2169 36.2539 35.5313 36.0627 35.4417C35.8795 35.3745 35.9107 34.3953 35.3379 34.4889C35.2531 34.4985 35.2803 34.3641 35.2211 34.3137C35.0515 34.2921 34.9331 34.5281 34.7571 34.3753C34.5163 34.0561 34.3315 33.9009 34.1747 33.7809C33.9339 33.5761 33.5763 33.8345 33.2787 33.6121C32.2323 33.1529 29.8339 34.9833 28.7531 36.0561C28.3595 35.6881 27.8275 36.0761 27.3795 36.1217C27.2187 36.1585 26.7147 36.1377 27.1099 35.5921C28.0907 34.5537 28.8067 34.6049 30.6539 33.2857C32.0043 32.2961 33.2155 31.3321 33.6507 31.0473C34.0099 30.8625 34.5811 30.7073 35.0603 31.3377C35.7355 32.2193 37.2435 33.6985 37.8859 33.9881C39.2067 34.5601 39.2723 33.5481 39.4339 33.1977C39.5747 32.8433 39.6627 33.1369 39.6547 33.4729C39.6523 33.6929 39.7339 34.0017 39.9139 34.0321C40.2755 34.0745 40.2795 33.8017 40.3315 33.6257C40.7435 32.0009 42.3419 30.0481 42.9739 30.4489C43.4355 30.7433 43.7091 30.7433 43.8187 30.1857C43.9395 29.4689 43.3859 28.8097 43.2363 28.0553C43.0819 27.1793 43.1771 26.0297 42.8435 25.8697C42.6491 25.7865 42.3803 25.9769 42.2299 26.1889C42.0283 26.4577 42.0283 26.7409 41.9603 27.0665C41.9275 27.2457 41.1987 27.4433 41.1163 28.3873C41.1091 28.5569 40.8331 28.2169 40.6355 28.3873C40.2299 28.6953 40.3027 30.2273 40.1723 30.3153C40.0203 30.3305 39.8379 30.1609 39.7763 30.3817C39.8091 30.6297 39.6723 31.2273 39.5531 31.2745C39.4531 31.3049 39.3475 31.1825 39.2067 31.2649C38.8571 31.5577 38.9987 31.9649 38.6619 32.3521C38.4563 32.6057 38.3155 32.4281 38.2923 32.2065C38.2427 31.8281 37.9403 31.2593 37.6747 30.9905C36.8963 30.1873 37.3771 28.8465 36.2779 28.2889C35.9475 28.1249 35.9283 27.9641 35.8915 27.6673C35.8795 27.3417 35.6915 27.1153 35.5219 27.0721C35.2195 26.9841 35.1675 26.8201 35.1547 26.6081C35.1819 26.0361 34.7563 26.0113 34.5291 25.9633C33.9923 25.9121 33.9747 25.8089 34.1427 24.4673C34.1923 24.1441 34.1947 23.7705 34.0907 23.4673C33.8099 23.0537 33.1947 23.3177 33.2795 22.6425C33.3435 22.1985 34.1387 21.6217 34.4779 21.2553C34.6835 21.0241 34.8147 20.4249 34.1051 20.5697C32.4947 20.9985 31.2091 23.8529 30.9067 24.4001C29.7411 26.5353 28.7283 27.3865 27.7803 27.7153C27.3371 27.8705 25.8027 28.0137 25.4891 26.5097C25.3275 25.7193 25.5219 24.9769 25.8811 23.7401C27.4371 18.3313 25.6987 19.3617 26.5499 17.5609C27.0979 16.9489 27.8755 17.0321 28.6651 16.9369C28.8395 16.9137 28.7771 16.6865 28.7347 16.6193C28.7035 16.5569 28.5195 16.4793 28.2771 16.4345C28.0363 16.3937 27.5179 15.9337 27.4731 15.4385C27.4283 14.8961 27.7771 14.5601 28.0083 14.3249C28.3387 13.9993 28.5763 13.9633 28.5819 13.8921C28.5619 13.6033 27.9539 14.0089 27.9003 13.8921C27.7715 13.4425 28.1443 13.0305 28.3907 12.7401L28.3915 12.7353Z" fill="white"/>
<path d="M26.7105 15.5511C26.6897 15.7471 26.6897 16.0511 26.9513 16.6815C26.6897 16.7175 26.5305 16.9487 26.3017 16.8215C25.5857 16.4295 25.1841 15.7007 24.9521 14.9631C24.8017 14.5399 24.8161 14.0367 24.5801 13.6543C25.8177 13.7375 26.7249 15.4063 26.7105 15.5511Z" fill="white"/>
<path d="M36.7048 15.7471C36.7704 15.7271 36.7936 15.7727 36.7936 15.7991C36.7416 16.6815 35.8064 18.4447 34.588 18.7591C34.5168 18.7743 34.4712 18.7647 34.4472 18.6975C34.336 18.0839 34.7224 17.0415 35.7128 16.6607C36.2032 16.4703 36.4344 16.1447 36.7048 15.7471Z" fill="black"/>
<path d="M32.6045 19.2127C32.6621 19.4391 32.6197 19.4551 32.4261 19.3263C31.7893 18.6599 31.2469 18.8311 30.8605 19.0335C30.6725 19.1111 30.6157 19.1047 30.6701 18.9351C31.2565 18.0383 32.3245 18.4807 32.6045 19.2135V19.2127Z" fill="black"/>
<path d="M29.2979 19.3355C29.6187 19.7955 29.4795 20.5123 29.2011 21.0491C28.9803 21.4603 28.6187 22.1219 28.4779 22.4107C28.4187 22.5835 28.2931 22.5955 28.1875 22.5483C28.0819 22.5275 28.5771 21.7027 28.7179 20.7355C28.7747 20.3379 28.6691 19.7587 28.9587 19.3259C29.0587 19.1819 29.2067 19.2283 29.2979 19.3355Z" fill="black"/>
<path d="M31.9911 19.7689C32.2239 20.3065 31.6543 20.5697 31.3215 20.6353C31.0887 20.6769 30.9135 20.6105 30.7159 20.4817C30.6063 20.4033 30.6655 20.3465 30.5791 20.3065C30.4007 20.2953 30.4439 20.4089 30.2511 20.4545C30.1183 20.4713 30.1071 20.4097 30.1967 20.2753C30.4135 19.9153 30.5311 19.6609 30.8871 19.5169C31.2199 19.3825 31.7047 19.2433 31.9911 19.7689Z" fill="black"/>
<path d="M30.1244 22.028C30.4012 23.1064 30.1972 23.524 29.9492 23.7816C29.8572 23.8648 29.2772 23.9688 29.2012 23.2256C29.4908 22.876 29.6692 22.344 29.8428 21.9672C29.9644 21.7256 30.0404 21.7088 30.1244 22.0288V22.028Z" fill="black"/>
<path d="M27.9754 25.0094C27.8498 25.6862 27.573 26.0302 27.0922 26.1382C26.5322 26.2062 26.293 25.5862 26.365 25.5902C26.9106 25.6894 27.4866 25.379 27.8306 24.9366C27.913 24.819 27.9962 24.9006 27.9762 25.0094H27.9754Z" fill="black"/>
<path d="M55.473 35.4877C55.7826 35.5861 55.9114 35.9037 55.8034 36.0853C55.6762 36.3789 55.413 36.5797 55.4074 36.8629C55.4018 37.1005 55.3594 37.2453 55.1706 37.3069C54.8226 37.3437 54.6202 36.6205 54.3074 37.1229C54.1378 37.3805 53.7866 37.2045 53.7418 37.0605C53.6802 36.8381 53.5458 36.6109 53.3226 36.6013C52.597 36.5797 52.417 35.4445 52.5338 35.1373C53.093 33.8213 54.469 35.1413 55.473 35.4877Z" fill="black"/>
<path d="M26.9215 35.2698C26.5391 35.5546 26.2815 35.9154 26.0711 36.3074C25.6135 36.3794 24.8735 36.689 24.3447 36.9266C24.1495 37.029 23.4055 37.0858 22.7343 37.1634C22.6319 37.153 22.6071 37.0906 22.6071 37.009C22.5535 36.4986 25.7111 35.2098 26.9215 35.085C27.0319 35.085 27.0983 35.137 26.9215 35.2698Z" fill="white"/>
<path d="M68.5862 41.7993C68.6846 42.0569 68.4126 42.3817 68.1286 42.6961C67.8494 43.0217 66.6438 43.8721 65.6382 43.8257C65.3598 43.7849 65.059 43.4793 65.1534 43.1097C65.251 42.7945 66.2206 42.7121 66.9654 42.4553C67.5094 42.2697 67.767 42.1553 68.1966 41.8249C68.4678 41.6201 68.5294 41.7425 68.5854 41.8001L68.5862 41.7993Z" fill="white"/>
<path d="M60.0105 60.6254C60.1929 60.6318 60.1665 60.5694 60.3257 60.6254C60.4665 60.6318 60.4625 61.2398 60.4433 61.5534C60.4089 61.7494 60.3625 62.0798 60.5697 62.2302C60.7545 62.3894 60.3257 62.9726 60.6353 63.2558C60.8065 63.4926 60.4433 64.115 60.7217 64.4574C60.8577 64.4574 60.9601 64.4974 61.0313 64.6094C60.9137 65.3294 61.2353 66.463 61.1217 66.7918C60.8065 67.287 60.5697 67.2366 60.3009 68.0518C59.8953 68.839 58.7521 68.3486 58.9761 67.7118C59.7841 66.3438 60.0817 64.8206 60.1241 64.1566C60.2585 62.431 59.3489 59.6854 59.2489 59.3038C59.2273 58.959 59.3009 58.7518 59.5737 59.0622C59.9753 59.6918 59.8297 60.5886 60.0105 60.6254Z" fill="white"/>
<path d="M30.5275 45.9498L30.4907 46.1154C30.4907 46.1154 29.6147 44.8114 29.4315 44.5378C29.4011 44.9202 28.9859 50.0506 28.9859 50.0506H28.8427C28.8427 50.0506 28.4387 44.9218 28.4083 44.5378C28.2251 44.8114 27.3467 46.1154 27.3467 46.1154C27.3467 46.1154 25.5315 37.761 25.4019 37.1578C25.2707 37.761 23.4555 46.1154 23.4555 46.1154C23.4555 46.1154 22.5779 44.8098 22.3939 44.5378C22.3619 44.9418 20.5283 67.9682 20.5283 67.9682C20.5283 67.9682 20.5283 67.9834 20.5283 67.9963C23.0179 69.6378 25.9139 70.5066 28.9067 70.5066H28.9283C31.9243 70.5066 34.8211 69.6378 37.3075 67.9946V67.9627C37.3075 67.9627 35.6307 46.8363 35.4491 44.5371C35.2643 44.8107 34.3875 46.1146 34.3875 46.1146C34.3875 46.1146 32.5683 37.7594 32.4371 37.1562C32.3067 37.7587 30.5291 45.9482 30.5291 45.9482L30.5275 45.9498Z" fill="white"/>
<path d="M37.3789 67.9632L35.5021 44.3256L34.4213 45.9344L32.4349 36.8184L30.4557 45.9344L29.3757 44.3256L28.9125 50.044L28.4629 44.3256L27.3813 45.9344L25.4005 36.8184L23.4189 45.9344L22.3373 44.3256L20.4541 67.9632V68.0368C22.8733 69.6408 25.7861 70.5792 28.9037 70.5792H28.9253C32.0541 70.5792 34.9605 69.6408 37.3765 68.0368V67.9632H37.3789Z" fill="black"/>
<path d="M44.8837 54.419L42.4717 46.0742L12.6973 54.4478L14.5397 62.9462L44.8837 54.419Z" fill="white"/>
<path d="M18.2985 53.9532L22.2033 52.7412L21.5153 60.0908L18.7873 60.8524L19.2529 55.8572L18.0801 56.2636L18.2985 53.9532Z" fill="#FF0000"/>
<path d="M25.5779 57.8839C25.5083 58.6463 24.6995 59.2951 23.9715 59.5175C23.2291 59.7103 22.5131 59.4975 22.5851 58.7287C22.6579 57.9303 23.4667 57.2583 24.2003 57.0671C24.9275 56.8583 25.6483 57.0959 25.5779 57.8839Z" fill="#FF0000"/>
<path d="M27.3763 51.2883L32.4355 49.8555L32.2475 51.9771L29.9419 52.6075L29.8763 53.3811L31.8987 52.8195L31.7139 54.7115L29.6963 55.2843L29.4507 57.8563L26.6787 58.6379L27.3755 51.2875L27.3763 51.2883Z" fill="#FF0000"/>
<path d="M38.9523 50.9406C38.5483 50.6694 38.0235 50.491 37.4003 50.663C36.5755 50.8958 35.8419 51.711 35.7635 52.5134C35.6899 53.315 36.3459 53.7414 37.1659 53.5094C37.8003 53.335 38.3259 52.9326 38.8067 52.3838L38.4659 55.1558C38.0099 55.4846 36.9771 55.8574 36.4867 55.9958C34.3251 56.6006 32.7899 55.4486 32.9867 53.3606C33.1851 51.2158 35.0891 49.0126 37.3123 48.3838C37.9299 48.2094 38.5587 48.1318 39.1275 48.1782L38.9523 50.9414V50.9406Z" fill="#FF0000"/>
<path d="M27.0324 60.7242C27.0044 61.017 26.7972 61.2994 26.5716 61.385C26.3556 61.4362 26.2004 61.2402 26.222 60.9458C26.2356 60.6458 26.442 60.3634 26.6644 60.3186C26.8916 60.229 27.0564 60.4314 27.0324 60.7242ZM28.2068 60.3842C28.186 60.6826 27.982 60.9658 27.7564 61.0426C27.5308 61.1162 27.382 60.9098 27.4028 60.6258C27.4324 60.3322 27.622 60.0482 27.85 59.9786C28.0716 59.9026 28.2372 60.0954 28.2068 60.3842ZM28.9804 63.4786C28.8516 65.0346 27.8628 66.2362 26.738 66.5426C25.6132 66.8594 24.7772 66.1642 24.9092 64.6098C25.0348 63.0906 26.0332 61.8514 27.1548 61.5346C28.2668 61.2194 29.1028 61.961 28.9796 63.4786H28.9804ZM26.2516 64.261C26.2028 64.8226 26.462 65.117 26.8596 65.0154C27.262 64.9018 27.5812 64.437 27.6292 63.897C27.6716 63.3642 27.442 63.009 27.0212 63.133C26.6036 63.2498 26.2996 63.757 26.2516 64.2602V64.261Z" fill="white"/>
<path d="M29.6507 60.9147L30.9851 60.5547L30.7123 63.8379L31.8299 63.5259L31.7011 65.0875L29.2451 65.7563L29.6507 60.9147Z" fill="white"/>
<path d="M32.4527 60.1305L33.7375 59.7897L34.7127 62.1433H34.7431C34.7311 61.7377 34.7047 61.3417 34.7375 60.9217L34.8663 59.4729L36.1415 59.1201L35.7375 63.9569L34.4583 64.3089L33.5007 62.0969L33.4487 62.1065C33.4655 62.4321 33.4791 62.7289 33.4487 63.0601L33.3183 64.6393L32.0527 64.9833L32.4527 60.1321V60.1305Z" fill="white"/>
<path d="M21.6512 63.1435L22.9472 62.7819L22.7352 64.8955L22.7656 64.8867C22.8184 64.6795 22.9112 64.4827 23.0008 64.2827L23.7736 62.5491L25.232 62.1475L23.8832 64.8227L24.9528 66.9635L23.4064 67.3963L22.8848 66.0963C22.8232 65.9371 22.7248 65.7891 22.7208 65.6035L22.684 65.6123L22.5392 67.6379L21.2432 67.9899L21.6512 63.1435Z" fill="white"/>
</svg>
