<svg width="80" height="80" viewBox="0 0 80 80" fill="none" xmlns="http://www.w3.org/2000/svg">
<path d="M39.999 69.6004C53.2262 69.6004 63.9926 58.838 63.9926 45.6076V12.4276C63.9894 11.6164 63.3534 10.9572 62.5518 10.91C55.2022 10.574 47.6166 10.4004 39.999 10.4004C32.3814 10.4004 24.7958 10.574 17.4454 10.91C16.6446 10.9572 16.0078 11.6156 16.0078 12.4276V45.6076C16.0078 58.838 26.7686 69.6004 39.9998 69.6004H39.999Z" fill="#B2B2B2"/>
<path d="M39.9986 68.3562C52.541 68.3562 62.7474 58.1522 62.7474 45.6074V12.4274L62.7442 12.433C62.7442 12.2786 62.621 12.1514 62.4642 12.1514C55.1442 11.8162 47.589 11.6426 39.9986 11.6426C32.4082 11.6426 24.853 11.8162 17.5322 12.1514C17.3762 12.1514 17.2522 12.2786 17.2522 12.433L17.249 12.4274V45.6074C17.249 58.1522 27.4546 68.3562 39.9978 68.3562H39.9986Z" fill="#0A1F62"/>
<path d="M59.4968 45.7599C59.4968 56.5639 50.7376 65.3239 39.9312 65.3239C29.1248 65.3239 20.3672 56.5639 20.3672 45.7599C20.3672 34.9559 29.1264 26.1943 39.9312 26.1943C50.736 26.1943 59.4968 34.9551 59.4968 45.7599Z" fill="#E10001"/>
<path d="M54.58 59.1515C54.6112 59.1179 54.6408 59.0851 54.6736 59.0515C54.7528 58.9611 54.836 58.8715 54.9152 58.7811C54.9336 58.7619 54.952 58.7411 54.9688 58.7211C55.06 58.6155 55.1544 58.5091 55.2448 58.4027C55.2464 58.3995 55.248 58.3979 55.248 58.3947C55.972 57.5355 56.6288 56.6027 57.2112 55.6019C57.7896 54.6035 58.2696 53.5755 58.6592 52.5283C58.6624 52.5211 58.6648 52.5107 58.668 52.5011C58.716 52.3771 58.7584 52.2491 58.804 52.1235C58.8136 52.0923 58.8248 52.0603 58.8344 52.0299C58.8704 51.9211 58.9088 51.8099 58.9424 51.7011C58.9576 51.6523 58.9728 51.6019 58.9904 51.5531C59.0176 51.4595 59.0472 51.3651 59.0752 51.2715C59.0936 51.2051 59.1136 51.1403 59.1328 51.0739C59.1536 50.9947 59.1776 50.9139 59.1992 50.8347C59.22 50.7523 59.2416 50.6723 59.2624 50.5907C59.2776 50.5243 59.2952 50.4603 59.3112 50.3947C59.3352 50.2979 59.3584 50.2019 59.3808 50.1051C59.3928 50.0555 59.404 50.0059 59.4144 49.9563C59.4384 49.8419 59.4624 49.7299 59.4864 49.6155C59.4928 49.5827 59.4992 49.5531 59.5048 49.5219C59.532 49.3891 59.556 49.2571 59.58 49.1243C59.58 49.1147 59.5832 49.1075 59.5832 49.0987C59.7736 47.9987 59.876 46.8675 59.876 45.7155C59.876 44.5635 59.776 43.4451 59.5864 42.3523C59.5832 42.3347 59.58 42.3211 59.5768 42.3051C59.556 42.1787 59.5312 42.0539 59.5072 41.9275C59.5 41.8883 59.4944 41.8515 59.4856 41.8131C59.4616 41.7067 59.4408 41.5987 59.4168 41.4931C59.404 41.4363 59.3928 41.3811 59.3808 41.3251C59.3592 41.2347 59.3352 41.1443 59.3144 41.0539C59.2968 40.9835 59.2808 40.9115 59.2624 40.8395C59.2416 40.7635 59.2232 40.6907 59.1992 40.6155C59.1776 40.5291 59.1536 40.4419 59.1296 40.3571C59.1144 40.2971 59.096 40.2387 59.0784 40.1787C59.0488 40.0787 59.0184 39.9771 58.9904 39.8787C58.976 39.8323 58.9608 39.7899 58.948 39.7475C58.9112 39.6331 58.8728 39.5171 58.8344 39.4011C58.8248 39.3771 58.816 39.3531 58.8064 39.3275C58.7616 39.1947 58.716 39.0635 58.6648 38.9299V38.9243C58.276 37.8715 57.7936 36.8395 57.2112 35.8355C56.5528 34.7019 55.796 33.6555 54.9576 32.7059C54.9456 32.6907 54.9304 32.6747 54.9184 32.6603C54.8344 32.5635 54.7504 32.4699 54.6624 32.3763C54.6352 32.3467 54.608 32.3171 54.5832 32.2883C54.5056 32.2051 54.4304 32.1267 54.3544 32.0467C54.3128 32.0059 54.2768 31.9659 54.2368 31.9267C54.1704 31.8579 54.104 31.7907 54.0344 31.7243C53.9832 31.6731 53.9328 31.6227 53.8808 31.5715C53.8224 31.5163 53.7656 31.4595 53.708 31.4051C53.6432 31.3451 53.5792 31.2867 53.516 31.2267C53.4712 31.1835 53.4232 31.1411 53.3744 31.0971C53.2992 31.0275 53.22 30.9603 53.1456 30.8923C53.1088 30.8611 53.0752 30.8315 53.04 30.8019C52.9496 30.7227 52.856 30.6451 52.7632 30.5667C52.7448 30.5515 52.7272 30.5363 52.7088 30.5211C51.8544 29.8147 50.9296 29.1715 49.9376 28.6019C48.9392 28.0267 47.9072 27.5499 46.8584 27.1667C46.8464 27.1611 46.8328 27.1571 46.8192 27.1515C46.6976 27.1067 46.5744 27.0643 46.452 27.0243C46.4152 27.0099 46.3816 26.9979 46.3456 26.9859C46.24 26.9499 46.1336 26.9163 46.0264 26.8827C45.9744 26.8659 45.92 26.8475 45.8664 26.8323C45.776 26.8043 45.6856 26.7779 45.592 26.7507C45.5224 26.7299 45.4536 26.7083 45.3856 26.6899C45.308 26.6691 45.2296 26.6475 45.1512 26.6267C45.0688 26.6051 44.9824 26.5811 44.9 26.5603C44.8368 26.5451 44.7728 26.5299 44.708 26.5147C44.6104 26.4907 44.5112 26.4667 44.4112 26.4427C44.3608 26.4339 44.3152 26.4243 44.2672 26.4131C44.1496 26.3891 44.0352 26.3635 43.9208 26.3395C43.8896 26.3339 43.8576 26.3283 43.8304 26.3227C43.6952 26.2955 43.5616 26.2715 43.4264 26.2467C43.4176 26.2467 43.4112 26.2467 43.4048 26.2435C42.2976 26.0531 41.1616 25.9531 40 25.9531C38.8384 25.9531 37.7112 26.0507 36.6104 26.2403C36.5976 26.2435 36.5848 26.2459 36.5712 26.2491C36.4416 26.2707 36.3136 26.2947 36.1848 26.3187C36.1488 26.3251 36.1128 26.3339 36.076 26.3395C35.9672 26.3627 35.8568 26.3851 35.7496 26.4091C35.6936 26.4211 35.6392 26.4339 35.5848 26.4451C35.4904 26.4659 35.3976 26.4875 35.3048 26.5115C35.2352 26.5267 35.1656 26.5451 35.0968 26.5627C35.0184 26.5819 34.94 26.6027 34.8648 26.6235C34.78 26.6443 34.696 26.6683 34.6112 26.6899C34.5496 26.7083 34.4872 26.7283 34.424 26.7467C34.3272 26.7747 34.228 26.8019 34.1288 26.8323C34.084 26.8475 34.0376 26.8619 33.9896 26.8779C33.8776 26.9139 33.7632 26.9499 33.6512 26.9859C33.624 26.9971 33.5944 27.0075 33.5696 27.0155C33.4376 27.0611 33.3072 27.1059 33.1752 27.1539C33.1712 27.1539 33.168 27.1579 33.1624 27.1579C32.1064 27.5435 31.0704 28.0227 30.0632 28.6011C29.0616 29.1747 28.1296 29.8235 27.2704 30.5379C27.2616 30.5443 27.252 30.5531 27.2432 30.5587C27.1408 30.6435 27.0408 30.7299 26.9432 30.8155C26.9144 30.8395 26.8872 30.8627 26.86 30.8867C26.7752 30.9603 26.6912 31.0355 26.6096 31.1107C26.5672 31.1467 26.528 31.1835 26.488 31.2219C26.416 31.2859 26.3464 31.3523 26.2776 31.4187C26.2256 31.4675 26.1744 31.5155 26.1216 31.5667C26.0664 31.6211 26.0064 31.6803 25.9512 31.7355C25.8888 31.7963 25.8288 31.8587 25.7672 31.9195C25.7216 31.9651 25.6768 32.0139 25.6312 32.0611C25.56 32.1347 25.4896 32.2067 25.4208 32.2819C25.388 32.3187 25.3552 32.3539 25.3216 32.3907C25.2424 32.4755 25.164 32.5643 25.0832 32.6531C25.064 32.6763 25.044 32.6987 25.0248 32.7219C24.9352 32.8251 24.8464 32.9283 24.7576 33.0331C24.7536 33.0387 24.7472 33.0427 24.7424 33.0483C24.0248 33.9051 23.3672 34.8363 22.788 35.8347C22.1304 36.9683 21.5992 38.1387 21.1888 39.3339C21.1824 39.3547 21.1736 39.3779 21.1648 39.4003C21.1248 39.5179 21.0888 39.6355 21.0496 39.7531C21.0344 39.7947 21.0224 39.8347 21.0104 39.8755C20.9768 39.9763 20.9472 40.0819 20.9168 40.1843C20.9008 40.2419 20.8832 40.2979 20.8656 40.3531C20.8408 40.4403 20.8192 40.5315 20.7952 40.6219C20.7752 40.6923 20.7568 40.7635 20.7384 40.8363C20.7176 40.9123 20.7 40.9867 20.684 41.0595C20.6608 41.1467 20.64 41.2355 20.6192 41.3219C20.6064 41.3819 20.5936 41.4419 20.58 41.5011C20.5584 41.6043 20.5344 41.7075 20.516 41.8099C20.5072 41.8523 20.4976 41.8971 20.4896 41.9363C20.4656 42.0595 20.444 42.1811 20.4224 42.3011C20.4192 42.3219 20.4144 42.3403 20.4112 42.3635C20.224 43.4531 20.124 44.5723 20.124 45.7155C20.124 46.8587 20.224 47.9915 20.4144 49.0843C20.4168 49.0995 20.42 49.1139 20.4224 49.1267C20.444 49.2555 20.4688 49.3827 20.4928 49.5115C20.5016 49.5459 20.508 49.5819 20.5136 49.6179C20.5368 49.7267 20.5608 49.8355 20.5832 49.9435C20.5952 50.0003 20.6064 50.0523 20.6192 50.1059C20.6408 50.2003 20.664 50.2923 20.6856 50.3835C20.7024 50.4547 20.7184 50.5219 20.736 50.5923C20.7568 50.6699 20.7784 50.7475 20.7984 50.8259C20.8208 50.9091 20.8416 50.9907 20.8656 51.0747C20.884 51.1371 20.9016 51.2003 20.9224 51.2619C20.9504 51.3603 20.9776 51.4563 21.0104 51.5539C21.0232 51.6003 21.0384 51.6475 21.0536 51.6931C21.0896 51.8051 21.1256 51.9163 21.1648 52.0275C21.1744 52.0579 21.1832 52.0867 21.1944 52.1147C21.24 52.2435 21.2848 52.3715 21.3304 52.5003C21.3344 52.5059 21.336 52.5123 21.3392 52.5187C21.7264 53.5675 22.208 54.5987 22.788 55.5979C23.3672 56.5931 24.0216 57.5219 24.7392 58.3771C24.7456 58.3851 24.7512 58.3931 24.7576 58.3995C24.8448 58.5043 24.932 58.6043 25.0216 58.7059C25.0408 58.7299 25.064 58.7539 25.0856 58.7795C25.1616 58.8659 25.24 58.9515 25.3176 59.0355C25.352 59.0747 25.388 59.1131 25.4216 59.1499C25.4904 59.2227 25.5592 59.2939 25.6288 59.3659C25.6752 59.4139 25.72 59.4635 25.7704 59.5115C25.8288 59.5723 25.888 59.6315 25.9464 59.6899C26.0064 59.7491 26.064 59.8075 26.124 59.8651C26.1744 59.9131 26.224 59.9595 26.272 60.0067C26.344 60.0755 26.416 60.1427 26.488 60.2091C26.5248 60.2451 26.5664 60.2811 26.6056 60.3147C26.688 60.3931 26.7752 60.4691 26.8616 60.5459C26.8864 60.5667 26.9112 60.5899 26.9376 60.6099C27.04 60.6979 27.14 60.7851 27.2432 60.8691C27.252 60.8779 27.2584 60.8835 27.2672 60.8899C28.1288 61.6035 29.0608 62.2531 30.0632 62.8299C31.0648 63.4051 32.096 63.8819 33.1472 64.2651C33.1576 64.2699 33.1696 64.2739 33.1816 64.2803C33.3056 64.3243 33.4288 64.3667 33.5528 64.4091C33.588 64.4219 33.6224 64.4347 33.6552 64.4459C33.7632 64.4811 33.8712 64.5155 33.9776 64.5507C34.0304 64.5659 34.08 64.5827 34.1344 64.5971C34.2248 64.6267 34.3184 64.6539 34.412 64.6803C34.48 64.7011 34.548 64.7203 34.6168 64.7379C34.692 64.7619 34.7704 64.7803 34.8488 64.8011C34.9352 64.8251 35.0168 64.8475 35.0992 64.8675C35.1656 64.8843 35.2288 64.9003 35.2912 64.9155C35.392 64.9395 35.4888 64.9635 35.5896 64.9851C35.6376 64.9963 35.684 65.0059 35.7352 65.0155C35.848 65.0427 35.964 65.0675 36.08 65.0899C36.112 65.0971 36.14 65.0995 36.172 65.1083C36.3056 65.1331 36.4408 65.1595 36.5744 65.1835C36.5808 65.1851 36.5896 65.1851 36.5952 65.1851C37.7024 65.3771 38.84 65.4779 40.0008 65.4779C41.316 65.4779 42.604 65.3475 43.8496 65.1043C43.8704 65.1011 43.8936 65.0947 43.916 65.0923C44.0392 65.0683 44.1632 65.0403 44.2832 65.0163C44.3256 65.0051 44.3664 64.9979 44.4064 64.9867C44.5128 64.9627 44.6184 64.9387 44.724 64.9131C44.7816 64.8987 44.8384 64.8859 44.896 64.8723C44.9864 64.8499 45.0768 64.8243 45.1672 64.8003C45.2392 64.7819 45.3096 64.7611 45.3808 64.7427C45.4544 64.7219 45.532 64.7003 45.608 64.6771C45.692 64.6523 45.78 64.6283 45.8632 64.6011C45.9216 64.5827 45.9816 64.5643 46.0432 64.5435C46.1424 64.5131 46.2416 64.4819 46.3416 64.4475C46.384 64.4339 46.4248 64.4171 46.4656 64.4043C46.5848 64.3651 46.7008 64.3235 46.8152 64.2811C46.836 64.2739 46.8576 64.2659 46.8776 64.2587C47.9208 63.8771 48.944 63.4035 49.94 62.8307C50.9384 62.2571 51.864 61.6123 52.7208 60.9027C52.736 60.8907 52.748 60.8787 52.7632 60.8683C52.8624 60.7875 52.956 60.7043 53.0528 60.6227C53.0824 60.5955 53.1152 60.5707 53.1464 60.5435C53.228 60.4715 53.3064 60.3995 53.3864 60.3275C53.4288 60.2883 53.4744 60.2483 53.5168 60.2075C53.5864 60.1451 53.6528 60.0835 53.7192 60.0195C53.7736 59.9683 53.828 59.9163 53.8816 59.8635C53.9368 59.8091 53.9904 59.7571 54.0448 59.7011C54.1104 59.6395 54.1744 59.5763 54.2376 59.5107C54.28 59.4651 54.3224 59.4219 54.3664 59.3779C54.4368 59.3019 54.512 59.2267 54.584 59.1491L54.58 59.1515ZM45.7712 64.1187C45.1704 64.2323 44.5344 63.9611 44.2088 63.4059C44.0728 63.1715 44.0096 62.9123 44.012 62.6595L44.0152 62.4931L44.012 62.4907C44.0152 62.4787 44.012 62.4699 44.0064 62.4571C43.988 62.4291 43.9488 62.4179 43.9184 62.4331C43.9112 62.4395 43.9032 62.4451 43.9 62.4531H43.8968L43.8368 62.5355C43.508 62.9395 42.6848 63.3675 41.3264 63.6235C41.2936 63.6291 41.2632 63.6331 41.2304 63.6395C41.2248 63.6419 41.2216 63.6419 41.2176 63.6427C41.0736 63.6667 40.9264 63.6899 40.7752 63.7123C40.7456 63.7171 40.7152 63.7219 40.684 63.7243C40.1168 63.8051 39.5024 63.8627 38.8784 63.8715C32.9312 63.9507 28.808 61.5459 26.2872 59.3475C25.0928 58.1603 24.056 56.8187 23.2024 55.3579C21.5104 52.4283 20.6144 49.0971 20.6088 45.7195C20.6104 44.2931 20.7736 42.8755 21.0872 41.4915C21.2888 40.9179 21.8424 40.5043 22.4872 40.5043C22.7616 40.5043 23.0176 40.5795 23.2368 40.7075L23.3816 40.7947V40.7923C23.3936 40.7979 23.4032 40.8043 23.4152 40.8043C23.4504 40.8043 23.4784 40.7739 23.4784 40.7395C23.4784 40.7307 23.4744 40.7195 23.472 40.7139H23.4744L23.4296 40.6195C23.2424 40.1347 23.2816 39.2123 23.7368 37.9155C23.7488 37.8843 23.7584 37.8547 23.7704 37.8219C23.7736 37.8187 23.7736 37.8131 23.7768 37.8091C23.828 37.6739 23.8792 37.5355 23.9352 37.3963C23.948 37.3667 23.9592 37.3387 23.9696 37.3091C24.1856 36.7811 24.4424 36.2235 24.7464 35.6827C27.6512 30.5227 31.808 28.1731 34.9808 27.1003C36.6128 26.6675 38.3008 26.4427 40.0016 26.4411C43.3944 26.4483 46.7448 27.3403 49.6888 29.0211C50.9312 29.7387 52.0864 30.5891 53.1368 31.5515C53.5336 32.0123 53.616 32.6947 53.2928 33.2523C53.156 33.4867 52.964 33.6683 52.7408 33.7923L52.5952 33.8763L52.5968 33.8787C52.5872 33.8827 52.5784 33.8883 52.5712 33.9003C52.5528 33.9307 52.5624 33.9691 52.5936 33.9875C52.6024 33.9907 52.6104 33.9947 52.6192 33.9963V33.9979L52.7224 34.0067C53.236 34.0883 54.0232 34.5827 54.9248 35.6243C54.9464 35.6467 54.9656 35.6739 54.988 35.6979C54.9912 35.7011 54.9944 35.7067 54.9976 35.7091C55.088 35.8187 55.1816 35.9355 55.2776 36.0539C55.296 36.0779 55.3144 36.1019 55.3352 36.1259C55.6872 36.5755 56.0432 37.0755 56.3632 37.6091C59.4056 42.6883 59.3728 47.4443 58.7216 50.7115C58.2816 52.3339 57.6336 53.8995 56.7864 55.3643C55.084 58.2843 52.6304 60.7235 49.6936 62.4163C48.4472 63.1283 47.1328 63.6979 45.7696 64.1195L45.7712 64.1187Z" fill="white"/>
<path d="M22.3833 17.6717L22.2769 14.8965L21.6929 15.1541L21.5713 14.5325L22.4465 14.2069L22.9265 14.1885L23.0609 17.6453L22.3841 17.6725L22.3833 17.6717Z" fill="white"/>
<path d="M24.6242 17.2302C24.633 17.463 24.4538 17.6582 24.225 17.6646C23.9938 17.6734 23.7978 17.4894 23.7914 17.2606C23.7818 17.0302 23.9658 16.8326 24.1954 16.8254C24.4274 16.8174 24.6178 17.0014 24.6242 17.2302Z" fill="white"/>
<path d="M26.9921 14.6191L27.0193 15.5119L28.1353 15.4815L28.1505 16.0303L27.0337 16.0583L27.0737 17.5143L26.4073 17.5351L26.3105 14.0727L28.1617 14.0215L28.1777 14.5871L26.9929 14.6183L26.9921 14.6191Z" fill="white"/>
<path d="M30.1397 17.4869C29.3285 17.5037 28.9365 17.1317 28.9237 16.5269L28.8877 14.7997L29.5485 14.7845L29.5821 16.3645C29.5909 16.7749 29.7893 16.9437 30.1637 16.9373C30.5677 16.9285 30.7237 16.6997 30.7149 16.3141L30.6821 14.7613L31.3309 14.7461L31.3669 16.3829C31.3813 16.9773 31.0173 17.4661 30.1397 17.4869Z" fill="white"/>
<path d="M32.7328 17.448C32.5648 17.4512 32.3568 17.4288 32.2088 17.3936L32.224 16.808C32.3808 16.868 32.5816 16.9016 32.7904 16.8984C33.0112 16.8952 33.1944 16.7896 33.192 16.588C33.1848 16.184 32.1176 16.4248 32.1056 15.5552C32.0968 15.0312 32.4864 14.6776 33.2192 14.6664C33.3632 14.6632 33.5576 14.6816 33.7072 14.7L33.696 15.2544C33.552 15.2152 33.3552 15.1912 33.2016 15.1944C32.9208 15.1976 32.804 15.308 32.8064 15.472C32.8104 15.852 33.9016 15.6768 33.9144 16.4968C33.9232 17.0552 33.4768 17.4368 32.7336 17.4472L32.7328 17.448Z" fill="white"/>
<path d="M35.1292 17.4175C34.9596 17.4175 34.7548 17.3935 34.6068 17.3599L34.6252 16.7743C34.7796 16.8343 34.9804 16.8695 35.1892 16.8671C35.41 16.8647 35.5932 16.7599 35.5908 16.5607C35.59 16.1567 34.5188 16.3919 34.5108 15.5199C34.5052 14.9951 34.8964 14.6447 35.63 14.6367C35.7748 14.6367 35.97 14.6551 36.1156 14.6751L36.1036 15.2279C35.958 15.1887 35.7628 15.1647 35.6084 15.1647C35.3252 15.1695 35.2108 15.2783 35.2108 15.4415C35.2164 15.8215 36.3076 15.6503 36.3148 16.4703C36.3204 17.0303 35.8716 17.4103 35.13 17.4175H35.1292Z" fill="white"/>
<path d="M38.0419 17.3489C37.8491 17.3521 37.4987 17.3417 37.0891 17.3449L37.0771 14.6769C37.3483 14.6769 37.7859 14.6585 38.1403 14.6553C38.8587 14.6537 39.1508 14.8993 39.1516 15.3185C39.154 15.5753 39.0099 15.8033 38.7443 15.9065V15.9121C39.0419 15.9913 39.1907 16.2177 39.1931 16.5041C39.1931 16.9049 38.9195 17.3473 38.0419 17.3489ZM38.0123 15.1193C37.9307 15.1193 37.8244 15.1249 37.7364 15.1249L37.7403 15.7625C37.8163 15.7657 37.8915 15.7657 37.9299 15.7657C38.2411 15.7657 38.4515 15.6513 38.4491 15.4209C38.4491 15.2409 38.3468 15.1169 38.0116 15.1201L38.0123 15.1193ZM37.9667 16.1753C37.9091 16.1753 37.8083 16.1753 37.7403 16.1817L37.7435 16.8633C37.8211 16.8721 37.9219 16.8785 38.0259 16.8785C38.3499 16.8753 38.4963 16.7281 38.4947 16.5073C38.4947 16.2721 38.2987 16.1761 37.9667 16.1761V16.1753Z" fill="white"/>
<path d="M41.6462 17.3385L41.483 16.8705L40.455 16.8681L40.283 17.3353L39.6182 17.3321L40.6118 14.6689H41.3958L42.375 17.3385H41.6462ZM41.0974 15.7625C41.0526 15.6385 41.0014 15.4849 40.9678 15.3673H40.9646C40.931 15.4849 40.8918 15.6233 40.8462 15.7473L40.6086 16.3929L41.3262 16.3953L41.0966 15.7633L41.0974 15.7625Z" fill="white"/>
<path d="M42.9883 17.3441L43.0083 14.6777L43.6699 14.6817L43.6515 16.7657L44.5203 16.7713L44.5139 17.3569L42.9883 17.3441Z" fill="white"/>
<path d="M45.1502 17.3629L45.1838 14.6973L45.8438 14.7061L45.8198 16.7869L46.6846 16.7981L46.6758 17.3813L45.1494 17.3621L45.1502 17.3629Z" fill="white"/>
<path d="M48.7067 17.4633C47.4963 17.4425 47.1235 16.6281 47.1371 15.7681C47.1555 14.6697 47.7467 13.9105 48.9043 13.9321C49.1491 13.9377 49.4107 13.9737 49.6363 14.0393L49.5531 14.6433C49.3267 14.5713 49.0939 14.5313 48.8563 14.5257C48.2115 14.5161 47.8851 14.9961 47.8723 15.6689C47.8579 16.4201 48.1651 16.8497 48.8619 16.8609C49.0715 16.8657 49.3539 16.8089 49.5347 16.7305L49.6011 17.3257C49.3427 17.4145 49.0283 17.4697 48.7059 17.4641L48.7067 17.4633Z" fill="white"/>
<path d="M50.3436 17.4506L50.4068 14.7842L51.0668 14.7994L51.0188 16.8802L51.8844 16.901L51.8692 17.4866L50.3428 17.4498L50.3436 17.4506Z" fill="white"/>
<path d="M53.627 17.5809C52.8182 17.5569 52.4422 17.1681 52.4638 16.5617L52.515 14.8369L53.175 14.8545L53.127 16.4345C53.1174 16.8441 53.3054 17.0233 53.679 17.0353C54.0854 17.0465 54.251 16.8257 54.2606 16.4433L54.3086 14.8881L54.9574 14.9065L54.9094 16.5433C54.891 17.1377 54.5054 17.6089 53.627 17.5809Z" fill="white"/>
<path d="M56.7583 17.6497C56.5647 17.6409 56.2151 17.6201 55.8047 17.6041L55.9047 14.9385C56.1759 14.9505 56.6103 14.9505 56.9647 14.9625C57.6831 14.9897 57.9639 15.2457 57.9511 15.6649C57.9399 15.9217 57.7887 16.1433 57.5199 16.2345L57.5167 16.2409C57.8119 16.3345 57.9511 16.5633 57.9423 16.8505C57.9271 17.2513 57.6343 17.6817 56.7575 17.6489L56.7583 17.6497ZM56.7303 16.4737C56.6735 16.4705 56.5703 16.4681 56.5047 16.4705L56.4767 17.1521C56.5543 17.1649 56.6575 17.1729 56.7591 17.1769C57.0831 17.1889 57.2367 17.0465 57.2423 16.8273C57.2511 16.5913 57.0615 16.4865 56.7295 16.4737H56.7303ZM56.8207 15.4201C56.7375 15.4169 56.6311 15.4177 56.5439 15.4153L56.5199 16.0505C56.5959 16.0577 56.6743 16.0601 56.7095 16.0633C57.0231 16.0745 57.2367 15.9673 57.2439 15.7377C57.2527 15.5585 57.1535 15.4329 56.8215 15.4201H56.8207Z" fill="white"/>
<path d="M21.9433 23.1965L21.8801 21.6949L20.4145 21.7549L20.4793 23.2573L19.8105 23.2845L19.6689 19.8261L20.3329 19.7989L20.3905 21.1829L21.8585 21.1221L21.8017 19.7381L22.4673 19.7109L22.6089 23.1677L21.9441 23.1973L21.9433 23.1965Z" fill="white"/>
<path d="M23.4965 23.1366L23.4053 20.4702L25.0453 20.415L25.0637 20.9318L24.0845 20.9662L24.1029 21.4982L25.0349 21.4678L25.0533 21.9686L24.1213 22.0014L24.1413 22.5862L25.1197 22.551L25.1381 23.0782L23.4973 23.1358L23.4965 23.1366Z" fill="white"/>
<path d="M25.9949 23.0549L25.9141 20.3893L26.5773 20.3701L26.6557 23.0333L25.9949 23.0541V23.0549Z" fill="white"/>
<path d="M28.5082 22.9993C28.149 23.0089 27.861 23.0033 27.6154 23.0009L27.5498 20.3401C27.7906 20.3305 28.2618 20.3065 28.5898 20.3009C29.4562 20.2777 30.0402 20.6329 30.0626 21.5657C30.0858 22.5361 29.4042 22.9785 28.5082 23.0001V22.9993ZM28.5362 20.8409C28.4394 20.8409 28.3162 20.8497 28.225 20.8617L28.2618 22.4369C28.325 22.4457 28.4426 22.4481 28.5602 22.4457C29.0362 22.4337 29.3738 22.1529 29.361 21.6161C29.3466 21.0921 29.0698 20.8265 28.5354 20.8417L28.5362 20.8409Z" fill="white"/>
<path d="M30.8 22.9335L30.752 20.2663L32.392 20.2383L32.4016 20.7575L31.4216 20.7727L31.4312 21.3071L32.3656 21.2887L32.3752 21.7919L31.44 21.8103L31.4528 22.3927L32.432 22.3743L32.4416 22.9047L30.8008 22.9343L30.8 22.9335Z" fill="white"/>
<path d="M34.9766 22.8684L34.1606 21.5764C34.067 21.4292 33.9734 21.2396 33.9046 21.0924H33.9014C33.911 21.222 33.919 21.3548 33.9198 21.5628L33.9374 22.8812L33.3006 22.89L33.2686 20.2236L34.1574 20.214L34.9454 21.4748C35.0478 21.6348 35.1438 21.8004 35.2286 21.9812H35.2342C35.2198 21.8212 35.2134 21.6012 35.2102 21.3236L35.1918 20.1996L35.8334 20.1924L35.8614 22.8596L34.9766 22.8684Z" fill="white"/>
<path d="M38.6134 22.8444L38.6086 21.7668L37.475 21.7724L37.4798 22.8468L36.8198 22.8524L36.8086 20.1836H37.4686L37.4742 21.2028L38.6078 21.1972L38.6022 20.178L39.263 20.1748L39.275 22.8404L38.6134 22.8436V22.8444Z" fill="white"/>
<path d="M40.2334 22.8428L40.2398 20.1748L41.8806 20.178V20.6972L40.9006 20.6956V21.2276L41.8326 21.23V21.7332L40.8974 21.73V22.3156H41.8766L41.875 22.8436L40.2334 22.842V22.8428Z" fill="white"/>
<path d="M42.7285 22.85L42.7461 20.1836L43.4093 20.1868L43.3925 22.8524L42.7285 22.8492V22.85Z" fill="white"/>
<path d="M47.1286 22.8947L46.9662 21.6107C46.9382 21.3867 46.9142 21.1787 46.9022 21.0251H46.8966C46.8574 21.1939 46.8094 21.3779 46.7566 21.5531L46.3086 22.8851L45.6198 22.8763L45.2518 21.6347C45.191 21.4443 45.1342 21.2083 45.095 21.0131H45.0894C45.0766 21.2115 45.0558 21.4075 45.0214 21.6227L44.8446 22.8667L44.1846 22.8579L44.6342 20.1963L45.4654 20.2075L45.8822 21.5651C45.9278 21.7155 45.971 21.8899 46.0054 22.0707H46.011C46.0478 21.8811 46.0902 21.7371 46.1446 21.5803L46.615 20.2235L47.4598 20.2323L47.831 22.9043L47.1286 22.8955V22.8947Z" fill="white"/>
<path d="M50.2652 22.956L50.3284 20.1784L49.7284 20.4L49.6436 19.7712L50.5388 19.5L51.0196 19.5112L50.9436 22.9712L50.266 22.956H50.2652Z" fill="white"/>
<path d="M52.8038 23.0788C52.075 23.0604 51.659 22.6844 51.6742 22.1348C51.6862 21.7372 51.987 21.4628 52.3262 21.2604C51.9758 21.0508 51.7734 20.7836 51.7862 20.4364C51.8014 19.8372 52.3134 19.4708 53.0102 19.49C53.6766 19.5084 54.087 19.8852 54.075 20.3708C54.063 20.762 53.791 21.0044 53.4614 21.2116C53.8278 21.4324 54.1102 21.7068 54.0958 22.1172C54.0774 22.778 53.4806 23.1004 52.8038 23.0796V23.0788ZM52.8462 21.538C52.5846 21.6948 52.3726 21.8476 52.3638 22.0932C52.355 22.3556 52.5518 22.5308 52.8798 22.5388C53.175 22.5476 53.407 22.4004 53.4142 22.1428C53.423 21.8724 53.1542 21.706 52.8462 21.538ZM52.9438 20.0164C52.6382 20.0076 52.4582 20.162 52.4518 20.3884C52.4462 20.6116 52.6326 20.7628 52.9406 20.9348C53.2414 20.7588 53.3934 20.6044 53.4014 20.4092C53.407 20.21 53.2686 20.026 52.943 20.0164H52.9438Z" fill="white"/>
<path d="M56.6883 22.3161L56.6587 23.1425L56.0139 23.1185L56.0411 22.2953L54.6387 22.2465L54.5635 21.7193L55.9483 19.6553L56.7795 19.6833L56.7099 21.7161L57.2259 21.7361L57.2051 22.3345L56.6883 22.3161ZM56.1219 20.2921H56.1155L55.2011 21.6849C55.4291 21.6817 55.9075 21.7001 56.0731 21.7057L56.1219 20.2921Z" fill="white"/>
<path d="M58.8485 23.2842C58.1301 23.2538 57.6693 22.7466 57.7117 21.7634C57.7685 20.349 58.5829 19.7066 59.5805 19.7458C59.7501 19.7546 59.8861 19.7658 59.9789 19.785L59.9549 20.3698C59.8165 20.333 59.7005 20.3162 59.5477 20.3106C59.0165 20.2898 58.6389 20.561 58.4701 21.1186C58.4549 21.1634 58.4405 21.2242 58.4189 21.2906L58.4221 21.2962C58.5973 21.113 58.8501 21.0106 59.1829 21.0258C59.8429 21.053 60.2317 21.4994 60.2077 22.0898C60.1749 22.853 59.6221 23.317 58.8477 23.285L58.8485 23.2842ZM58.9933 21.5618C58.6549 21.5466 58.4293 21.7826 58.4141 22.0962C58.4013 22.4458 58.5797 22.7138 58.9173 22.7282C59.2933 22.7434 59.5029 22.4962 59.5149 22.153C59.5301 21.8098 59.3517 21.5762 58.9933 21.5618Z" fill="white"/>
<path d="M40.1486 53.8148C35.0918 53.8148 34.5342 50.246 34.5342 46.4276C34.5342 41.738 35.6014 38.1572 40.7398 38.1572C41.831 38.1572 42.0798 38.2932 43.0782 38.5668L42.7614 41.2468C41.763 40.9532 41.6262 40.794 40.5798 40.794C38.007 40.794 37.7846 43.2828 37.7846 45.93C37.7846 48.7988 38.043 51.1332 40.7846 51.1332C41.7166 51.1332 42.0566 50.8612 42.8518 50.4972L43.1926 53.1348C42.0574 53.5444 41.5806 53.8164 40.1486 53.8164V53.8148Z" fill="white"/>
<path d="M50.8384 53.6083H50.92C53.284 53.5987 53.788 51.9491 53.7944 49.7843V38.2715H50.8392V44.4067H47.4064V38.2715H44.4512V53.6083H47.4064V46.9515H50.8392V53.6083H50.8384Z" fill="white"/>
<path d="M29.7028 41.9371C29.706 41.2755 29.8612 40.7699 30.5884 40.7699H33.9524V38.2715H29.6484C27.262 38.2715 26.7564 39.9259 26.75 42.0971V53.6091H29.7028V47.1571H33.2948V44.7243H29.7028V41.9379V41.9371Z" fill="white"/>
</svg>
