<svg width="80" height="80" viewBox="0 0 80 80" fill="none" xmlns="http://www.w3.org/2000/svg">
<path d="M70.6237 35.0096C70.6237 35.0096 70.5525 34.7528 70.2853 34.7528H41.8997C40.7421 33.6064 39.4317 33.0112 39.4293 33.0096C39.4293 33.0096 39.4293 33.0096 39.6965 33.0096H57.1733C57.1733 33.0096 57.4405 33.0096 57.3685 32.7528L55.9325 27.5752C55.9325 27.5752 55.8613 27.3184 55.5941 27.3184H5.40771C5.40771 27.3184 5.14051 27.3184 5.21251 27.5752L6.64851 32.7528C6.64851 32.7528 6.71971 33.0096 6.98691 33.0096H9.43331C9.43331 33.0096 9.70051 33.0096 9.77171 33.2664L14.4189 50.024C14.4189 50.024 14.4901 50.2808 14.7573 50.2808C14.7573 50.2808 14.4901 50.2808 26.9365 50.2808C26.9365 50.2808 27.2029 50.2808 27.2469 50.3184C27.2901 50.356 30.0165 52.6824 34.2437 52.6824C38.4709 52.6824 41.1277 50.356 41.1693 50.3184C41.1693 50.3184 41.2109 50.2808 41.4781 50.2808H74.5941C74.5941 50.2808 74.8605 50.2808 74.7893 50.024L70.6253 35.0096H70.6237Z" fill="white"/>
<path d="M29.4992 49.8564C32.7712 51.7668 36.6824 51.2628 39.0752 49.8564H40.4104C36.6608 52.6028 31.6208 52.2924 28.1816 49.8572H29.4992V49.8564Z" fill="#FFDC00"/>
<path d="M28.1817 49.8571C25.1417 47.7051 23.3529 43.8923 24.8105 39.0603H21.9945L24.8017 49.4011H15.2473L10.4161 31.9979H7.44734L6.38574 28.1963H55.3081L56.3513 32.1347H20.1233L21.0321 35.4987H27.1497C32.0801 30.8387 38.9529 32.6411 41.6161 35.6443H69.9545L73.8049 49.3491H41.0489C40.8409 49.5291 40.6281 49.6979 40.4105 49.8571H39.0753C39.4001 49.6651 39.6969 49.4579 39.9601 49.2371C39.7529 48.4907 39.5553 47.7355 39.3481 46.9715C38.0257 48.1987 35.3985 49.5891 31.6833 47.9411C28.4265 46.2763 26.2137 41.4019 30.5137 37.4547C32.1329 36.0987 34.4721 35.6011 36.2897 36.1507C36.0737 35.3179 35.8849 34.4859 35.6689 33.6531C31.3777 33.1035 27.3289 35.1203 25.5841 39.3507C24.4777 42.0883 24.9001 46.5419 28.8321 49.4251C29.0513 49.5803 29.2737 49.7235 29.4993 49.8555H28.1817V49.8571ZM31.8049 46.4267L31.7289 46.8171C31.7553 46.6851 31.7801 46.5555 31.8049 46.4267ZM28.7689 41.8835C29.2641 42.7155 30.1633 43.2995 31.5489 43.5915C31.6025 43.4027 31.6569 43.2227 31.7105 43.0339C30.5137 42.7939 29.6777 42.3219 29.2817 41.5923C29.1105 41.6867 28.9401 41.7891 28.7689 41.8843V41.8835ZM36.7577 37.3267C37.4233 35.9883 38.3857 35.2411 39.4929 34.7947C39.4209 34.6147 39.3401 34.4339 39.2593 34.2627C38.0089 34.7515 36.9473 35.6011 36.2185 37.0947L36.7585 37.3267H36.7577ZM41.6785 36.5539C39.1417 37.6955 37.7473 39.0683 37.0001 41.9347C37.1889 41.9859 37.3777 42.0459 37.5577 42.0979C37.6209 41.9003 37.6929 41.6947 37.7553 41.4971C39.5097 42.8267 40.2833 44.6979 40.6521 46.4227C40.8593 46.3883 41.0209 46.3459 41.2281 46.3195C40.6977 43.8571 39.6177 42.0459 37.9353 40.9219C38.3129 39.9091 38.8617 39.1371 39.5729 38.5187C41.8673 40.2603 42.9913 42.6547 43.1353 45.5987C43.3329 45.5987 43.5313 45.6075 43.7289 45.6075C43.5217 42.2691 42.2265 39.8323 40.0225 38.1419C40.6345 37.6955 41.2369 37.3435 41.8849 37.0859C41.8313 37.0603 41.7857 37.0603 41.7321 37.0427C41.8489 36.8795 41.9665 36.7251 42.0745 36.5619C42.0113 36.5451 41.9481 36.5275 41.8945 36.5275C41.8321 36.5275 41.7601 36.5363 41.6785 36.5531V36.5539ZM19.2505 48.6451H20.4833C20.4025 48.3619 20.3217 48.0619 20.2401 47.7611C19.8801 47.9667 19.5113 48.1219 19.1065 48.1555L19.2505 48.6443V48.6451ZM42.2905 36.3995C45.1785 40.0291 45.1065 45.1955 41.8409 48.5939H72.7705L69.3425 36.3995H42.2905ZM12.8993 28.9507H7.41134L8.04974 31.2419H11.0185L15.8585 48.6451H18.4313C18.3777 48.4651 18.3233 48.2675 18.2697 48.0787C16.4433 47.5123 16.1105 45.5299 17.2353 44.3971L12.8993 28.9507ZM18.9177 44.4659C18.0633 44.4659 17.3705 45.1267 17.3705 45.9331C17.3705 46.7395 18.0633 47.4091 18.9177 47.4091C19.7721 47.4091 20.4561 46.7483 20.4561 45.9331C20.4561 45.1179 19.7633 44.4659 18.9177 44.4659ZM15.7785 28.9507L19.9977 43.9771C21.1489 44.6123 21.6353 45.8219 20.8793 47.1267C21.0145 47.6419 21.1585 48.1483 21.3025 48.6459H23.7761L20.9785 38.2971H25.1345C25.5121 37.5163 25.9441 36.8379 26.4481 36.2635H20.4113L19.0977 31.3723H55.3353L54.6873 28.9523H15.7785V28.9507ZM34.6345 38.5619C34.4185 38.5531 34.2297 38.5451 34.0769 38.5531C33.9153 38.5531 33.7529 38.5531 33.5817 38.5187C33.5097 38.4755 33.4649 38.3731 33.4649 38.2187C33.4649 38.1931 33.4289 38.1587 33.3929 38.1843C33.2489 38.2955 33.2489 38.4587 33.3033 38.5531C33.3665 38.6563 33.4745 38.7251 33.6001 38.7587C33.6361 38.7675 33.6721 38.7755 33.7081 38.7755C33.7713 38.7755 33.8433 38.7755 33.9777 38.7843C34.0945 38.7843 34.2113 38.7843 34.3193 38.7755C34.4513 38.7667 34.5665 38.7667 34.6641 38.7587L34.6457 38.6299C34.6409 38.6067 34.6369 38.5843 34.6345 38.5611V38.5619ZM19.0801 43.7195L14.9593 28.9507H13.7089L17.9193 43.9339C18.2521 43.7963 18.6297 43.7107 19.0801 43.7195Z" fill="#FFDC00"/>
<path d="M35.7406 37.6351C35.8126 37.6095 35.8846 37.5751 35.9566 37.5407C35.9654 37.5319 36.011 37.5239 36.1542 37.5239V37.4807C36.1542 37.4375 36.1366 37.4295 36.1094 37.4207C36.0822 37.4207 36.0462 37.4119 36.0102 37.4119C35.9294 37.4119 35.8574 37.4207 35.8302 37.4551C35.7854 37.5063 35.7406 37.5495 35.7046 37.5919C35.7134 37.6095 35.7318 37.6263 35.7406 37.6351ZM34.895 37.9184C34.8318 37.7984 34.7686 37.6863 34.6878 37.5919C34.6518 37.5487 34.5526 37.5487 34.5262 37.5919C34.4814 37.6431 34.463 37.7463 34.4454 37.8495C34.4366 37.8663 34.4366 37.8839 34.4454 37.9008C34.463 37.9096 34.4726 37.9263 34.4902 37.9351C34.5086 37.9527 34.5262 37.9439 34.5446 37.9351C34.5806 37.9007 34.5894 37.8495 34.5806 37.7895L34.6342 37.7639C34.6526 37.7807 34.6614 37.8239 34.6702 37.8671V37.9103C34.6614 37.9359 34.6878 37.9536 34.7238 37.9536C34.7782 37.9448 34.8318 37.9279 34.895 37.9191V37.9184ZM34.6886 38.9312L34.6646 38.7599C34.6646 38.7199 34.655 38.676 34.6462 38.6312L34.635 38.5536C34.599 38.5104 34.5454 38.4679 34.5182 38.4247C34.2486 38.3735 34.0054 38.3127 33.7446 38.2527C33.6998 38.2439 33.6726 38.2271 33.6454 38.2015C33.5374 38.0983 33.4654 37.9871 33.4118 37.8751C33.367 37.7551 33.4294 37.6863 33.5734 37.6608C33.7622 37.6351 33.9606 37.6095 34.1582 37.5919C34.2126 37.5831 34.2478 37.5663 34.275 37.5407C34.5534 37.2743 34.9406 37.2231 35.3454 37.2575C35.471 37.2663 35.7054 37.3175 35.8398 37.2743C36.263 37.2487 36.3798 37.4287 36.3166 37.7119C36.2982 37.7719 36.3078 37.8407 36.3166 37.9095C36.4422 38.2439 36.5238 38.5791 36.4246 38.9303C36.299 39.2223 36.1726 39.5223 36.2806 39.7199C36.4158 40.0207 36.4966 40.3207 36.407 40.5951C36.3174 40.9983 36.0918 41.4704 36.1998 41.8312C36.299 42.0712 36.479 42.8095 36.6046 43.1695C36.6766 43.4183 36.8118 43.5983 36.9558 43.7791C37.0726 43.9503 37.1534 44.1136 37.2078 44.2768C37.1358 44.2768 37.0726 44.2856 37.0006 44.2856C37.1358 45.0496 37.2254 46.1391 37.4326 46.3191C37.415 46.3703 37.4054 46.4312 37.3878 46.4824C37.3878 46.5336 37.2886 46.5591 37.2526 46.6191C36.9918 47.2031 36.6142 47.5375 35.8766 47.7351V47.7095C35.7966 47.5055 35.663 47.2256 35.5382 46.9864C35.7886 46.8328 36.0214 46.6703 36.1734 46.5079C35.0934 45.5639 35.0582 45.2632 34.8686 44.2599C34.8686 44.2167 34.851 44.1999 34.8238 44.1999C34.7878 44.1999 34.7518 44.2087 34.7158 44.2087C34.8054 44.5351 34.887 44.8607 34.9766 45.1783C34.3022 45.6671 33.9062 46.0624 33.7622 47.1264C33.7086 47.324 33.5734 47.3663 33.4206 47.3327C33.1774 47.2471 32.9526 47.2039 32.7638 47.2127C32.4134 47.1695 32.071 47.0239 31.7294 46.8175C31.783 46.5511 31.8286 46.2943 31.8822 46.0279C31.9814 46.0623 32.0894 46.1056 32.1614 46.0968C32.2606 46.1144 32.2966 46.1311 32.3414 46.1743C32.3774 46.1999 32.4046 46.2344 32.5126 46.2256C32.5662 46.2256 32.7822 46.3456 32.8542 46.2856C32.6566 44.8264 33.0702 44.2776 34.123 43.5656C34.159 43.548 34.1766 43.5567 34.2222 43.5831C34.267 43.6255 34.303 43.6688 34.3478 43.712C34.4374 43.7464 34.447 43.6863 34.3926 43.6343C34.0238 43.4287 33.871 43.0511 33.799 42.6135C33.7902 42.5959 33.8078 42.5624 33.727 42.596C32.171 43.1192 31.883 42.9135 30.8574 42.0551L31.1206 41.6272C31.187 41.5224 31.2542 41.4176 31.323 41.312C31.6694 41.508 31.8478 41.7127 31.9638 41.9175C31.9998 41.9687 32.027 41.9607 32.063 41.9351C32.5398 41.6607 33.0254 41.412 33.5118 41.1712C33.503 41.1368 33.4934 41.1024 33.4934 41.0768C33.3854 41.1368 33.2774 41.1967 33.1694 41.2487C31.947 40.5375 31.255 40.6223 30.859 38.9975C30.8686 38.9999 30.8814 38.9975 30.8934 38.9919C31.1086 38.8767 31.3086 38.7767 31.531 38.6631L31.559 38.6487C31.7118 38.8375 31.811 39.1208 31.883 39.4384C31.8646 39.464 31.9014 39.5071 31.919 39.5151C32.4766 39.6607 33.0254 39.8072 33.5742 39.936C33.4214 40.1848 33.3134 40.3991 33.2686 40.5367C33.2326 40.7167 33.1966 40.8712 33.1966 40.9312H33.2958C33.4574 40.0472 33.6734 39.7295 34.5646 39.3351C34.5646 39.2751 34.5558 39.2063 34.5558 39.1463C34.4302 39.1719 34.3038 39.1719 34.1782 39.1463C34.115 39.1295 34.0526 39.1119 33.9534 39.1119C33.7374 39.0431 33.8094 38.8455 33.9174 38.8632C34.0974 38.8376 34.223 38.8631 34.3222 38.8975C34.367 38.9231 34.511 38.9319 34.691 38.9319L34.6886 38.9312Z" fill="black"/>
<path d="M28.7686 41.8828C28.9398 41.7884 29.1102 41.6852 29.2814 41.5908C29.6774 42.3204 30.5142 42.7924 31.7102 43.0324C31.6566 43.2212 31.6022 43.4012 31.5486 43.59C30.163 43.298 29.2638 42.7148 28.7686 41.882V41.8828Z" fill="black"/>
<path d="M36.7578 37.3267L36.2178 37.0947C36.9466 35.6019 38.0082 34.7523 39.2586 34.2627C39.3394 34.4339 39.4202 34.6147 39.4922 34.7947C38.3858 35.2411 37.4234 35.9875 36.757 37.3267H36.7578Z" fill="black"/>
<path d="M41.6784 36.5539C41.7592 36.5371 41.8312 36.5283 41.8944 36.5283C41.9488 36.5283 42.0112 36.5451 42.0744 36.5627C41.9664 36.7259 41.8496 36.8803 41.732 37.0435C41.7864 37.0603 41.8312 37.0603 41.8848 37.0867C41.2368 37.3443 40.6344 37.6963 40.0224 38.1427C42.2264 39.8331 43.5216 42.2699 43.7288 45.6083C43.5312 45.6083 43.3328 45.5995 43.1352 45.5995C42.9912 42.6563 41.8664 40.2619 39.5728 38.5195C38.8624 39.1371 38.3136 39.9099 37.9352 40.9227C39.6176 42.0467 40.6968 43.8579 41.228 46.3203C41.0208 46.3459 40.8592 46.3891 40.652 46.4235C40.2832 44.6987 39.5096 42.8283 37.7552 41.4979C37.692 41.6955 37.62 41.9011 37.5576 42.0987C37.3776 42.0467 37.1888 41.9867 37 41.9355C37.7464 39.0691 39.1408 37.6963 41.6784 36.5547V36.5539Z" fill="black"/>
<path d="M44.1528 37.1378L46.6 46.157C46.816 47.0066 47.2384 47.6674 48.3808 47.6586H50.5672C51.1792 47.6586 51.5568 47.4266 51.3144 46.5514C50.4688 43.4194 49.6136 40.2786 48.768 37.1378H47.4728L50.0008 46.3194C50.0728 46.5338 50.0008 46.6282 49.8392 46.637H49.1288C48.9848 46.6282 48.8952 46.5594 48.8584 46.4138C48.0128 43.3242 47.1584 40.2354 46.3128 37.137H44.1536L44.1528 37.1378ZM51.7816 37.1378H49.5864L52.4832 47.6586H53.8056L52.1144 41.5058L55.3888 47.6586H57.5568L54.6776 37.1378H53.472L55.0736 42.913L51.7808 37.1378H51.7816ZM65.96 37.1378H63.756L66.6616 47.6586H67.9752L66.284 41.5058L69.568 47.6586H71.7272L68.8576 37.1378H67.652L69.2536 42.913L65.9608 37.1378H65.96ZM55.488 37.1378L58.4032 47.6586H60.0672L57.152 37.1378H55.488ZM58.448 38.2962C58.9696 40.905 59.852 43.737 60.6432 46.3282C60.94 47.281 61.516 47.7098 62.092 47.6586C62.1552 47.6586 62.2272 47.6586 62.2896 47.6674C63.0272 47.6674 63.7472 47.6674 64.4664 47.6586C65.1232 47.6762 65.528 47.4186 65.5824 46.8002V46.5002C65.5736 46.3714 65.5464 46.2346 65.5192 46.0882L63.2792 37.9274C63.1264 37.421 62.7664 37.2154 62.2896 37.1634C62.164 37.1466 62.0288 37.1378 61.8936 37.1378C61.1744 37.129 60.4 37.129 59.5368 37.1378C58.844 37.1554 58.4752 37.4642 58.448 38.0474V38.2962ZM42.2904 36.3994H69.3424L72.7704 48.5938H41.8408C45.1064 45.1954 45.1784 40.0298 42.2904 36.3994ZM62.2896 40.1754C62.856 42.2434 63.4144 44.2858 63.9896 46.3626C64.0168 46.517 63.9448 46.5946 63.7648 46.6114H63.1984C62.8656 46.5938 62.6672 46.1826 62.5416 45.7618C62.4608 45.453 62.38 45.1354 62.2896 44.8266C61.6872 42.6554 61.0216 40.433 60.5896 38.3474C60.572 38.193 60.608 38.1154 60.7784 38.1154C61.0488 38.1154 61.3272 38.1066 61.588 38.1066C61.66 38.1066 61.732 38.1154 61.7408 38.1922C61.9296 38.8618 62.1096 39.5138 62.2896 40.1746V40.1754Z" fill="white"/>
<path d="M12.8991 28.9502L17.2351 44.3966C16.1103 45.5294 16.4431 47.5118 18.2695 48.0782C18.3239 48.267 18.3775 48.4638 18.4311 48.6446H15.8583L11.0183 31.2414H8.04953L7.41113 28.9502H12.8991Z" fill="#E30613"/>
<path d="M18.9173 44.4658C19.7629 44.4658 20.4557 45.1266 20.4557 45.933C20.4557 46.7394 19.7629 47.409 18.9173 47.409C18.0717 47.409 17.3701 46.7482 17.3701 45.933C17.3701 45.1178 18.0629 44.4658 18.9173 44.4658Z" fill="#E30613"/>
<path d="M15.7783 28.9508H54.6879L55.3359 31.3708H19.0975L20.4111 36.262H26.4479C25.9439 36.8372 25.5119 37.5148 25.1343 38.2956H20.9783L23.7759 48.6444H21.3023C21.1583 48.1468 21.0143 47.6404 20.8791 47.1252C21.6351 45.8204 21.1487 44.6108 19.9975 43.9756L15.7783 28.9492V28.9508Z" fill="#E30613"/>
<path d="M36.2895 36.15C34.4719 35.6004 32.1335 36.0988 30.5135 37.454C26.2135 41.4012 28.4263 46.2756 31.6831 47.9404C35.3983 49.5884 38.0255 48.1972 39.3479 46.9708C39.5551 47.7348 39.7527 48.49 39.9599 49.2364C37.6207 51.1932 32.6551 52.1372 28.8311 49.4252C24.8999 46.542 24.4767 42.0884 25.5831 39.3508C27.3287 35.1204 31.3767 33.1036 35.6679 33.6532C35.8839 34.486 36.0727 35.318 36.2887 36.1508L36.2895 36.15Z" fill="#E30613"/>
<path d="M34.6703 38.7589L34.6455 38.6309C34.6543 38.6757 34.6639 38.7197 34.6703 38.7589Z" fill="#EB1C24"/>
<path d="M34.6337 38.5616C34.6369 38.5848 34.6409 38.608 34.6449 38.6304L34.6633 38.7592C34.5657 38.7672 34.4505 38.7672 34.3185 38.776C34.2105 38.7848 34.0937 38.7848 33.9769 38.7848C33.8417 38.776 33.7697 38.776 33.7073 38.776C33.6713 38.776 33.6353 38.7672 33.5993 38.7592C33.4737 38.7248 33.3657 38.656 33.3025 38.5536C33.2489 38.4592 33.2489 38.296 33.3921 38.1848C33.4281 38.1592 33.4641 38.1936 33.4641 38.2192C33.4641 38.3736 33.5089 38.4768 33.5809 38.5192C33.7521 38.5536 33.9137 38.5536 34.0761 38.5536C34.2289 38.5448 34.4177 38.5536 34.6337 38.5624V38.5616Z" fill="#E30613"/>
<path d="M30.8574 38.9955C31.0814 38.8827 31.3054 38.7763 31.5302 38.6611C31.3078 38.7747 31.1078 38.8747 30.8918 38.9899C30.879 38.9963 30.867 38.9979 30.8574 38.9955Z" fill="#EB1C24"/>
<path d="M31.5482 38.5878C31.557 38.6134 31.557 38.631 31.557 38.6478C31.3234 38.7678 31.089 38.8798 30.8554 38.991C30.7746 38.9478 30.6842 38.8966 30.6218 38.8534C30.577 38.8102 30.6218 38.759 30.6762 38.7846C30.7394 38.8022 30.8018 38.819 30.8738 38.8358H30.9098C30.865 38.759 30.757 38.6726 30.6666 38.5958L30.6938 38.5446C30.7658 38.579 30.8466 38.6134 30.9274 38.6478L30.7922 38.4422C30.801 38.4334 30.8194 38.4254 30.837 38.4078C30.9362 38.511 31.0346 38.6134 31.1426 38.6822C31.1154 38.5446 31.0706 38.4166 31.017 38.287L31.0706 38.2614C31.1426 38.3902 31.2234 38.5102 31.3226 38.6222C31.2778 38.5278 31.2146 38.4166 31.1338 38.3134C31.0978 38.2358 31.197 38.2278 31.2234 38.2446C31.349 38.3302 31.4394 38.451 31.5474 38.5878H31.5482Z" fill="#E30613"/>
<path d="M31.3151 41.3076C31.2527 41.4172 31.1855 41.522 31.1191 41.6268L31.3151 41.3076Z" fill="#EB1C24"/>
<path d="M31.1186 41.6266C31.0298 41.7666 30.9426 41.9082 30.8554 42.0546L31.1186 41.6266ZM31.321 41.3122C31.2506 41.4202 31.1842 41.5234 31.1186 41.6266L31.321 41.3122ZM31.3234 41.3081L31.1186 41.6266L30.8554 42.0546C30.8194 42.029 30.7922 42.0034 30.7562 41.977C30.7386 41.9602 30.621 41.9002 30.5586 41.857C30.541 41.8314 30.5498 41.8058 30.5858 41.797C30.649 41.7882 30.7122 41.7882 30.7746 41.7802C30.7026 41.7458 30.6306 41.7025 30.5586 41.6681C30.5586 41.6513 30.5586 41.6249 30.5674 41.6081C30.6482 41.6081 30.729 41.6002 30.8106 41.6002C30.7474 41.5482 30.6578 41.5058 30.613 41.4537C30.577 41.3937 30.6402 41.3682 30.6666 41.385C30.7562 41.3938 30.8466 41.4106 30.9274 41.4026L30.7562 41.2394C30.765 41.2226 30.7834 41.205 30.7922 41.197C30.873 41.2226 30.9634 41.257 31.0442 41.2914C31.0082 41.2402 30.9722 41.1801 30.9362 41.1281C30.945 41.1113 30.9538 41.1113 30.9722 41.0938C31.1434 41.1881 31.2602 41.2569 31.3234 41.3081Z" fill="#E30613"/>
<path d="M35.8754 47.7094C35.805 47.575 35.7394 47.4342 35.673 47.2902L35.5586 47.0342C35.6794 47.2606 35.801 47.5182 35.8762 47.7094H35.8754Z" fill="#EB1C24"/>
<path d="M35.6734 47.2899C35.6278 47.1899 35.5814 47.0891 35.5342 46.9883L35.559 47.0347L35.6734 47.2907V47.2899Z" fill="#EB1C24"/>
<path d="M35.534 46.9795C35.65 47.2355 35.7572 47.4827 35.8732 47.7299C35.7852 47.7779 35.7044 47.8123 35.6324 47.8467C35.6772 47.7699 35.722 47.6923 35.758 47.6147C35.6684 47.6747 35.5779 47.7435 35.4883 47.8123C35.5515 47.7179 35.6052 47.6235 35.6596 47.5291C35.5516 47.5467 35.4348 47.5723 35.3268 47.5979C35.4164 47.5123 35.5068 47.4347 35.5964 47.3491C35.4972 47.3835 35.4076 47.4267 35.3172 47.4611C35.3716 47.3755 35.4339 47.2979 35.4883 47.2211C35.3979 47.2211 35.2995 47.2291 35.2188 47.2379C35.3179 47.1523 35.426 47.0667 35.534 46.9803V46.9795Z" fill="#E30613"/>
<path d="M31.7282 46.8166L31.4946 46.8342L31.701 46.671L31.3682 46.5854L31.7098 46.4566L31.4402 46.3022L31.7458 46.259L31.485 46.0446L31.8362 46.0702L31.6202 45.959L31.881 46.0278L31.7282 46.8166Z" fill="#E30613"/>
<path d="M44.1522 37.1377H46.3114C47.157 40.2353 48.0114 43.3249 48.857 46.4145C48.893 46.5601 48.9826 46.6289 49.1274 46.6377H49.8378C49.9994 46.6289 50.0714 46.5345 49.9994 46.3201L47.4714 37.1385H48.7666C49.6122 40.2793 50.4674 43.4201 51.313 46.5521C51.5562 47.4273 51.1778 47.6593 50.5658 47.6593H48.3794C47.237 47.6681 46.8146 47.0073 46.5986 46.1577L44.1514 37.1385L44.1522 37.1377Z" fill="#E30613"/>
<path d="M51.7811 37.1377L55.0739 42.9129L53.4723 37.1377H54.6779L57.5571 47.6585H55.3883L52.1139 41.5057L53.8051 47.6585H52.4827L49.5859 37.1377H51.7811Z" fill="#E30613"/>
<path d="M65.9599 37.1377L69.2527 42.9129L67.6511 37.1377H68.8567L71.7263 47.6585H69.5671L66.2839 41.5057L67.9751 47.6585H66.6615L63.7559 37.1377H65.9599Z" fill="#E30613"/>
<path d="M55.4873 37.1377H57.1513L60.0665 47.6585H58.4025L55.4873 37.1377Z" fill="#E30613"/>
<path d="M62.2889 40.1751C62.1089 39.5143 61.9289 38.8623 61.7401 38.1927C61.7313 38.1151 61.6593 38.1071 61.5873 38.1071C61.3265 38.1071 61.0481 38.1159 60.7777 38.1159C60.6065 38.1159 60.5705 38.1935 60.5889 38.3479C61.0209 40.4327 61.6865 42.6559 62.2889 44.8271C62.3785 45.1359 62.4601 45.4535 62.5409 45.7623C62.6673 46.1831 62.8649 46.5951 63.1977 46.6119H63.7641C63.9441 46.5943 64.0161 46.5175 63.9889 46.3631C63.4129 44.2863 62.8553 42.2439 62.2889 40.1759V40.1751ZM58.4473 38.2959V38.0471C58.4745 37.4639 58.8433 37.1551 59.5361 37.1375C60.3993 37.1287 61.1729 37.1287 61.8929 37.1375C62.0281 37.1375 62.1633 37.1463 62.2889 37.1631C62.7657 37.2143 63.1257 37.4207 63.2785 37.9271L65.5185 46.0879C65.5457 46.2343 65.5729 46.3711 65.5817 46.4999V46.7999C65.5273 47.4175 65.1225 47.6751 64.4657 47.6583C63.7465 47.6671 63.0265 47.6671 62.2889 47.6671C62.2257 47.6583 62.1537 47.6583 62.0913 47.6583C61.5153 47.7103 60.9401 47.2807 60.6425 46.3279C59.8513 43.7367 58.9689 40.9047 58.4473 38.2959Z" fill="#E30613"/>
<path d="M35.7401 37.6353C35.7313 37.6265 35.7129 37.6097 35.7041 37.5921C35.7401 37.5489 35.7849 37.5065 35.8297 37.4553C35.8569 37.4209 35.9289 37.4121 36.0097 37.4121C36.0457 37.4121 36.0817 37.4209 36.1089 37.4209C36.1361 37.4297 36.1537 37.4377 36.1537 37.4809V37.5241C36.0097 37.5241 35.9649 37.5329 35.9561 37.5409C35.8841 37.5753 35.8121 37.6097 35.7401 37.6353Z" fill="white"/>
<path d="M34.8947 37.9182C34.8315 37.927 34.7779 37.9438 34.7235 37.9526C34.6875 37.9526 34.6603 37.935 34.6699 37.9094V37.8662C34.6611 37.823 34.6523 37.7806 34.6339 37.763L34.5803 37.7886C34.5891 37.8486 34.5803 37.8998 34.5443 37.9342C34.5259 37.943 34.5083 37.9518 34.4899 37.9342C34.4715 37.9254 34.4627 37.9086 34.4451 37.8998C34.4363 37.8822 34.4363 37.8654 34.4451 37.8486C34.4627 37.7454 34.4811 37.6422 34.5259 37.591C34.5531 37.5478 34.6523 37.5478 34.6875 37.591C34.7683 37.6854 34.8315 37.7974 34.8947 37.9174V37.9182Z" fill="white"/>
</svg>
