<svg width="80" height="80" viewBox="0 0 80 80" fill="none" xmlns="http://www.w3.org/2000/svg">
<path d="M40.0004 67.5754C56.3484 67.5754 69.6004 55.2298 69.6004 40.0002C69.6004 24.7706 56.3484 12.4258 40.0004 12.4258C23.6524 12.4258 10.4004 24.7706 10.4004 40.0002C10.4004 55.2298 23.6532 67.5754 40.0004 67.5754Z" fill="white"/>
<path d="M35.0935 40.215C34.5199 34.1694 31.2415 29.4966 27.7711 29.7766C24.2999 30.0566 21.9511 35.1846 22.5247 41.2294C22.6367 42.4142 22.8535 43.5462 23.1543 44.599C24.3903 48.9158 27.0567 51.8926 29.8471 51.667C32.4319 51.4582 34.3951 48.5606 34.9911 44.5982C35.1959 43.2406 35.2399 41.7574 35.0935 40.2142V40.215ZM29.2911 45.6278C28.5759 45.6854 27.8775 45.2966 27.2887 44.599C26.4959 43.6598 25.9023 42.1614 25.7391 40.4398C25.4543 37.439 26.5831 34.8974 28.2607 34.7614C29.9383 34.6262 31.5287 36.9486 31.8127 39.9494C31.9927 41.8478 31.6071 43.563 30.8743 44.599C30.4487 45.203 29.9071 45.5774 29.2911 45.6278Z" fill="#E30613"/>
<path d="M40.0545 64.431H39.9481C37.8217 64.4206 35.5257 64.0982 33.5577 63.6438C36.9513 57.7878 37.4993 52.0214 37.4993 52.0214V33.071L26.3297 23.2462C21.9265 26.803 19.1521 32.0342 19.1521 37.8694C19.1521 45.807 24.3049 52.651 31.6937 55.6606L29.3505 62.243C20.1017 58.4174 13.6553 49.8438 13.6553 39.8798C13.6553 28.0886 22.6897 18.2542 34.7065 15.9222C34.8177 15.903 34.9257 15.8934 35.0433 15.8934C36.0321 15.8934 36.8337 16.5902 36.8337 17.4494C36.8337 18.103 36.3697 18.6622 35.7129 18.8926C33.5489 19.3214 31.5105 20.0574 29.6529 21.0486L39.9489 30.0782L50.3409 21.0446C48.4849 20.055 46.4489 19.3206 44.2881 18.8918C43.6313 18.6614 43.1673 18.1022 43.1673 17.4486C43.1673 16.5894 43.9689 15.8926 44.9577 15.8926C45.0753 15.8926 45.1825 15.9022 45.2945 15.9214C57.3121 18.2534 66.3465 28.0886 66.3465 39.879C66.3465 49.843 59.8993 58.4166 50.6513 62.2422L48.3073 55.6598C55.6969 52.6502 60.8489 45.8054 60.8489 37.8686C60.8489 32.035 58.0745 26.8046 53.6721 23.247L42.5041 33.0702V52.0206C42.5041 52.0206 43.0521 57.787 46.4457 63.643C44.4777 64.0974 42.1809 64.4198 40.0545 64.4302V64.431Z" fill="#E30613"/>
<path d="M56.381 38.2884C57.129 42.2788 54.4954 47.7796 49.3994 51.5044C48.5754 52.1068 48.3946 52.4412 47.801 52.7556L46.6346 49.3732C47.3386 49.0388 47.6026 48.882 48.5266 48.2068C50.9242 46.454 52.2154 44.098 51.8442 42.1156C51.5914 40.7676 50.5442 39.434 48.7954 40.7116C47.4714 41.6796 46.677 42.4404 45.5674 43.642L45.5938 33.9364L53.6482 27.0332L53.5754 31.3404L49.3074 34.7132L49.3458 37.57C49.661 37.2796 49.9306 37.0524 50.5306 36.614C53.3282 34.5692 55.8274 35.3268 56.3818 38.2868L56.381 38.2884Z" fill="#E30613"/>
<path d="M40.0003 66.231C24.4811 66.231 11.8555 54.4638 11.8555 39.9998C11.8555 25.5358 24.4811 13.7686 40.0003 13.7686C55.5195 13.7686 68.1451 25.5358 68.1451 39.9998C68.1451 54.4638 55.5195 66.231 40.0003 66.231ZM40.0003 14.1134C24.6707 14.1134 12.1995 25.7262 12.1995 39.9998C12.1995 54.2734 24.6707 65.887 40.0003 65.887C55.3299 65.887 67.8011 54.2742 67.8011 39.9998C67.8011 25.7254 55.3299 14.1134 40.0003 14.1134Z" fill="#E30613"/>
</svg>
