<svg width="80" height="80" viewBox="0 0 80 80" fill="none" xmlns="http://www.w3.org/2000/svg">
<path d="M25.1413 15.6175C25.5101 15.2343 26.3309 14.4335 27.8453 14.4839C28.7941 14.0463 29.8789 14.2183 30.2821 14.4551C30.2821 14.4551 30.9653 14.4391 31.4053 14.6511C34.1077 13.7455 36.9981 13.2551 39.9989 13.2551C42.9997 13.2551 45.8901 13.7455 48.5925 14.6511C49.0325 14.4391 49.7157 14.4551 49.7157 14.4551C50.1189 14.2175 51.2045 14.0463 52.1525 14.4839C53.6669 14.4327 54.4885 15.2343 54.8565 15.6175C55.0661 15.0319 55.4309 14.5391 56.2877 14.2463C56.5933 12.6591 58.6589 11.9423 61.5693 13.4071C62.8685 12.2295 64.7741 13.4839 65.3981 15.1863C66.3565 14.9447 67.8773 15.8367 67.7757 18.6967C68.7469 18.7479 69.1245 19.7703 68.8493 21.4263C69.4269 21.3039 72.2645 20.7759 74.2973 23.3599C75.2669 24.5927 74.7037 26.1671 73.6725 26.9359C73.6037 27.1279 73.1717 28.8487 71.8701 29.5495C71.7925 30.4215 73.3037 32.2863 73.8717 33.5127C75.4701 36.9631 74.6757 42.8223 68.7533 43.8247C69.0157 44.0703 69.6173 44.8951 69.8141 45.5807C70.0693 46.4671 69.8765 47.3223 69.4309 48.0567C68.9421 48.8615 67.1141 50.0031 66.6605 50.5767C67.5069 51.0783 68.4701 52.1047 68.0389 54.0391L66.3565 61.6071C66.0805 62.8399 65.2589 63.8831 63.9181 64.1535C63.2381 64.2903 62.5285 64.1471 62.0997 64.0335C59.1565 63.2543 57.0261 63.8591 53.7637 64.9159C52.0629 65.4671 50.2117 66.0775 48.0133 66.5527C45.7645 67.0391 43.1605 67.3871 39.9997 67.3871C36.8389 67.3871 34.2349 67.0399 31.9861 66.5527C29.7885 66.0767 27.9365 65.4663 26.2357 64.9159C22.9733 63.8591 20.8429 63.2543 17.8997 64.0335C17.4717 64.1471 16.7621 64.2903 16.0813 64.1535C14.7405 63.8831 13.9189 62.8399 13.6429 61.6071L11.9605 54.0391C11.5293 52.1039 12.4925 51.0783 13.3389 50.5767C12.8845 50.0031 11.0573 48.8615 10.5685 48.0567C10.1221 47.3223 9.93008 46.4671 10.1853 45.5807C10.3821 44.8951 10.9837 44.0703 11.2461 43.8247C5.32368 42.8223 4.52928 36.9631 6.12768 33.5127C6.69568 32.2863 8.20688 30.4215 8.12928 29.5495C6.82688 28.8487 6.39568 27.1279 6.32688 26.9359C5.29568 26.1679 4.73248 24.5927 5.70208 23.3599C7.73568 20.7759 10.5725 21.3039 11.1501 21.4263C10.8741 19.7703 11.2517 18.7479 12.2237 18.6967C12.1221 15.8367 13.6421 14.9447 14.6013 15.1863C15.2253 13.4839 17.1309 12.2295 18.4301 13.4071C21.3405 11.9423 23.4069 12.6591 23.7117 14.2463C24.5685 14.5391 24.9333 15.0319 25.1429 15.6175H25.1413Z" fill="white"/>
<path d="M32.5856 63.7186C30.4904 63.265 28.7272 62.6794 27.1056 62.1546C23.932 61.1266 21.1536 60.269 17.504 61.1298C16.7592 61.3146 16.5008 61.3098 16.3352 60.5538L14.8216 53.7411C14.6832 53.1066 14.8696 52.9746 15.4808 52.8378C19.9888 51.8698 23.7064 52.5362 27.4472 53.4898C29.4064 53.989 31.352 54.561 33.3888 55.0074C35.4624 55.4626 37.6296 55.7882 39.9992 55.7882C42.3688 55.7882 44.5368 55.4618 46.6096 55.0074C48.6472 54.5602 50.592 53.989 52.5512 53.4898C56.292 52.5362 60.0088 51.8706 64.5176 52.8378C65.1296 52.9746 65.3152 53.1074 65.1776 53.7411L63.664 60.5538C63.4976 61.3106 63.2392 61.3146 62.4912 61.129C58.8424 60.2698 56.0656 61.1274 52.8928 62.1546C51.272 62.6794 49.508 63.265 47.4128 63.7186C45.332 64.169 42.9232 64.4882 39.9984 64.4882C37.0736 64.4882 34.6648 64.169 32.584 63.7186H32.5856ZM32.5032 24.6682L32.3056 24.5482L32.3552 24.3226C32.4872 23.7259 32.4056 23.1938 31.4864 23.1642L31.2592 23.157L30.5624 20.969L30.7544 20.8331C31.3856 20.3851 31.2392 19.8226 30.384 19.5146L30.1712 19.4378V19.2114C30.1712 18.8474 30.3912 18.645 30.5472 18.5034C30.5848 18.469 30.6256 18.433 30.6672 18.3938C30.7048 18.3586 30.7432 18.3202 30.7824 18.2778C30.8568 18.1962 30.932 18.0978 31.0016 17.9682L31.0576 17.8642L31.1672 17.821C33.9032 16.7466 36.8824 16.1562 40.0008 16.1562C43.1192 16.1562 46.0984 16.7466 48.8344 17.821L48.944 17.8642L49 17.9682C49.0696 18.0978 49.1448 18.1962 49.2192 18.2778C49.2584 18.321 49.2968 18.3586 49.3344 18.3938C49.376 18.433 49.4168 18.469 49.4544 18.5034C49.6104 18.645 49.8304 18.8474 49.8304 19.2114V19.4378L49.6176 19.5146C48.7616 19.8226 48.616 20.3851 49.2464 20.8331L49.4384 20.969L48.7416 23.157L48.5144 23.1642C47.5952 23.1938 47.5136 23.7259 47.6456 24.3226L47.6952 24.5482L47.4976 24.6682C47.2216 24.8354 46.98 25.4986 47.14 25.9826L47.3784 26.7034L46.6944 26.3746C44.6696 25.401 42.3992 24.8555 40.0008 24.8555C37.6024 24.8555 35.3328 25.401 33.3072 26.3746L32.6232 26.7034L32.8616 25.9826C33.0216 25.4986 32.7792 24.8354 32.504 24.6682H32.5032Z" fill="#FFFF00"/>
<path d="M65.0929 30.4881C65.0745 30.5145 65.0521 30.5433 65.0273 30.5697C64.7769 30.8313 64.2833 31.0889 63.8521 31.0761L63.4889 31.0657L63.5217 31.4273C63.6633 32.9921 64.5929 35.0881 65.5345 36.1737C66.4897 37.2745 66.9945 38.4713 66.9425 39.5465L66.9273 39.8545L67.2345 39.8833C69.0465 40.0529 70.3097 39.1937 70.7617 37.9585C71.4489 36.0793 70.1097 34.0473 69.1993 32.6721C67.9985 30.8585 68.1993 28.8009 68.4737 27.5017L68.5185 27.2889L68.3385 27.1673C67.9761 26.9233 67.7841 26.5113 67.7841 26.0401C67.7841 25.5153 67.9137 24.9433 68.4361 24.4209C68.9881 23.8689 69.5785 23.8025 70.4345 23.8025C70.8561 23.8025 71.9073 24.2641 72.2137 24.7233C72.2233 24.7377 72.2241 24.7497 72.2201 24.7625C72.2161 24.7753 72.1993 24.8129 72.1289 24.8505C71.7737 25.0401 71.5769 25.3497 71.4433 25.6537C71.3209 25.9313 71.2361 26.2481 71.1225 26.5473C70.9257 27.0625 70.6745 27.4449 69.8553 27.4449H69.6113L69.5449 27.6793C69.4241 28.1081 69.3625 28.5529 69.3465 28.9913C69.2961 30.3353 69.6305 31.2473 70.1241 32.0609C70.2929 32.3385 70.5545 32.7321 70.8297 33.1745C71.0977 33.6049 71.3785 34.0833 71.5921 34.5457C72.7657 37.0769 71.9753 40.1913 69.1153 41.0985C68.6577 41.2433 67.6289 41.3881 66.5401 41.2017L66.3577 41.1705L66.2385 41.3121C66.1745 41.3881 66.1057 41.4625 66.0329 41.5361C65.9241 41.6449 65.7921 41.7617 65.6489 41.8849L65.5785 41.9457L65.5513 42.0345C65.3057 42.8433 65.3833 43.7889 66.2017 44.7345C66.5249 45.1081 66.8057 45.4121 67.0201 45.6753C67.2337 45.9369 67.3457 46.1177 67.3873 46.2617C67.4425 46.4545 67.4049 46.7025 66.6201 47.2657C64.6217 48.7009 63.8137 49.9209 63.3745 50.7961C63.1713 51.2017 63.0569 51.5217 62.9281 51.7401C62.8361 51.8961 62.7825 51.9225 62.6737 51.9233C62.2801 51.9089 61.7049 51.8417 61.2841 51.6633L61.0257 51.5537L60.8817 51.7953C60.6249 52.2265 59.5993 52.3057 59.1857 52.0353L59.0497 51.9465L58.8977 52.0033C58.0513 52.3185 57.4785 52.2705 57.1345 52.1681C56.9601 52.1161 56.8369 52.0481 56.7609 51.9969C56.7249 51.9729 56.6985 51.9513 56.6809 51.9361C55.1737 51.8217 55.0641 50.2793 55.7193 49.4425C55.8641 49.2577 56.3169 48.7057 57.2601 48.7057C57.9033 48.7057 60.9433 46.7993 60.9433 45.7905C60.9433 45.5593 60.7897 45.3913 60.6769 45.2905C60.5513 45.1777 60.3841 45.0689 60.2081 44.9633C59.8633 44.7561 59.4033 44.5169 58.9441 44.2177C58.0313 43.6241 57.2377 42.8689 57.2377 41.7625C57.2377 40.8737 57.4873 39.3457 59.9769 39.3457H60.2993V39.0233C60.2993 37.2217 58.4905 35.4217 57.5945 34.7393C57.1913 34.4321 56.7633 33.9441 56.4617 33.3001L56.4041 33.1769L56.2761 33.1321C55.3537 32.8089 54.5305 31.7601 53.7545 30.5297C53.3713 29.9217 53.0145 29.2969 52.6785 28.7449C52.3417 28.1929 52.0081 27.6841 51.6753 27.3377L51.5785 27.2369L51.4385 27.2385C51.0321 27.2433 50.5145 27.0881 50.0753 26.9161L49.9153 26.8537L49.7745 26.9513C48.9809 27.4993 48.1129 27.1449 48.0689 26.6809L48.0409 26.3889H47.7473C47.2937 26.3889 47.1049 26.1129 47.0881 25.6969C47.0697 25.2361 47.2857 24.7961 47.4945 24.6697L47.6921 24.5497L47.6425 24.3241C47.5193 23.7657 47.2937 22.0761 52.0705 24.1657C52.2033 24.2241 52.3385 24.2889 52.4769 24.3577L53.0833 24.6625L52.9361 24.0001C52.7505 23.1665 52.3777 22.3817 51.5945 21.7017L51.4305 21.5593L51.2369 21.6577C50.9225 21.8177 50.7033 21.7905 50.4361 21.6545C50.2881 21.5793 50.1289 21.4705 49.9345 21.3297C49.7377 21.1865 49.5225 21.0241 49.2761 20.8561C48.6017 20.3969 48.7537 19.8257 49.6153 19.5153L49.8281 19.4385V19.2121C49.8281 19.0329 49.7753 18.8865 49.6897 18.7617C49.6497 18.7033 49.6049 18.6529 49.5625 18.6089C49.5233 18.5689 49.4801 18.5289 49.4337 18.4873C49.3945 18.4521 49.3529 18.4145 49.3097 18.3729C49.2705 18.3353 49.2305 18.2945 49.1905 18.2489C49.1137 18.1601 49.0361 18.0513 48.9649 17.9057C48.7241 17.4105 49.2721 16.8337 49.9713 17.1497L50.4241 16.8937C50.4313 16.8865 50.4513 16.8801 50.5001 16.8601C50.6009 16.8201 50.7585 16.7961 50.9441 16.8001C51.3609 16.8097 51.6545 16.9465 51.7041 17.0201L52.2465 17.0089C52.2249 17.0193 52.2153 17.0393 52.2065 17.0537C52.2129 17.0505 52.2329 17.0425 52.2689 17.0385C52.3393 17.0305 52.4529 17.0385 52.5937 17.0985C52.8705 17.2169 53.2705 17.5465 53.6113 18.3665L53.7201 18.6289L53.9937 18.5537C54.2433 18.4849 54.4857 18.4321 54.7065 18.4065C54.8649 18.3881 55.4113 18.3473 55.5433 18.3265C55.7009 18.3017 55.8265 18.2337 55.9273 18.1569C56.0233 18.0841 56.1065 17.9961 56.1713 17.9265C56.2033 17.8921 56.2361 17.8577 56.2697 17.8233C56.2993 17.7937 56.3297 17.7641 56.3617 17.7361C56.4217 17.6849 56.4801 17.6465 56.5441 17.6217C56.5729 17.6105 56.7377 17.5745 57.0289 17.5369L57.3953 17.4897L57.2985 17.1329C57.2721 17.0353 57.2393 16.9033 57.2185 16.7785C57.2097 16.7249 57.2025 16.6721 57.2001 16.6257C57.2001 16.6097 57.1953 16.5953 57.1985 16.5857C57.2137 16.5353 57.2769 16.4609 57.5113 16.3881C57.7585 16.3113 58.0313 16.2753 58.2025 16.2161C58.3057 16.1809 58.4129 16.1449 58.5129 16.1057C58.6169 16.0641 58.7345 16.0097 58.8361 15.9345C59.0681 15.7625 59.1809 15.4889 59.0417 15.1777C59.1057 15.1841 59.1937 15.1977 59.3113 15.2177C59.5313 15.2561 59.7697 15.3249 59.9649 15.4033C60.0537 15.4393 60.1337 15.4769 60.1953 15.5145C60.2081 15.5225 60.2185 15.5289 60.2273 15.5353C60.2241 15.5609 60.2177 15.5953 60.2073 15.6265C60.1801 15.7113 59.8497 16.3137 59.8497 16.3137C59.8497 16.3137 60.5113 16.2513 60.5953 16.2505C60.6817 16.2505 60.7977 16.2537 60.9161 16.2729C61.0857 16.3009 61.2457 16.3353 61.3865 16.3577C61.5257 16.3801 61.7017 16.4017 61.8593 16.3665C62.0569 16.3225 62.2265 16.1873 62.2785 15.9481C62.3041 15.8297 62.2961 15.6985 62.2689 15.5601C62.3961 15.5849 62.5593 15.6369 62.7289 15.7185C63.2697 15.9769 63.4729 16.2969 63.3921 16.5185C63.3281 16.6953 63.0841 16.8689 63.0737 16.8753L62.6953 17.1289C62.6953 17.1289 63.0809 17.4161 63.0905 17.4241C63.1081 17.4385 63.1337 17.4601 63.1633 17.4897C63.2257 17.5521 63.3081 17.6505 63.3817 17.7881C63.6105 18.2185 64.0953 18.0673 64.2913 17.9553C64.4953 17.8385 64.7185 17.6137 64.7793 17.3193C65.0337 17.5865 65.2753 18.0265 65.3049 18.3481C65.3313 18.6289 65.2601 18.9497 65.1297 19.0497C65.0841 19.0841 64.8353 19.1241 64.7945 19.1281L64.3313 19.1801C64.3313 19.1801 64.5753 19.6545 64.5985 19.7361C64.6273 19.8377 64.6577 19.9977 64.6497 20.2121C64.6289 20.7569 65.1457 20.8481 65.4217 20.8033C65.6353 20.7681 65.8729 20.6561 66.0513 20.4697C66.0721 20.5097 66.0929 20.5561 66.1145 20.6081C66.2601 20.9641 66.3393 21.4321 66.2409 21.7697C66.1841 21.9657 65.9033 22.2321 65.8121 22.2521C65.7881 22.2577 65.7513 22.2601 65.6969 22.2577C65.6377 22.2553 65.5793 22.2473 65.5281 22.2417C65.4465 22.2321 65.3761 22.2265 65.3273 22.2289C65.0321 22.2465 64.9497 22.4217 64.9745 22.6265C64.9849 22.7113 64.9889 22.7705 64.9881 22.8369C64.9873 22.9121 64.9801 22.9961 64.9713 23.1257C64.8977 24.1217 65.7393 24.1217 66.2881 23.8265C66.3121 23.9641 66.3257 24.1433 66.3185 24.3377C66.3089 24.6097 66.2601 24.8769 66.1713 25.0737C66.0825 25.2713 65.9801 25.3465 65.8825 25.3633C65.6529 25.4017 65.5569 25.3585 65.5273 25.3441C65.0985 25.1273 64.9849 25.2761 64.9329 25.5273C64.9241 25.5697 64.9177 25.6105 64.9017 25.6633C64.8857 25.7161 64.8609 25.7817 64.8169 25.8745C64.5785 26.3793 64.7993 26.7681 65.2409 26.8553C65.4489 26.8961 65.6913 26.8697 65.9065 26.8057C65.9041 26.9369 65.8825 27.1049 65.8353 27.2793C65.6945 27.7969 65.4201 28.1089 65.0577 28.0777C65.0537 28.0777 65.0401 28.0753 65.0113 28.0609C64.9713 28.0401 64.9337 28.0137 64.8969 27.9881C64.8369 27.9465 64.7777 27.9073 64.7185 27.8769C64.6465 27.8401 64.5465 27.8017 64.4273 27.8017C64.3185 27.8017 64.1361 27.8641 64.0569 28.1137C64.0289 28.2017 64.0129 28.3073 64.0033 28.4129C63.9841 28.6233 63.9881 28.9041 64.0257 29.1849C64.0625 29.4577 64.1353 29.7569 64.2697 29.9977C64.4041 30.2393 64.6393 30.4809 65.0033 30.4809C65.0361 30.4809 65.0633 30.4825 65.0865 30.4841L65.0929 30.4881ZM20.9481 15.1897C20.8161 15.4969 20.9297 15.7657 21.1585 15.9361C21.2601 16.0113 21.3777 16.0657 21.4817 16.1073C21.5817 16.1473 21.6889 16.1825 21.7921 16.2177C21.9641 16.2769 22.2369 16.3129 22.4833 16.3897C22.7177 16.4625 22.7809 16.5369 22.7961 16.5873C22.7993 16.5977 22.7961 16.6113 22.7945 16.6273C22.7921 16.6737 22.7857 16.7257 22.7761 16.7801C22.7553 16.9049 22.7225 17.0361 22.6961 17.1345L22.5993 17.4913L22.9657 17.5385C23.2577 17.5761 23.4217 17.6121 23.4505 17.6233C23.5145 17.6481 23.5729 17.6865 23.6329 17.7377C23.6657 17.7657 23.6961 17.7953 23.7249 17.8249C23.7585 17.8593 23.7913 17.8945 23.8233 17.9281C23.8889 17.9977 23.9713 18.0857 24.0673 18.1585C24.1681 18.2345 24.2937 18.3033 24.4513 18.3281C24.5825 18.3489 25.1297 18.3897 25.2881 18.4081C25.5089 18.4337 25.7513 18.4865 26.0009 18.5553L26.2745 18.6305L26.3833 18.3681C26.7241 17.5489 27.1233 17.2193 27.4009 17.1001C27.5417 17.0401 27.6553 17.0313 27.7257 17.0401C27.7617 17.0441 27.7817 17.0521 27.7881 17.0553C27.7793 17.0409 27.7697 17.0217 27.7481 17.0105L28.2905 17.0217C28.3401 16.9473 28.6337 16.8113 29.0505 16.8017C29.2369 16.7977 29.3937 16.8217 29.4945 16.8617C29.5441 16.8809 29.5665 16.8993 29.5737 16.9065C30.7233 16.8345 31.2705 17.4113 31.0305 17.9065C30.9601 18.0521 30.8817 18.1609 30.8049 18.2497C30.7649 18.2961 30.7249 18.3361 30.6857 18.3737C30.6425 18.4153 30.6009 18.4521 30.5617 18.4881C30.5153 18.5297 30.4721 18.5697 30.4329 18.6097C30.3897 18.6537 30.3457 18.7041 30.3057 18.7625C30.2209 18.8873 30.1673 19.0345 30.1673 19.2129V19.4393L30.3801 19.5161C31.2417 19.8265 31.3937 20.3977 30.7193 20.8569C30.4729 21.0249 30.2577 21.1873 30.0609 21.3305C29.8665 21.4713 29.7073 21.5801 29.5593 21.6553C29.2921 21.7913 29.0729 21.8185 28.7593 21.6585L28.5657 21.5601L28.4017 21.7025C27.6185 22.3833 27.2457 23.1673 27.0601 24.0009L26.9129 24.6633L27.5193 24.3585C27.6577 24.2889 27.7929 24.2241 27.9249 24.1665C32.7017 22.0769 32.4761 23.7673 32.3529 24.3249L32.3033 24.5505L32.5009 24.6705C32.7097 24.7969 32.9257 25.2377 32.9073 25.6977C32.8905 26.1137 32.7017 26.3897 32.2481 26.3897H31.9545L31.9265 26.6817C31.8825 27.1457 31.0145 27.5001 30.2209 26.9521L30.0801 26.8545L29.9201 26.9169C29.4809 27.0889 28.9641 27.2449 28.5569 27.2393L28.4169 27.2377L28.3201 27.3385C27.9873 27.6849 27.6537 28.1937 27.3169 28.7457C26.9801 29.2977 26.6241 29.9225 26.2409 30.5305C25.4649 31.7609 24.6417 32.8097 23.7193 33.1329L23.5913 33.1777L23.5337 33.3009C23.2321 33.9457 22.8041 34.4337 22.4009 34.7401C21.5049 35.4225 19.6961 37.2225 19.6961 39.0241V39.3465H20.0185C22.5081 39.3465 22.7577 40.8745 22.7577 41.7633C22.7577 42.8697 21.9641 43.6249 21.0513 44.2185C20.5921 44.5169 20.1321 44.7569 19.7873 44.9641C19.6113 45.0697 19.4441 45.1785 19.3185 45.2913C19.2057 45.3921 19.0521 45.5609 19.0521 45.7913C19.0521 46.7993 22.0929 48.7065 22.7353 48.7065C23.6785 48.7065 24.1313 49.2585 24.2761 49.4433C24.9305 50.2801 24.8217 51.8225 23.5633 51.8225H23.4425L23.3137 51.9369C23.2961 51.9521 23.2697 51.9737 23.2337 51.9977C23.1577 52.0489 23.0345 52.1169 22.8601 52.1689C22.5161 52.2713 21.9433 52.3185 21.0969 52.0041L20.9449 51.9473L20.8089 52.0361C20.3945 52.3065 19.3689 52.2265 19.1129 51.7961L18.9689 51.5545L18.7105 51.6641C18.2889 51.8425 17.7137 51.9097 17.3209 51.9241C17.2121 51.9233 17.1585 51.8969 17.0665 51.7409C16.9377 51.5225 16.8233 51.2025 16.6201 50.7969C16.1817 49.9217 15.3737 48.7017 13.3745 47.2665C12.5897 46.7025 12.5521 46.4545 12.6073 46.2625C12.6489 46.1185 12.7609 45.9385 12.9745 45.6761C13.1889 45.4129 13.4697 45.1089 13.7929 44.7353C14.6113 43.7897 14.6889 42.8433 14.4433 42.0353L14.4161 41.9465L14.3457 41.8857C14.2025 41.7617 14.0705 41.6449 13.9617 41.5369C13.8889 41.4641 13.8201 41.3889 13.7561 41.3129L13.6369 41.1713L13.4545 41.2025C12.3657 41.3889 11.3369 41.2449 10.8793 41.0993C8.01934 40.1929 7.22894 37.0777 8.40254 34.5465C8.61694 34.0849 8.89774 33.6065 9.16494 33.1753C9.44014 32.7329 9.70254 32.3393 9.87054 32.0617C10.3641 31.2481 10.6985 30.3361 10.6481 28.9921C10.6313 28.5537 10.5705 28.1089 10.4497 27.6801L10.3833 27.4457H10.1393C9.32014 27.4457 9.06894 27.0633 8.87214 26.5481C8.75774 26.2489 8.67374 25.9329 8.55134 25.6545C8.41774 25.3513 8.22094 25.0409 7.86574 24.8513C7.79454 24.8137 7.77774 24.7753 7.77454 24.7633C7.77054 24.7505 7.77214 24.7385 7.78094 24.7241C8.08734 24.2649 9.13774 23.8033 9.56014 23.8033C10.4161 23.8033 11.0073 23.8697 11.5585 24.4217C12.0809 24.9441 12.2105 25.5161 12.2105 26.0409C12.2105 26.5129 12.0185 26.9249 11.6561 27.1681L11.4761 27.2897L11.5209 27.5025C11.7953 28.8017 11.9961 30.8593 10.7953 32.6729C9.88494 34.0481 8.54574 36.0801 9.23294 37.9593C9.68494 39.1945 10.9481 40.0545 12.7601 39.8841L13.0673 39.8553L13.0521 39.5473C12.9993 38.4721 13.5049 37.2753 14.4601 36.1745C15.4017 35.0889 16.3313 32.9929 16.4729 31.4281L16.5057 31.0665L16.1425 31.0769C15.7113 31.0897 15.2177 30.8321 14.9673 30.5705C14.9377 30.5393 14.9145 30.5113 14.8961 30.4865C14.9185 30.4865 14.9473 30.4865 14.9841 30.4865C15.3481 30.4865 15.5825 30.2449 15.7177 30.0033C15.8521 29.7625 15.9249 29.4633 15.9617 29.1905C16.0001 28.9097 16.0033 28.6289 15.9841 28.4185C15.9745 28.3129 15.9585 28.2073 15.9305 28.1193C15.8513 27.8697 15.6689 27.8073 15.5601 27.8073C15.4409 27.8073 15.3409 27.8457 15.2689 27.8825C15.2097 27.9129 15.1505 27.9521 15.0905 27.9937C15.0537 28.0193 15.0161 28.0457 14.9761 28.0665C14.9473 28.0809 14.9337 28.0833 14.9297 28.0833C14.5665 28.1145 14.2929 27.8025 14.1521 27.2849C14.1049 27.1105 14.0833 26.9425 14.0809 26.8113C14.2961 26.8753 14.5385 26.9025 14.7465 26.8609C15.1889 26.7737 15.4089 26.3841 15.1705 25.8801C15.1265 25.7873 15.1009 25.7217 15.0857 25.6689C15.0697 25.6153 15.0633 25.5753 15.0545 25.5329C15.0025 25.2817 14.8889 25.1329 14.4601 25.3497C14.4305 25.3649 14.3345 25.4081 14.1049 25.3689C14.0073 25.3521 13.9049 25.2777 13.8161 25.0793C13.7273 24.8817 13.6785 24.6153 13.6689 24.3433C13.6617 24.1481 13.6753 23.9697 13.6993 23.8321C14.2481 24.1273 15.0897 24.1281 15.0161 23.1313C15.0065 23.0017 15.0001 22.9177 14.9993 22.8425C14.9985 22.7761 15.0025 22.7169 15.0129 22.6321C15.0385 22.4273 14.9553 22.2521 14.6601 22.2345C14.6113 22.2313 14.5409 22.2369 14.4593 22.2473C14.4081 22.2537 14.3497 22.2609 14.2905 22.2633C14.2369 22.2657 14.1993 22.2633 14.1753 22.2577C14.0841 22.2377 13.8033 21.9713 13.7465 21.7753C13.6481 21.4377 13.7273 20.9697 13.8729 20.6137C13.8945 20.5617 13.9153 20.5153 13.9361 20.4753C14.1153 20.6617 14.3521 20.7737 14.5657 20.8089C14.8417 20.8545 15.3585 20.7633 15.3377 20.2177C15.3297 20.0025 15.3593 19.8425 15.3889 19.7417C15.4121 19.6593 15.6561 19.1857 15.6561 19.1857L15.1929 19.1337C15.1521 19.1289 14.9033 19.0897 14.8577 19.0553C14.7273 18.9553 14.6561 18.6345 14.6825 18.3537C14.7129 18.0321 14.9545 17.5921 15.2009 17.3329C15.2689 17.6185 15.4929 17.8441 15.6961 17.9609C15.8921 18.0729 16.3769 18.2241 16.6057 17.7937C16.6793 17.6561 16.7617 17.5577 16.8241 17.4953C16.8537 17.4657 16.8793 17.4441 16.8969 17.4297C16.9041 16.8745 16.6601 16.7009 16.5953 16.5241C16.5145 16.3025 16.7177 15.9825 17.2585 15.7241C17.4289 15.6425 17.5921 15.5905 17.7185 15.5657C17.6913 15.7041 17.6841 15.8353 17.7089 15.9537C17.7601 16.1929 17.9305 16.3281 18.1281 16.3721C18.2857 16.4073 18.4617 16.3857 18.6009 16.3633C18.7417 16.3409 18.9017 16.3065 19.0713 16.2785C19.1897 16.2593 19.3057 16.2553 19.3921 16.2561C19.4761 16.2561 20.1377 16.3193 20.1377 16.3193C20.1377 16.3193 19.8073 15.7169 19.7801 15.6321C19.7657 15.5881 19.7593 15.5529 19.7577 15.5281C19.7673 15.5201 19.7641 15.5361 19.7921 15.5201C19.8545 15.4825 19.9337 15.4449 20.0225 15.4089C20.2177 15.3305 20.4569 15.2609 20.6761 15.2233C20.7841 15.2049 20.8721 15.1961 20.9409 15.1937L20.9481 15.1897Z" fill="#FF0000"/>
<path d="M9.14859 26.4428C9.37819 27.034 9.52619 27.218 10.6126 27.1756C10.8158 27.7876 10.9262 28.5228 10.943 28.9796C10.9958 30.3876 10.643 31.3548 10.123 32.21C9.95419 32.4884 9.69099 32.8828 9.41579 33.326C9.15419 33.7468 8.87899 34.2148 8.67019 34.666C7.54699 37.0892 8.32699 39.982 10.9718 40.8204C11.363 40.9444 12.227 41.0692 13.167 40.95C13.0286 40.6964 12.9278 40.4332 12.863 40.162C10.911 40.3676 9.48059 39.4636 8.96539 38.0556C8.58219 37.0084 8.78059 35.946 9.15019 35.0172C9.51899 34.09 10.0918 33.2148 10.5582 32.51C11.6926 30.7964 11.551 28.7924 11.159 27.082C11.5366 26.8812 11.9262 26.7268 11.9254 26.038C11.9254 25.5492 11.8214 25.0588 11.3726 24.6372C10.3582 23.686 8.75979 24.2916 8.20059 24.7148C8.51579 24.9452 8.69899 25.2572 8.82139 25.5348C8.94539 25.8172 9.03259 26.138 9.14779 26.442L9.14859 26.4428ZM22.3062 32.5668C22.4958 32.7596 22.7654 32.878 23.143 32.878C23.9694 32.878 24.8006 32.0756 25.7038 30.7116C26.1366 30.0588 26.5342 29.362 26.907 28.7412C27.2798 28.122 27.6686 27.506 28.067 27.0908L28.2702 26.8788C28.999 26.9684 30.1286 26.4532 30.1286 26.4532L30.4246 26.658C30.6782 26.8332 31.023 26.8876 31.291 26.846C31.507 26.8124 31.5862 26.6876 31.6078 26.5308C31.6534 26.1892 31.3518 25.9324 31.1662 25.8348C30.7782 25.6492 31.0566 25.0676 31.4446 25.2532C31.4446 25.2532 31.8926 25.4364 32.1886 26.0332C32.5102 26.0636 32.5406 25.8908 32.5606 25.69C32.5998 25.3036 32.3678 24.6228 31.3366 24.6157C30.9078 24.6468 30.8614 24.0036 31.2902 23.9724C31.2902 23.9724 31.7422 23.9468 32.0382 24.0796C32.091 23.774 31.9766 23.63 31.8502 23.5812C31.479 23.438 30.4646 23.4316 28.0686 24.4892C27.5286 24.7276 26.3894 25.4172 25.3022 25.8332C25.5422 26.1196 25.9214 26.2836 26.279 25.9876C26.8622 25.5068 26.7446 27.9716 25.8406 28.1028C25.5014 28.1524 25.2398 27.9452 25.2398 27.9452C25.2398 27.9452 25.195 28.2524 25.1102 28.4156C24.9086 28.8052 24.9918 29.2732 25.623 29.238C25.6318 29.998 24.9526 31.062 23.8526 30.6588C23.0774 30.3748 23.3966 29.198 22.5262 29.3396C22.5014 29.3436 22.411 29.7684 22.4542 30.3036C22.583 31.9052 23.2206 31.5404 23.2558 31.7196C23.3334 32.1116 22.871 32.466 22.3046 32.5644L22.3062 32.5668ZM22.9942 33.5516C22.1326 33.5068 21.667 33.0692 21.4326 32.4964C20.9758 32.3252 20.5942 31.9148 20.5182 31.1476C20.447 30.43 20.863 29.4996 20.1302 29.4996C20.0102 29.4996 19.8734 30.0572 19.8142 30.3308C19.4422 32.0476 20.2702 31.6004 19.9582 31.9644C19.4262 32.5844 17.5998 32.45 17.8014 30.6548C17.859 30.142 18.3622 29.1684 17.8374 29.1684C17.4638 29.1684 17.511 30.5628 16.851 31.1372C16.807 32.9564 15.6422 35.35 14.7334 36.398C13.1838 38.1852 12.9758 40.0348 14.2174 41.2756C14.4006 41.4588 14.6518 41.6644 14.907 41.8892C15.179 42.1284 15.4902 42.4156 15.7438 42.734C16.2662 43.39 16.6606 44.3868 15.767 45.3548C15.5518 45.5876 15.3654 45.8084 15.1942 45.9948C14.7918 46.4348 15.0662 46.594 15.4174 46.8388C16.8854 47.8644 17.7518 48.7804 18.3286 49.5988C18.6134 50.0028 18.8206 50.3748 18.9942 50.7196C19.1534 51.0372 19.2814 51.3284 19.4182 51.5972C19.5078 51.774 20.283 52.0508 20.831 51.5996C20.8438 51.2396 20.6966 50.8293 20.4838 50.522C20.227 50.1508 20.7838 49.766 21.0406 50.1372C21.331 50.5564 21.5702 51.2268 21.5006 51.7548C22.1206 51.97 22.6198 51.9492 23.047 51.7004C23.1094 51.066 22.9374 50.6084 22.7246 50.3284C22.4518 49.9692 22.9902 49.5596 23.2638 49.9188C23.5686 50.3196 23.7542 50.9132 23.7446 51.4452C24.1134 51.4068 24.2478 51.1644 24.291 50.8836C24.359 50.438 24.1966 49.902 24.0014 49.6524C23.8798 49.4972 23.5182 49.0517 22.7398 49.0517C22.0158 49.0517 18.7014 47.0844 18.7014 45.782C18.7014 45.3892 18.9606 45.13 19.0854 45.0172C19.2382 44.8804 19.4302 44.7572 19.6086 44.65C19.9502 44.4452 20.4062 44.2076 20.8622 43.9116C21.7598 43.3284 22.407 42.6652 22.407 41.754C22.407 40.9596 22.1678 39.8676 20.5462 39.7204C20.1982 39.6892 19.0158 39.5732 18.2622 39.958C17.8598 40.1628 17.503 39.666 17.871 39.4052C17.871 39.4052 18.291 39.0996 19.3454 38.9972C19.3574 37.0148 21.2966 35.1292 22.1902 34.4484C22.4606 34.242 22.7502 33.9404 22.9942 33.55V33.5516ZM14.891 42.7636C14.9086 43.4572 14.6782 44.206 14.0398 44.9436C13.719 45.3148 13.4374 45.6132 13.227 45.8772C12.8406 46.362 12.8126 46.4556 13.5646 47.0028C15.5974 48.4796 16.4494 49.7284 16.9102 50.65C17.2158 51.262 17.2934 51.6116 17.4198 51.6004C17.6582 51.5796 17.9078 51.5556 18.2102 51.4836C18.3638 51.4468 18.4902 51.4052 18.591 51.3628C18.1126 50.3556 17.439 49.0668 15.0686 47.4004C13.767 46.486 14.4022 45.8868 15.3102 44.9028C16.0166 44.138 15.5358 43.3972 14.8894 42.7628L14.891 42.7636ZM25.7118 22.7844H23.607V21.1484C23.607 21.1484 25.2694 21.1556 25.7702 21.0956C25.895 21.0805 26.0918 21.074 26.3318 21.114C26.3638 21.1196 26.447 21.1036 26.4494 21.0524C26.4974 20.7628 26.4782 20.1084 26.4782 20.1084C26.4782 20.1084 26.8542 19.7436 26.8542 19.106C26.2902 18.8948 25.711 18.7156 25.2598 18.6628C25.0998 18.6444 24.5462 18.602 24.4134 18.5812C24.203 18.5484 24.0406 18.4692 23.9166 18.3748C23.8206 18.302 23.5166 17.8964 23.3582 17.862C22.1534 17.5964 20.7894 17.7228 20.4734 17.7932C20.059 17.886 19.951 18.2716 19.951 18.2716C19.723 18.2716 19.2238 18.2676 19.0142 18.3116C18.7702 18.3628 18.679 18.3788 18.6718 18.546C18.6606 18.8372 19.387 19.2956 19.387 19.2956C19.387 19.2956 19.2318 20.158 18.9654 20.894C18.907 21.0556 18.9046 21.1892 19.0454 21.5148C19.2406 21.966 19.715 22.2132 20.3566 22.314C20.8262 22.3876 21.419 23.1308 21.7094 23.2476C21.8862 23.3188 23.0022 23.3084 23.4334 23.2916C24.2958 23.2572 25.1806 23.1916 25.4774 23.1244C25.5702 23.1036 25.6646 22.9004 25.7142 22.7836L25.7118 22.7844ZM23.9182 23.8492C22.8822 23.9068 21.723 23.9188 21.443 23.7668C20.8622 23.4516 20.5318 22.9404 20.2438 22.8844C19.575 22.7548 18.8286 22.4812 18.511 21.746C18.1318 20.8692 18.523 20.6964 18.7478 19.5372C17.9238 18.9028 17.9606 18.2964 18.375 17.9388C18.551 17.7868 19.1094 17.6964 19.6366 17.6964C19.7822 17.1084 21.2726 17.0716 22.3822 17.1548C22.4062 17.0684 22.435 16.9644 22.459 16.8844C22.5054 16.7292 22.5054 16.686 22.2638 16.6364C21.7454 16.5292 21.451 16.4468 21.0918 16.2388C20.779 16.058 20.5998 15.734 20.6606 15.5724C20.7286 15.3908 20.1822 15.5764 20.1294 15.6764C20.0398 15.846 20.507 16.5404 20.507 16.5404C20.507 16.5404 19.8622 16.4884 19.467 16.5092C18.9038 16.5388 18.5638 16.6852 18.1654 16.6412C17.6894 16.5892 17.4254 16.2148 17.4598 15.9428C17.4806 15.7772 16.8398 16.2316 16.859 16.422C16.8742 16.57 17.0854 16.8276 17.6102 17.1692C16.6966 17.702 16.9254 18.3492 16.139 18.3796C15.907 18.3884 15.291 18.2108 15.2246 17.8764C15.1846 17.6756 14.7558 18.426 15.011 18.8036C15.1446 19.0012 15.2878 18.9812 15.9414 19.0236C15.6782 19.542 15.6358 19.7884 15.6358 20.2244C15.6358 20.6604 15.5006 20.7996 15.1814 20.9988C14.9518 21.142 14.4278 21.2308 14.0942 20.8996C14.0022 20.8076 13.9142 21.49 13.995 21.6957C14.0734 21.8948 14.1878 22.0036 14.5126 21.994C15.0038 21.9796 15.2814 21.8804 15.2742 21.9724C15.2542 22.2372 15.239 22.6548 15.2886 23.3652C15.343 24.1372 14.507 24.486 13.935 24.1844C13.7886 24.1076 13.9246 25.0868 14.1942 25.1132C14.699 25.1628 15.1678 24.7012 15.1886 24.8364C15.3134 25.6292 15.4886 25.7124 15.5366 26.094C15.6502 26.9892 14.7782 27.222 14.471 27.0884C14.2582 26.9964 14.535 27.962 14.9822 27.7844C15.1382 27.722 15.3518 27.5284 15.5574 27.5284C15.8846 27.5284 16.0838 27.6428 16.2182 28.0684C16.2862 28.2844 16.323 28.7524 16.251 29.2308C16.2054 29.5324 16.1438 29.8308 15.9846 30.1164C15.891 30.2836 15.7158 30.4708 15.5534 30.5116C15.2518 30.5884 16.0422 30.9468 16.4318 30.7188C16.7462 30.5348 16.9798 29.3412 17.0454 29.1772C17.2366 28.7004 17.563 28.5572 17.8358 28.5572C18.2366 28.5572 18.5542 28.7972 18.6526 29.1756C18.7182 29.4284 18.6686 29.6932 18.6342 29.8508C18.5982 30.0164 18.4286 30.6252 18.4086 30.7236C18.1894 31.778 19.3478 31.8172 19.2246 31.6852C19.0462 31.4948 19.071 30.866 19.215 30.2012C19.2478 30.0484 19.3766 29.5092 19.4998 29.2996C19.6894 28.9772 19.9558 28.8876 20.1294 28.8876C21.0398 28.8876 21.179 29.6148 21.1742 30.0308C21.1726 30.2068 21.1262 30.9444 21.1262 31.0876C21.1262 32.3308 22.703 32.0117 22.435 31.8909C22.127 31.7524 21.935 31.2636 21.8446 30.3556C21.7694 29.6028 21.9686 28.8532 22.0294 28.8348C22.663 28.642 23.3078 28.6244 23.6982 29.4036C23.7966 29.5996 23.8838 29.9412 24.0086 30.0452C24.267 30.2596 24.7934 30.038 24.9142 29.694C24.3414 29.4788 24.3166 28.6508 24.587 28.1004C24.7102 27.85 24.8158 27.5052 24.8926 27.1188C24.983 27.2188 25.523 27.6244 25.7942 27.5348C25.9966 27.4684 26.2086 26.602 25.9966 26.7204C25.5422 26.9748 24.9942 26.4012 24.7894 26.1324C24.679 25.9876 24.4486 25.678 24.4158 25.1036C24.3926 24.7028 24.3558 24.2028 23.9174 23.8476L23.9182 23.8492ZM26.6542 24.4476C26.8054 23.3884 27.1742 22.342 28.1926 21.4572L28.5206 21.1724L28.9078 21.3692C29.1174 21.4756 29.227 21.462 29.4158 21.366C29.5398 21.3028 29.6806 21.2076 29.8742 21.0676C30.0734 20.9228 30.2998 20.7548 30.5494 20.5868C31.0374 20.2588 30.8414 20.0108 30.3126 19.83L29.847 19.6556V19.2852C29.847 18.702 30.115 18.4524 30.3494 18.2436C30.3926 18.2052 30.8422 17.842 30.7766 17.5972C30.6966 17.298 30.079 17.398 30.079 17.398C29.8006 17.4748 29.5806 17.8884 29.4966 18.09C29.3238 18.5068 28.6982 18.2476 28.871 17.8308C28.871 17.8308 29.0422 17.4356 29.287 17.1716C29.2726 17.0292 28.715 17.0756 28.543 17.2028C28.3918 17.3956 28.2702 17.6932 28.2358 17.8668C28.155 18.3108 27.4886 18.1892 27.5702 17.7452C27.5702 17.7452 27.611 17.5476 27.7062 17.338C27.3982 17.3204 27.0118 17.714 26.7014 18.434C26.9374 18.5156 27.171 18.6036 27.391 18.6916C27.5022 19.278 27.391 19.8804 27.0566 20.3076C27.0566 20.93 27.0958 21.8165 26.4046 21.7109C26.255 21.6884 25.9918 21.6516 25.8382 21.67C25.3166 21.7324 24.5518 21.7196 24.1862 21.7228V22.2036H26.3078C26.5382 22.43 26.1702 23.594 25.5734 23.6988C25.4118 23.7276 25.0886 23.7628 24.6894 23.7956C24.983 24.2716 25.0118 24.8636 25.0462 25.2028C25.6374 24.9788 26.1662 24.706 26.6542 24.4468V24.4476ZM53.3454 24.4476C53.8334 24.706 54.3622 24.9796 54.9534 25.2036C54.9878 24.8644 55.0166 24.2724 55.3102 23.7964C54.911 23.7636 54.587 23.7284 54.4262 23.6996C53.8294 23.5948 53.4614 22.4308 53.6918 22.2044H55.8134V21.7236C55.447 21.7212 54.683 21.7333 54.1614 21.6709C54.0086 21.6525 53.7446 21.6892 53.595 21.7116C52.9038 21.8164 52.943 20.93 52.943 20.3084C52.6078 19.8812 52.4982 19.2788 52.6086 18.6924C52.8286 18.6044 53.0622 18.5164 53.2982 18.4348C52.987 17.714 52.6014 17.3212 52.2934 17.3388C52.3894 17.5484 52.4294 17.746 52.4294 17.746C52.5102 18.19 51.8446 18.3116 51.7638 17.8676C51.7294 17.694 51.6078 17.3964 51.4566 17.2036C51.2846 17.0764 50.727 17.0308 50.7126 17.1724C50.9574 17.4364 51.1286 17.8316 51.1286 17.8316C51.3014 18.2484 50.6758 18.5076 50.503 18.0908C50.419 17.8892 50.199 17.4756 49.9206 17.3988C49.9206 17.3988 49.303 17.2988 49.223 17.598C49.1574 17.8428 49.607 18.206 49.6502 18.2444C49.8846 18.4524 50.1526 18.702 50.1526 19.286V19.6564L49.687 19.8308C49.1582 20.0108 48.9622 20.2588 49.4502 20.5876C49.7006 20.7556 49.9262 20.9236 50.1254 21.0684C50.319 21.2092 50.4606 21.3044 50.5838 21.3668C50.7726 21.4628 50.8822 21.4764 51.0918 21.37L51.479 21.1733L51.807 21.458C52.8254 22.3428 53.1942 23.3892 53.3454 24.4484V24.4476ZM56.0814 23.8492C55.643 24.2052 55.6062 24.7044 55.5822 25.1052C55.5486 25.6788 55.319 25.9892 55.2086 26.134C55.0038 26.4028 54.4566 26.9764 54.0014 26.722C53.7902 26.6036 54.0014 27.4692 54.2038 27.5364C54.475 27.626 55.015 27.2204 55.1054 27.1204C55.1822 27.506 55.2878 27.8508 55.411 28.102C55.6814 28.6524 55.6558 29.4796 55.0838 29.6956C55.2054 30.0396 55.731 30.2612 55.9894 30.0468C56.1142 29.9428 56.2014 29.6012 56.2998 29.4052C56.6902 28.626 57.3358 28.6436 57.9686 28.8364C58.0294 28.8548 58.2286 29.6044 58.1534 30.3572C58.0622 31.2652 57.8702 31.7532 57.563 31.8924C57.295 32.0132 58.8718 32.3324 58.8718 31.0892C58.8718 30.9468 58.8262 30.2092 58.8238 30.0324C58.819 29.6156 58.959 28.8892 59.8686 28.8892C60.043 28.8892 60.3094 28.9788 60.4982 29.3012C60.6214 29.5108 60.7502 30.05 60.783 30.2028C60.927 30.8676 60.9518 31.4956 60.7734 31.6868C60.6502 31.8188 61.8086 31.7796 61.5894 30.7252C61.5686 30.6268 61.3998 30.0188 61.3638 29.8524C61.3294 29.6948 61.2798 29.43 61.3454 29.1772C61.4438 28.7988 61.7614 28.5588 62.1622 28.5588C62.435 28.5588 62.7614 28.702 62.9526 29.1788C63.0182 29.3428 63.2518 30.5364 63.5662 30.7204C63.9558 30.9484 64.7462 30.59 64.4446 30.5132C64.2822 30.4716 64.107 30.2852 64.0134 30.118C63.8542 29.8324 63.7918 29.534 63.747 29.2324C63.675 28.7548 63.711 28.286 63.7798 28.07C63.9142 27.6444 64.1134 27.53 64.4406 27.53C64.647 27.53 64.8598 27.7236 65.0158 27.786C65.463 27.9636 65.7406 26.9972 65.527 27.09C65.2198 27.2236 64.3478 26.9908 64.4614 26.0956C64.5102 25.714 64.6846 25.6308 64.8094 24.838C64.831 24.7028 65.2998 25.1652 65.8038 25.1148C66.0742 25.0884 66.2094 24.1092 66.063 24.186C65.491 24.4876 64.655 24.1388 64.7094 23.3668C64.759 22.6564 64.7438 22.2388 64.7238 21.974C64.7166 21.882 64.9934 21.9812 65.4854 21.9956C65.8102 22.0052 65.9246 21.8956 66.003 21.6972C66.0838 21.4916 65.9958 20.81 65.9038 20.9012C65.571 21.2324 65.0462 21.1436 64.8166 21.0004C64.4966 20.8012 64.3622 20.6452 64.3622 20.226C64.3622 19.8068 64.3198 19.5436 64.0566 19.0252C64.7102 18.9828 64.8534 19.0028 64.987 18.8052C65.2422 18.4284 64.8134 17.6772 64.7734 17.878C64.707 18.2124 64.091 18.3908 63.859 18.3812C63.0726 18.3508 63.3006 17.7036 62.3878 17.1708C62.9126 16.8292 63.1246 16.5708 63.139 16.4236C63.1582 16.234 62.5174 15.7788 62.5382 15.9444C62.5726 16.2164 62.3086 16.5908 61.8326 16.6428C61.435 16.6868 61.095 16.5404 60.531 16.5108C60.1358 16.49 59.491 16.542 59.491 16.542C59.491 16.542 59.9582 15.8476 59.8686 15.678C59.8158 15.578 59.2694 15.3924 59.3374 15.574C59.3982 15.7356 59.2182 16.0596 58.9062 16.2404C58.547 16.4484 58.2526 16.5316 57.7342 16.638C57.4926 16.6876 57.4926 16.73 57.539 16.886C57.563 16.966 57.5918 17.07 57.6158 17.1564C58.7254 17.0732 60.2158 17.11 60.3614 17.698C60.8886 17.698 61.447 17.7884 61.623 17.9404C62.0374 18.2972 62.0742 18.9044 61.2502 19.5388C61.4758 20.6972 61.8662 20.8708 61.487 21.7476C61.1694 22.4828 60.423 22.7564 59.7542 22.886C59.4662 22.942 59.1358 23.4532 58.555 23.7684C58.275 23.9204 57.1158 23.9085 56.0798 23.8509L56.0814 23.8492ZM54.2878 22.7844C54.3374 22.9012 54.431 23.1044 54.5246 23.1252C54.8214 23.1924 55.7062 23.258 56.5686 23.2924C56.9998 23.3092 58.1158 23.3196 58.2926 23.2484C58.583 23.1316 59.1766 22.3892 59.6454 22.3148C60.2862 22.214 60.7606 21.9668 60.9566 21.5156C61.0974 21.1908 61.095 21.0564 61.0366 20.8948C60.7702 20.1588 60.615 19.2964 60.615 19.2964C60.615 19.2964 61.3414 18.838 61.3302 18.5468C61.3238 18.3796 61.2326 18.3636 60.9878 18.3124C60.7782 18.2684 60.2782 18.2724 60.051 18.2724C60.051 18.2724 59.943 17.8868 59.5286 17.794C59.2126 17.7228 57.8486 17.5972 56.6438 17.8628C56.4854 17.898 56.1814 18.3036 56.0854 18.3756C55.9614 18.47 55.7998 18.5492 55.5886 18.582C55.4558 18.6028 54.9022 18.6444 54.7422 18.6636C54.291 18.7164 53.7118 18.8956 53.1478 19.1068C53.1478 19.7444 53.5238 20.1092 53.5238 20.1092C53.5238 20.1092 53.5046 20.7636 53.5526 21.0532C53.555 21.1044 53.6374 21.1204 53.6702 21.1148C53.9102 21.0748 54.107 21.0812 54.2318 21.0964C54.7326 21.1564 56.395 21.1492 56.395 21.1492V22.7852H54.2902L54.2878 22.7844ZM65.1086 42.7636C64.463 43.398 63.9814 44.1388 64.6878 44.9036C65.5966 45.8876 66.231 46.486 64.9294 47.4012C62.559 49.0676 61.8854 50.3564 61.407 51.3636C61.507 51.406 61.6342 51.4476 61.7878 51.4844C62.0902 51.5564 62.3406 51.5797 62.5782 51.6012C62.7054 51.6124 62.7822 51.2621 63.0886 50.6508C63.5494 49.7284 64.4014 48.4796 66.4342 47.0036C67.1862 46.4572 67.1582 46.3636 66.7718 45.878C66.5622 45.614 66.2806 45.3156 65.959 44.9444C65.3206 44.2068 65.091 43.458 65.1078 42.7644L65.1086 42.7636ZM57.0054 33.5516C57.2502 33.942 57.539 34.2436 57.8094 34.45C58.703 35.13 60.6422 37.0156 60.6542 38.9988C61.7086 39.1012 62.1286 39.4068 62.1286 39.4068C62.4974 39.6676 62.1398 40.1644 61.7374 39.9596C60.9838 39.5756 59.8014 39.6908 59.4534 39.722C57.8318 39.8692 57.5926 40.9612 57.5926 41.7556C57.5926 42.6668 58.2398 43.33 59.1374 43.9132C59.5934 44.2092 60.0486 44.4468 60.391 44.6516C60.5694 44.7589 60.7614 44.882 60.9142 45.0188C61.0398 45.1316 61.2982 45.3908 61.2982 45.7836C61.2982 47.0852 57.9838 49.0532 57.2598 49.0532C56.4814 49.0532 56.1198 49.4988 55.9982 49.654C55.803 49.9036 55.6406 50.4396 55.7086 50.8853C55.7518 51.1668 55.8854 51.4085 56.255 51.4468C56.2454 50.9148 56.431 50.3212 56.7358 49.9204C57.0086 49.5612 57.5478 49.9708 57.275 50.33C57.0622 50.61 56.8902 51.0676 56.9526 51.702C57.3798 51.9509 57.879 51.9725 58.499 51.7565C58.4294 51.2285 58.6694 50.558 58.959 50.1388C59.2158 49.7676 59.7726 50.1532 59.5158 50.5236C59.303 50.8308 59.1558 51.2412 59.1686 51.6012C59.7166 52.0524 60.4918 51.7756 60.5814 51.5988C60.7174 51.3308 60.8454 51.0388 61.0054 50.7212C61.179 50.3764 61.3862 50.0036 61.671 49.6004C62.2478 48.782 63.115 47.866 64.5822 46.8404C64.9334 46.5948 65.207 46.4364 64.8046 45.9965C64.6342 45.81 64.447 45.5892 64.2318 45.3564C63.3382 44.3884 63.7326 43.3916 64.255 42.7356C64.5086 42.4172 64.8198 42.13 65.0918 41.8908C65.347 41.666 65.5982 41.4604 65.7814 41.2772C67.023 40.0356 66.815 38.1868 65.2654 36.3996C64.3566 35.3516 63.1918 32.9588 63.1478 31.1388C62.4878 30.5644 62.535 29.17 62.1614 29.17C61.6366 29.17 62.1398 30.1428 62.1974 30.6564C62.399 32.4524 60.5726 32.586 60.0406 31.966C59.7278 31.602 60.5566 32.0492 60.1846 30.3324C60.1254 30.0588 59.9878 29.5012 59.8686 29.5012C59.135 29.5012 59.551 30.4316 59.4806 31.1492C59.4046 31.9156 59.0222 32.3268 58.5662 32.498C58.3318 33.07 57.867 33.5084 57.0046 33.5532L57.0054 33.5516ZM57.6934 32.5668C57.127 32.4684 56.6646 32.114 56.7422 31.722C56.7774 31.5436 57.415 31.9084 57.5438 30.306C57.587 29.7708 57.4966 29.346 57.4718 29.342C56.6014 29.1996 56.9206 30.3764 56.1454 30.6612C55.0454 31.0644 54.3662 30.0004 54.375 29.2404C55.0062 29.2748 55.0894 28.8076 54.8878 28.418C54.803 28.2548 54.7582 27.9476 54.7582 27.9476C54.7582 27.9476 54.4966 28.1548 54.1574 28.1052C53.2542 27.9732 53.1366 25.5092 53.719 25.99C54.0774 26.2852 54.4558 26.122 54.6958 25.8356C53.6086 25.4196 52.4694 24.7292 51.9294 24.4916C49.5334 23.434 48.519 23.4404 48.1478 23.5836C48.0214 23.6324 47.9078 23.7764 47.9598 24.082C48.255 23.9492 48.7078 23.9748 48.7078 23.9748C49.1366 24.006 49.0902 24.6484 48.6614 24.618C47.631 24.6252 47.3982 25.306 47.4374 25.6924C47.4574 25.8932 47.4886 26.066 47.8094 26.0356C48.1054 25.4388 48.5534 25.2556 48.5534 25.2556C48.9414 25.07 49.219 25.6516 48.8318 25.8372C48.647 25.9348 48.3446 26.1916 48.3902 26.5332C48.411 26.69 48.491 26.8148 48.707 26.8484C48.975 26.89 49.3198 26.8356 49.5734 26.6604L49.8694 26.4556C49.8694 26.4556 50.999 26.9708 51.7278 26.8812L51.931 27.0932C52.3294 27.5084 52.719 28.1244 53.091 28.7436C53.4646 29.3636 53.8622 30.0604 54.2942 30.714C55.1974 32.078 56.0286 32.8804 56.855 32.8804C57.2326 32.8804 57.5022 32.762 57.6918 32.5692L57.6934 32.5668ZM70.851 26.4428C70.967 26.1396 71.0534 25.818 71.1774 25.5356C71.2998 25.2572 71.483 24.946 71.7982 24.7156C71.2382 24.2924 69.6398 23.6876 68.6262 24.6381C68.1766 25.0596 68.0726 25.55 68.0734 26.0388C68.0726 26.7276 68.4622 26.882 68.8398 27.0828C68.4478 28.7932 68.3062 30.7964 69.4406 32.5108C69.907 33.2156 70.4798 34.0908 70.8486 35.018C71.2182 35.9468 71.4166 37.0092 71.0334 38.0564C70.5182 39.4644 69.0878 40.3684 67.1358 40.1628C67.071 40.4332 66.971 40.6972 66.8318 40.9508C67.7718 41.07 68.6358 40.9452 69.027 40.8212C71.6718 39.9828 72.4518 37.09 71.3286 34.6668C71.119 34.2156 70.8446 33.7476 70.583 33.3268C70.307 32.8828 70.0446 32.4884 69.8758 32.2108C69.3566 31.3556 69.003 30.3876 69.0558 28.9804C69.0734 28.5236 69.183 27.7884 69.3862 27.1764C70.4734 27.2188 70.6214 27.0348 70.8502 26.4436L70.851 26.4428ZM39.9998 64.166C42.8974 64.166 45.2846 63.8492 47.3454 63.4036C49.4286 62.9524 51.1822 62.37 52.7942 61.8476C55.9678 60.8196 58.8238 59.9324 62.5694 60.8156C63.2382 60.982 63.2406 60.9788 63.3494 60.4836L64.863 53.6708C64.951 53.2668 64.951 53.2636 64.4494 53.1516C60.0134 52.1996 56.3558 52.8517 52.6318 53.8013C50.6694 54.302 48.7206 54.8741 46.6798 55.322C44.5846 55.7821 42.3942 56.1108 39.9998 56.1108C37.6054 56.1108 35.415 55.7821 33.3198 55.322C31.279 54.8741 29.3302 54.302 27.3678 53.8013C23.6438 52.8517 19.9862 52.1996 15.5502 53.1516C15.0486 53.2645 15.0486 53.2677 15.1366 53.6708L16.6502 60.4836C16.759 60.9788 16.7614 60.9812 17.4302 60.8156C21.1758 59.9324 24.0318 60.8196 27.2054 61.8476C28.8174 62.37 30.571 62.9524 32.6542 63.4036C34.7158 63.85 37.1022 64.166 39.9998 64.166ZM32.247 54.0796C27.4494 51.3708 24.211 46.2244 24.211 40.322C24.211 35.0484 26.7966 30.378 30.7702 27.5108C30.5134 27.4652 30.259 27.3668 30.0414 27.2164C29.5966 27.3908 29.0294 27.5668 28.5566 27.5612C27.3454 28.8228 25.9382 32.642 23.8814 33.418C23.5574 34.1196 23.091 34.6556 22.643 34.9964C21.747 35.6788 20.0654 37.3924 20.0654 39.0244C22.8126 39.0244 23.127 40.7892 23.127 41.7636C23.127 44.3308 19.4214 45.1204 19.4214 45.7916C19.4214 46.5324 22.2134 48.3844 22.783 48.3844C23.8758 48.3844 24.4118 49.0332 24.5774 49.2452C25.1462 49.9716 25.3662 51.7644 24.063 52.0932C26.8462 52.566 29.4806 53.4036 32.2478 54.0821L32.247 54.0796ZM55.7886 40.322C55.7886 46.2244 52.5502 51.37 47.7526 54.0796C50.5198 53.4012 53.1542 52.5636 55.9374 52.0908C54.6342 51.7621 54.855 49.97 55.423 49.2428C55.5886 49.0308 56.1246 48.382 57.2174 48.382C57.787 48.382 60.579 46.5308 60.579 45.7892C60.579 45.1188 56.8734 44.3284 56.8734 41.7612C56.8734 40.7868 57.187 39.022 59.935 39.022C59.935 37.3908 58.2526 35.6764 57.3574 34.994C56.9094 34.6532 56.4438 34.1172 56.119 33.4156C54.0622 32.6396 52.655 28.8212 51.4438 27.5588C50.971 27.5652 50.4038 27.3884 49.959 27.214C49.7406 27.3644 49.487 27.4628 49.2302 27.5084C53.203 30.3756 55.7894 35.046 55.7894 40.3196L55.7886 40.322ZM25.6734 40.322C25.6734 48.234 32.087 54.6484 39.9998 54.6484C47.9126 54.6484 54.3262 48.2348 54.3262 40.322C54.3262 32.4092 47.9126 25.9956 39.9998 25.9956C32.087 25.9956 25.6734 32.4092 25.6734 40.322ZM49.8854 21.6884L49.4862 22.942C50.1734 23.0804 51.0606 23.3708 52.2014 23.87C52.339 23.93 52.4798 23.9972 52.623 24.0692C52.4494 23.2892 52.1062 22.5708 51.3846 21.9436C50.8078 22.2372 50.4014 22.05 49.8854 21.6876V21.6884ZM30.5134 22.942L30.1142 21.6884C29.5982 22.05 29.1926 22.238 28.615 21.9444C27.8934 22.5716 27.5502 23.29 27.3766 24.07C27.5198 23.998 27.6606 23.9309 27.7982 23.8708C28.939 23.3716 29.8262 23.0812 30.5134 22.9428V22.942ZM48.7158 18.1204C46.0174 17.0604 43.0774 16.478 39.9998 16.478C36.9222 16.478 33.983 17.0604 31.2846 18.1204C30.9494 18.7436 30.4926 18.79 30.4926 19.2116C31.4054 19.5404 31.9302 20.394 30.9406 21.0964L31.4974 22.8436C32.7254 22.8836 32.819 23.7212 32.671 24.394C33.103 24.6556 33.3638 25.4924 33.1678 26.0852C35.2358 25.0908 37.5534 24.534 40.0006 24.534C42.4478 24.534 44.7662 25.0908 46.8334 26.0852C46.6374 25.4924 46.8982 24.6556 47.3302 24.394C47.1814 23.7212 47.275 22.8836 48.5038 22.8436L49.0606 21.0964C48.071 20.394 48.5958 19.5404 49.5086 19.2116C49.5086 18.79 49.0518 18.7444 48.7166 18.1204H48.7158ZM31.2398 17.1012C33.9638 16.0732 36.9158 15.5108 39.9998 15.5108C43.0838 15.5108 46.0366 16.0732 48.7598 17.1012C49.0734 16.7668 49.6918 16.6676 50.1062 16.8556C50.171 16.3076 51.6806 16.4012 51.975 16.8412C52.115 16.6132 53.187 16.4996 53.9126 18.2436C54.179 18.1708 54.4382 18.1148 54.6734 18.0876C54.8294 18.0692 55.3678 18.03 55.4974 18.0092C55.859 17.9524 56.0046 17.4892 56.431 17.3228C56.5038 17.2948 56.7094 17.2548 56.9918 17.218C56.9342 17.0052 56.8502 16.6452 56.8934 16.4964C57.023 16.0524 57.763 16.0292 58.1022 15.9124C58.4942 15.778 58.9614 15.642 58.7166 15.2436C58.2566 14.4932 60.3198 15.0372 60.5222 15.3732C60.6374 15.5636 60.4294 15.9372 60.4294 15.9372C60.4294 15.9372 60.6958 15.9108 60.9734 15.9564C61.6494 16.0676 62.1766 16.2836 61.903 15.4156C61.7246 14.8492 64.0702 15.6148 63.7006 16.6308C63.595 16.9204 63.259 17.1452 63.259 17.1452C63.259 17.1452 63.491 17.2988 63.6726 17.6396C63.8374 17.9492 64.479 17.5908 64.479 17.1676C64.479 16.3028 65.555 17.4892 65.6326 18.3212C65.6598 18.6124 65.6086 19.0964 65.3334 19.3084C65.1998 19.4108 64.8382 19.4516 64.8382 19.4516C64.8382 19.4516 64.9982 19.7252 64.979 20.2284C64.9622 20.6652 65.731 20.5412 65.9542 20.066C66.139 19.6716 66.8118 20.9916 66.5582 21.8636C66.4774 22.142 66.1246 22.5181 65.8902 22.5708C65.6382 22.6269 65.2902 22.4941 65.3022 22.5908C65.3278 22.7957 65.3206 22.8764 65.3006 23.1532C65.255 23.7724 65.871 23.858 66.343 23.4052C66.7022 23.0604 66.931 25.5188 65.9438 25.6852C65.3598 25.7836 65.2798 25.4836 65.2566 25.5964C65.2358 25.698 65.223 25.7908 65.1158 26.0164C64.8046 26.6748 65.6342 26.6348 66.055 26.406C66.4326 26.2012 66.2814 28.51 65.0382 28.4028C64.8022 28.3828 64.6334 28.1268 64.435 28.1268C64.2366 28.1268 64.2174 30.162 65.0102 30.162C66.167 30.162 64.8918 31.4628 63.7998 31.3956C63.935 32.8916 64.8366 34.926 65.7358 35.962C66.723 37.1004 67.2782 38.3732 67.2222 39.5572C68.9318 39.7332 70.0606 38.9356 70.459 37.846C71.0798 36.15 69.871 34.2692 68.9302 32.8484C67.6566 30.9244 67.8782 28.7572 68.1582 27.434C67.6918 27.1204 67.4614 26.5988 67.4614 26.0396C67.4614 25.454 67.5902 24.7708 68.2078 24.1924C69.751 22.7452 72.1054 23.9812 72.4814 24.5444C72.6054 24.73 72.551 24.9908 72.2798 25.1348C71.2246 25.6972 71.8574 27.7668 69.8542 27.7668C69.7414 28.1668 69.683 28.586 69.6678 29.0028C69.6198 30.2756 69.9334 31.126 70.399 31.8932C70.735 32.4468 71.4454 33.4628 71.8846 34.4092C73.1142 37.0604 72.3126 40.422 69.2126 41.4044C68.6998 41.5668 67.6014 41.7164 66.4486 41.5117C66.3774 41.5964 66.3006 41.6805 66.219 41.7621C66.1206 41.8605 66.0038 41.9652 65.8774 42.0756C65.6438 42.7948 65.687 43.6437 66.447 44.5221C67.7502 46.0277 68.3614 46.4124 66.8102 47.5261C63.8142 49.6772 63.5918 51.3004 63.1838 51.9428C63.8166 52.0348 64.4646 52.1572 65.1294 52.3148C65.4494 52.3908 66.1006 52.5684 65.8862 53.53L64.2006 61.1084C63.9494 62.2292 63.115 61.9556 62.7158 61.8492C55.4286 59.9204 51.9134 65.1332 40.0006 65.1332C28.0878 65.1332 24.5718 59.9204 17.2854 61.8492C16.8854 61.9548 16.051 62.2284 15.8006 61.1084L14.115 53.53C13.9006 52.5684 14.5526 52.3908 14.8718 52.3148C15.5366 52.1572 16.1846 52.0348 16.8174 51.9428C16.4086 51.3004 16.1862 49.6772 13.191 47.5261C11.6398 46.4124 12.251 46.0277 13.5542 44.5221C14.3142 43.6437 14.3574 42.7948 14.1238 42.0756C13.9974 41.9652 13.8806 41.8605 13.7822 41.7621C13.7006 41.6805 13.6238 41.5964 13.5526 41.5117C12.3998 41.7164 11.3006 41.5676 10.7886 41.4044C7.68939 40.422 6.88779 37.0604 8.11659 34.4092C8.55579 33.4628 9.26619 32.4468 9.60219 31.8932C10.0678 31.1268 10.3814 30.2756 10.3334 29.0028C10.3174 28.586 10.2598 28.1668 10.147 27.7668C8.14379 27.7668 8.77659 25.6972 7.72139 25.1348C7.45019 24.99 7.39659 24.7292 7.51979 24.5444C7.89579 23.9812 10.2502 22.7452 11.7934 24.1924C12.411 24.7716 12.5398 25.454 12.5398 26.0396C12.5398 26.5988 12.3094 27.1204 11.843 27.434C12.123 28.7572 12.3446 30.9244 11.071 32.8484C10.1302 34.2692 8.92219 36.1492 9.54219 37.846C9.94059 38.9348 11.0694 39.7324 12.779 39.5572C12.723 38.3732 13.2782 37.1004 14.2654 35.962C15.1638 34.926 16.0662 32.8916 16.2014 31.3956C15.1094 31.4636 13.8342 30.162 14.991 30.162C15.7838 30.162 15.7606 28.1268 15.5662 28.1268C15.3718 28.1268 15.199 28.382 14.963 28.4028C13.7198 28.5092 13.5686 26.2004 13.9462 26.406C14.3662 26.634 15.1958 26.674 14.8854 26.0164C14.779 25.7908 14.7654 25.698 14.7446 25.5964C14.7214 25.4836 14.6406 25.7836 14.0574 25.6852C13.0702 25.5188 13.299 23.0604 13.6582 23.4052C14.1302 23.858 14.7462 23.7724 14.7006 23.1532C14.6806 22.8772 14.6734 22.7957 14.699 22.5908C14.711 22.4941 14.363 22.6269 14.111 22.5708C13.8774 22.5188 13.5238 22.142 13.443 21.8636C13.1894 20.9924 13.8622 19.6716 14.047 20.066C14.2694 20.5412 15.039 20.6652 15.0222 20.2284C15.003 19.7252 15.163 19.4516 15.163 19.4516C15.163 19.4516 14.8014 19.4108 14.6678 19.3084C14.3926 19.0964 14.3414 18.6124 14.3686 18.3212C14.4462 17.4892 15.5222 16.3028 15.5222 17.1676C15.5222 17.5908 16.1646 17.9492 16.3286 17.6396C16.5094 17.2988 16.7422 17.1452 16.7422 17.1452C16.7422 17.1452 16.4054 16.9204 16.3006 16.6308C15.931 15.6148 18.2766 14.8492 18.0982 15.4156C17.8246 16.2836 18.3518 16.0676 19.0278 15.9564C19.3054 15.9108 19.5718 15.9372 19.5718 15.9372C19.5718 15.9372 19.3638 15.5636 19.479 15.3732C19.6822 15.038 21.7446 14.494 21.2846 15.2436C21.0406 15.642 21.507 15.7772 21.899 15.9124C22.2382 16.0292 22.9782 16.0524 23.1078 16.4964C23.151 16.6452 23.067 17.006 23.0094 17.218C23.2918 17.2548 23.4982 17.294 23.5702 17.3228C23.9966 17.4892 24.1414 17.9532 24.5038 18.0092C24.6334 18.0292 25.1718 18.0692 25.3278 18.0876C25.563 18.1148 25.8222 18.1708 26.0886 18.2436C26.8134 16.4996 27.8862 16.614 28.0262 16.8412C28.3206 16.4012 29.8302 16.3076 29.895 16.8556C30.3094 16.6684 30.9278 16.7668 31.2414 17.1012H31.2398ZM44.2102 21.3788L45.3198 21.6764L45.6046 20.6124C45.6726 20.3604 45.7518 20.1052 45.8382 19.838L45.815 19.83C45.5982 20.07 45.415 20.2812 45.203 20.4988L44.2182 21.3676L44.2102 21.3796V21.3788ZM45.7494 23.6684L44.851 23.4276L45.1326 22.3756L43.1254 21.838L43.2878 21.2316L45.7222 19.0716L46.8966 19.386L46.2182 21.9164L46.767 22.0636L46.5798 22.7636L46.031 22.6164L45.7494 23.6684ZM40.9174 22.1492C41.3974 22.174 41.6862 21.6396 41.7398 20.6076C41.7926 19.5972 41.5702 19.038 41.0878 19.0124C40.6454 18.9892 40.3214 19.5093 40.2686 20.5308C40.2054 21.5749 40.4718 22.126 40.9174 22.1492ZM40.8774 22.8708C39.7454 22.8117 39.2382 21.8124 39.2998 20.4988C39.3694 19.1708 40.0102 18.2276 41.1494 18.2876C42.3166 18.3484 42.7902 19.3652 42.723 20.6444C42.6526 21.9956 42.0478 22.9325 40.8774 22.8708ZM36.7766 19.23C36.367 19.2876 36.1246 19.6756 36.1918 20.146C36.2486 20.5468 36.5422 20.8476 37.0054 20.7828C37.3382 20.7356 37.5478 20.5548 37.6406 20.3532C37.6646 20.2932 37.6742 20.226 37.6614 20.1332C37.595 19.6324 37.3238 19.1532 36.7766 19.2308V19.23ZM36.0622 23.2236L35.9566 22.4748C36.0854 22.4732 36.2094 22.4516 36.4222 22.4092C36.767 22.3412 37.0958 22.1908 37.3238 21.9724C37.6006 21.718 37.7542 21.3884 37.7822 21.0212L37.7654 21.0172C37.579 21.2804 37.2798 21.4524 36.8478 21.5124C36.059 21.6236 35.3542 21.1756 35.2366 20.3372C35.1142 19.4684 35.7286 18.6508 36.7086 18.5132C37.8454 18.3532 38.527 19.1292 38.6742 20.174C38.803 21.0908 38.6006 21.794 38.1766 22.2996C37.8014 22.7412 37.2414 23.0308 36.5582 23.1516C36.375 23.1932 36.1822 23.2172 36.0622 23.2236ZM34.4814 23.654L33.4382 20.2412L33.4254 20.2452L32.7366 20.8796L32.367 20.2316L33.3182 19.374L34.0838 19.1396L35.3798 23.3788L34.4814 23.6532V23.654ZM22.567 18.6804C22.5342 18.6804 22.3366 18.8524 22.2518 19.0604C22.3758 19.0316 22.6782 18.938 22.9502 18.8484C22.8406 18.7628 22.7166 18.6804 22.567 18.6804ZM23.5662 19.0068C23.5662 19.0068 22.195 19.546 21.9518 19.3244C21.6598 19.058 22.275 18.3308 22.5278 18.3308C23.1486 18.3308 23.5662 19.0076 23.5662 19.0076V19.0068ZM56.4334 19.0068C56.4334 19.0068 56.851 18.33 57.4718 18.33C57.7246 18.33 58.3398 19.0572 58.0478 19.3236C57.8046 19.5452 56.4334 19.006 56.4334 19.006V19.0068ZM57.4326 18.6804C57.283 18.6804 57.159 18.7628 57.0494 18.8484C57.3214 18.9372 57.6238 19.0316 57.7478 19.0604C57.663 18.8524 57.4662 18.6804 57.4326 18.6804ZM57.0822 59.2524V56.6596C57.0822 56.1972 57.0686 55.8076 57.051 55.478H58.0142L58.0662 56.0412H58.091C58.2438 55.7836 58.6534 55.3884 59.3294 55.3884C60.059 55.3884 60.7486 55.85 60.7486 57.0564V59.2532H59.6414V57.198C59.6414 56.654 59.435 56.2788 58.9398 56.2788C58.559 56.2788 58.3238 56.5452 58.2302 56.794C58.1998 56.8692 58.1894 56.9804 58.1894 57.0796V59.2532H57.0822V59.2524ZM19.2886 59.3092L19.107 54.1028L20.2134 54.0644L20.363 58.3452L22.6142 58.2668L22.6462 59.1924L19.2886 59.31V59.3092ZM26.8182 58.5132L24.279 57.9196C24.1894 58.462 24.6454 58.8436 25.2326 58.9788C25.6638 59.078 26.0046 59.0956 26.351 59.0588L26.335 59.8212C25.9262 59.8885 25.4406 59.8732 24.8982 59.7484C23.6262 59.4548 23.0542 58.5404 23.3166 57.4044C23.5286 56.486 24.3654 55.5692 25.6822 55.8732C26.9574 56.1676 27.1462 57.2757 26.9558 58.1004C26.915 58.2772 26.8582 58.4324 26.819 58.5132H26.8182ZM24.4422 57.1772L26.0206 57.542C26.083 57.2821 26.0774 56.7148 25.4566 56.5716C24.8958 56.4421 24.5582 56.8628 24.4422 57.1772ZM27.9942 56.5876L29.1246 56.9988L29.059 58.9308C29.0486 59.274 29.0198 59.5748 28.9822 59.8708L29.0062 59.8796C29.1726 59.6204 29.3414 59.3812 29.5478 59.1092L30.7182 57.5796L31.8222 57.9813L29.1182 61.0132L28.0734 60.6332L27.995 56.5876H27.9942ZM35.2542 60.9492L32.6958 60.4444C32.6254 60.99 33.0942 61.3548 33.6854 61.47C34.1198 61.554 34.4606 61.5597 34.8062 61.5108L34.8166 62.2732C34.4102 62.3548 33.9246 62.3564 33.3782 62.25C32.0966 62.0012 31.4934 61.1076 31.7158 59.9628C31.8958 59.0372 32.6998 58.0924 34.0262 58.35C35.311 58.5996 35.5382 59.7005 35.3766 60.5317C35.3422 60.71 35.291 60.8668 35.2542 60.9492ZM32.8334 59.6972L34.4238 60.0061C34.4774 59.7444 34.4518 59.1781 33.8262 59.0564C33.2614 58.9468 32.9382 59.3788 32.8334 59.6972ZM36.3374 62.7108L36.5646 60.2028C36.6142 59.6388 36.6366 59.278 36.643 58.9492L37.591 59.0324L37.5646 59.7692L37.5926 59.7716C37.839 59.218 38.3382 59.0076 38.7398 59.0428C38.843 59.0516 38.8982 59.0597 38.9838 59.0868L38.8942 60.1132C38.7958 60.0844 38.7022 60.062 38.5702 60.0508C38.091 60.0092 37.7622 60.25 37.6494 60.638C37.6294 60.714 37.6158 60.8012 37.6078 60.8884L37.4398 62.8084L36.3366 62.7117L36.3374 62.7108ZM40.9398 57.2908L41.0566 60.6413H41.0718C41.159 60.4932 41.2622 60.3316 41.3574 60.1924L42.2094 58.9892L43.5574 58.9421L42.1494 60.518L43.9102 62.706L42.5318 62.754L41.4078 61.1876L41.0878 61.5868L41.1302 62.8028L40.0246 62.8412L39.8318 57.3284L40.9374 57.29L40.9398 57.2908ZM47.8654 58.1044L48.3598 60.6469C48.4526 61.1228 48.5406 61.5068 48.6158 61.8036L47.671 61.9876L47.511 61.4276L47.4862 61.4324C47.3854 61.7052 47.0998 62.1892 46.3798 62.3292C45.6566 62.47 44.935 62.1668 44.7006 60.9588L44.2814 58.8013L45.3678 58.59L45.751 60.5604C45.8654 61.1493 46.1358 61.4692 46.611 61.3764C46.979 61.3052 47.1598 61.0093 47.2086 60.766C47.2246 60.6876 47.2222 60.598 47.2038 60.5036L46.7782 58.3156L47.8646 58.1044H47.8654ZM49.5806 61.1772L49.5638 60.3572C49.819 60.4284 50.3094 60.4492 50.655 60.3508C51.0446 60.2388 51.1654 60.0524 51.107 59.8484C51.0454 59.6332 50.8806 59.5709 50.3902 59.562C49.5566 59.5532 49.1262 59.2365 49.0038 58.7908C48.8126 58.1244 49.2398 57.4492 50.1526 57.1876C50.5894 57.0628 51.0094 57.0548 51.267 57.1084L51.2822 57.8948C51.095 57.8548 50.723 57.8196 50.387 57.9156C50.0814 58.0036 49.9406 58.1805 49.999 58.386C50.0574 58.5892 50.2574 58.6396 50.7726 58.6532C51.5446 58.6708 51.9526 58.9236 52.1158 59.4748C52.3038 60.1308 51.9278 60.79 50.8678 61.094C50.3774 61.2348 49.9182 61.246 49.5798 61.1772H49.5806ZM56.2006 57.8812L53.639 58.3717C53.7782 58.9036 54.3502 59.0668 54.9406 58.9516C55.375 58.8676 55.6934 58.7444 55.995 58.57L56.2902 59.2732C55.9438 59.5012 55.4942 59.6844 54.9478 59.7908C53.6662 60.0396 52.7718 59.4372 52.5494 58.2924C52.3694 57.3668 52.7614 56.1893 54.087 55.9316C55.3718 55.682 55.995 56.6172 56.1566 57.4484C56.191 57.6268 56.2022 57.7916 56.199 57.8812H56.2006ZM53.487 57.6269L55.0774 57.318C55.0294 57.0556 54.7934 56.5396 54.1678 56.6612C53.603 56.7708 53.4654 57.2932 53.4878 57.6276L53.487 57.6269ZM39.0486 29.238H40.8846C41.087 29.238 41.2526 29.0732 41.2526 28.8708C41.2526 28.6684 41.0878 28.5036 40.8846 28.5036H39.0486V29.238ZM39.0486 31.022H40.939C41.171 31.022 41.3574 30.834 41.3574 30.602C41.3574 30.37 41.1702 30.1828 40.939 30.1828H39.0486V31.0228V31.022ZM42.0006 29.67C42.2502 29.9132 42.4054 30.2524 42.4054 30.6284C42.4054 31.366 41.807 31.966 41.0694 31.9668H37.999V27.5572H41.019C41.7278 27.5588 42.3022 28.134 42.3022 28.8428C42.3022 29.1572 42.1886 29.4452 42.0014 29.6692L42.0006 29.67ZM42.707 37.218H41.5798L41.2254 36.4828H38.759L38.4038 37.218H37.2774L39.4814 32.8109H40.503L42.707 37.218ZM39.9918 33.938L39.2174 35.5388H40.7654L39.9918 33.938ZM41.4894 38.1628H42.7526L40.5174 41.0324V42.57H39.4678V41.0324L37.2326 38.1628H38.495L39.9926 40.17L41.4894 38.1628ZM47.3654 38.1628V39.1076H44.427V39.842H47.2606V40.786H44.427V41.626H47.3654V42.57H43.3774V38.1628H47.3654ZM50.671 40.8916H49.8838V42.57H48.8342V38.1628H51.515C52.267 38.1652 52.8758 38.7756 52.8758 39.5284C52.8758 40.15 52.4654 40.6732 51.8966 40.838L53.1902 42.57H51.931L50.6718 40.8916H50.671ZM51.4086 39.1076H49.8846V39.9468H51.4086C51.639 39.9452 51.8254 39.758 51.8254 39.5276C51.8254 39.2972 51.639 39.1092 51.4086 39.1076ZM37.7222 42.57H36.595L36.2406 41.8348H33.7742L33.419 42.57H32.2926L34.4966 38.1628H35.5182L37.7222 42.57ZM35.007 39.29L34.2326 40.8908H35.7806L35.007 39.29ZM28.351 39.8452H30.187C30.3894 39.8452 30.555 39.6804 30.555 39.478C30.555 39.2756 30.3902 39.1108 30.187 39.1108H28.351V39.8452ZM28.351 41.6292H30.2414C30.4734 41.6292 30.6598 41.4412 30.6598 41.2092C30.6598 40.9772 30.4726 40.79 30.2414 40.79H28.351V41.63V41.6292ZM31.303 40.2772C31.5526 40.5204 31.7078 40.8596 31.7078 41.2356C31.7078 41.9732 31.1094 42.5732 30.3718 42.574H27.3014V38.1644H30.3214C31.0302 38.166 31.6046 38.7412 31.6046 39.45C31.6046 39.7644 31.491 40.0524 31.3038 40.2764L31.303 40.2772ZM41.9862 43.5148V44.4596H39.0478V45.194H41.8814V46.138H39.0478V46.978H41.9862V47.9221H37.9982V43.5148H41.9862ZM41.2494 50.338C41.2494 50.1068 41.0638 49.9196 40.8334 49.9172H39.0478V50.7565H40.8342C41.0646 50.7541 41.2502 50.5668 41.2502 50.338H41.2494ZM37.9982 53.3804V48.9724H40.9422C41.6918 48.978 42.2982 49.5876 42.2982 50.3388C42.2982 50.91 41.947 51.4004 41.4494 51.6044L42.7734 53.3804H41.5134L40.2542 51.702H39.0478V53.3804H37.9982Z" fill="black"/>
</svg>
