<svg width="80" height="80" viewBox="0 0 80 80" fill="none" xmlns="http://www.w3.org/2000/svg">
<path d="M10.4004 39.9996C10.4004 23.6524 23.6524 10.4004 39.9996 10.4004C56.3468 10.4004 69.6004 23.6524 69.6004 39.9996C69.6004 56.3468 56.3484 69.6004 39.9996 69.6004C23.6508 69.6004 10.4004 56.3468 10.4004 39.9996Z" fill="#FFD900"/>
<path d="M11.8232 40C11.8232 24.4384 24.4392 11.8232 40 11.8232C55.5608 11.8232 68.1776 24.4384 68.1776 40C68.1776 55.5616 55.5616 68.1784 40 68.1784C24.4384 68.1784 11.8232 55.5624 11.8232 40Z" fill="black"/>
<path d="M13.3877 39.9997C13.3877 25.3021 25.3029 13.3877 39.9997 13.3877C54.6965 13.3877 66.6125 25.3021 66.6125 39.9997C66.6125 54.6973 54.6973 66.6133 39.9997 66.6133C25.3021 66.6133 13.3877 54.6981 13.3877 39.9997Z" fill="#FFD900"/>
<path fill-rule="evenodd" clip-rule="evenodd" d="M44.3542 62.6752C42.3894 62.6752 40.959 61.1872 40.959 59.488C40.959 59.24 40.9406 59.1296 40.9526 58.952H42.807C43.3438 58.952 43.2574 59.6792 43.2574 59.6792C43.2574 60.2392 43.8638 60.4936 44.3198 60.5056C44.8742 60.5208 45.327 60.0096 45.327 59.4496L45.319 58.364C44.9646 58.5568 44.2614 58.5528 44.2614 58.5528C42.5822 58.5072 40.9414 57.0584 40.9414 55.2664V54.468C40.9414 52.676 42.4702 51.2656 44.2614 51.2656H44.335C46.127 51.2656 47.5182 52.7168 47.5182 54.5088V59.4032C47.5182 61.2472 46.2126 62.6552 44.355 62.6744L44.3542 62.6752Z" fill="black"/>
<path d="M44.2812 53.5811H44.3124C44.8724 53.5811 45.3268 54.0355 45.3268 54.5955V55.2379C45.3268 55.7979 44.8724 56.2523 44.3124 56.2523H44.2812C43.722 56.2523 43.2676 55.7979 43.2676 55.2387V54.5963C43.2676 54.0371 43.722 53.5827 44.2812 53.5827V53.5811Z" fill="#FFD900"/>
<path fill-rule="evenodd" clip-rule="evenodd" d="M24.0491 46.9233V41.7321H27.0755C29.5795 41.7321 30.4731 46.2793 27.2187 46.9233H24.0491ZM24.0491 37.7785V32.8241H27.4683C29.6859 32.8241 30.1411 37.0977 27.6019 37.7785H24.0491ZM19.9715 28.7129V50.8089L26.9323 50.8161C32.5483 50.8161 35.3995 44.0017 31.4947 39.8017C31.4947 39.8017 31.4827 39.7897 31.4827 39.7689C31.4827 39.7481 31.5107 39.7265 31.5107 39.7265C34.7555 36.0609 33.3963 29.6225 27.3611 28.7129H19.9707H19.9715Z" fill="black"/>
<path fill-rule="evenodd" clip-rule="evenodd" d="M52.8043 46.9233V41.7321H55.8099C58.3139 41.7321 59.2083 46.2793 55.9531 46.9233H52.8043ZM52.8043 37.7785V32.8241H56.2035C58.4211 32.8241 58.8763 37.0977 56.3363 37.7785H52.8043ZM48.7051 28.7129V50.8089L55.6667 50.8161C61.2827 50.8161 64.1339 44.0017 60.2291 39.8017C60.2291 39.8017 60.2171 39.7897 60.2171 39.7689C60.2171 39.7481 60.2451 39.7265 60.2451 39.7265C63.4899 36.0609 62.1307 29.6225 56.0955 28.7129H48.7051Z" fill="black"/>
<path fill-rule="evenodd" clip-rule="evenodd" d="M35.6384 51.2812H35.712C37.504 51.2812 38.956 52.734 38.956 54.526V59.4252C38.956 61.218 37.504 62.6708 35.712 62.6708H35.6384C33.8464 62.6708 32.3936 61.2172 32.3936 59.4252V54.526C32.3936 52.734 33.8464 51.2812 35.6384 51.2812Z" fill="black"/>
<path d="M35.6927 53.6094H35.6591C35.0993 53.6094 34.6455 54.0632 34.6455 54.623V59.4878C34.6455 60.0476 35.0993 60.5014 35.6591 60.5014H35.6927C36.2525 60.5014 36.7063 60.0476 36.7063 59.4878V54.623C36.7063 54.0632 36.2525 53.6094 35.6927 53.6094Z" fill="#FFD900"/>
<path fill-rule="evenodd" clip-rule="evenodd" d="M31.1787 17.6768L38.4195 40.0776H41.5515L48.7051 17.6768H44.3243L39.9779 32.628L35.6611 17.6768H31.1787Z" fill="black"/>
</svg>
