<svg width="80" height="80" viewBox="0 0 80 80" fill="none" xmlns="http://www.w3.org/2000/svg">
<path d="M39.9749 5.2002L18.2021 40.037V40.0378L39.9997 74.8002L61.7973 40.0362L39.9749 5.2002Z" fill="white"/>
<path d="M39.9763 7.41211L19.5859 40.0361L39.9995 72.5921L60.4131 40.0361L39.9763 7.41211Z" fill="black"/>
<path d="M39.9809 12.6807L22.8857 40.0311L40.0001 67.3255L57.1137 40.0311L39.9809 12.6807Z" fill="white"/>
<path d="M39.9826 15.0957L24.3994 40.0285L40.0002 64.9093L55.601 40.0285L39.9826 15.0957Z" fill="black"/>
<path d="M39.9825 17.0312L25.6113 40.0256L39.9993 62.9728L54.3873 40.0256L39.9825 17.0312Z" fill="white"/>
<path d="M39.9761 16.5039L35.6465 22.9983H44.4497L39.9761 16.5039Z" fill="black"/>
<path d="M47.7703 51.5976H32.3935L26.6367 42.4912H53.2631L47.7703 51.5976Z" fill="black"/>
<path d="M32.5373 28.1807H47.5637L53.0557 37.2879H26.7812L32.5373 28.1807Z" fill="black"/>
<path d="M39.9768 63.8845L35.5 56.6885H44.7424L39.9768 63.8845Z" fill="black"/>
<path d="M32.7793 51.4974H43.5977C46.6937 51.4974 49.4297 48.543 49.4297 44.4758C49.4297 42.179 48.4097 40.7822 47.8665 40.0278C48.4865 39.3854 49.4185 38.5318 49.4185 35.2726C49.4185 32.9446 47.4409 28.3926 42.8225 28.3926H32.7801V51.4974H32.7793Z" fill="black"/>
<path d="M33.5771 50.7402H42.5803C45.4731 50.7402 48.5555 48.8618 48.5555 44.5378C48.5555 42.3914 47.574 41.0802 46.8476 40.085C47.4284 39.485 48.6324 38.5306 48.6324 35.485C48.6324 33.3122 47.3907 29.1514 42.1139 29.1514H33.5771V50.7402Z" fill="white"/>
<path d="M34.3584 49.9656H41.9584C45.2952 49.9656 47.7784 48.2224 47.7784 44.2088C47.7784 42.2168 46.3912 40.472 45.6832 40.0752C46.3136 39.696 47.8512 38.632 47.8512 35.8048C47.8512 33.544 46.624 29.9248 41.7264 29.9248H34.3584V49.9656Z" fill="black"/>
<path d="M37.7109 41.6914H41.5757C42.8541 41.6914 44.0645 42.4362 44.0645 43.7954C44.0645 45.4602 42.9005 45.9962 41.3549 45.9962H37.7117V41.6914H37.7109Z" fill="white"/>
<path d="M37.7109 33.6426H41.0349C42.1413 33.6426 43.6757 33.8546 43.6757 35.717C43.6757 37.7554 42.2005 37.8802 41.0349 37.8802H37.7109V33.6426Z" fill="white"/>
<path d="M38.5117 34.4121H40.9213C41.7021 34.4121 42.7861 34.4441 42.7861 35.7601C42.7861 37.0761 41.7453 37.1113 40.9213 37.1113H38.5117V34.4121Z" fill="black"/>
<path d="M38.5623 42.459H41.1887C42.0367 42.459 43.1231 42.9534 43.1231 43.8566C43.1231 45.039 42.0687 45.2294 41.0407 45.2294H38.5615V42.459H38.5623Z" fill="black"/>
</svg>
