<svg width="80" height="80" viewBox="0 0 80 80" fill="none" xmlns="http://www.w3.org/2000/svg">
<path d="M69.4188 40.0004C69.4188 56.2468 56.2484 69.4188 40.0004 69.4188C23.7524 69.4188 10.582 56.2468 10.582 40.0004C10.582 23.754 23.7524 10.582 40.0004 10.582C56.2484 10.582 69.4188 23.754 69.4188 40.0004Z" fill="white"/>
<path d="M39.9996 10.4004C23.678 10.4004 10.4004 23.6804 10.4004 40.0004C10.4004 56.3204 23.678 69.6004 39.9996 69.6004C56.3212 69.6004 69.6004 56.3204 69.6004 40.0004C69.6004 23.6804 56.322 10.4004 39.9996 10.4004ZM39.9996 68.6268C24.2164 68.6268 11.3732 55.786 11.3732 40.0004C11.3732 24.2148 24.2164 11.3732 39.9996 11.3732C55.7828 11.3732 68.626 24.2148 68.626 40.0004C68.626 55.786 55.7836 68.6268 39.9996 68.6268ZM40.0004 12.6724C24.9332 12.6724 12.6732 24.9332 12.6732 39.9988C12.6732 55.0644 24.9332 67.3268 40.0004 67.3268C55.0676 67.3268 67.3276 55.0668 67.3276 39.9988C67.3276 24.9308 55.07 12.6724 40.0004 12.6724ZM40.0004 62.7252C27.4708 62.7252 17.2772 52.53 17.2772 39.9996C17.2772 27.4692 27.4708 17.2772 40.0004 17.2772C52.53 17.2772 62.7252 27.4692 62.7252 39.9996C62.7252 52.53 52.53 62.7252 40.0004 62.7252ZM43.6756 20.6548C43.6756 20.6548 43.2548 21.2836 42.862 21.8852C42.566 22.338 42.4076 22.8668 42.4076 23.4084V23.6668H37.0836V23.4084C37.0836 22.8668 36.926 22.338 36.6292 21.8852C36.2364 21.2836 35.8156 20.6548 35.8156 20.6548L38.17 21.7172L39.7452 20.3236L41.3204 21.7172L43.6748 20.6548H43.6756ZM38.6956 42.6332V37.9804H41.3052V38.6948H39.7508V39.8436H41.0836V40.5572H39.7508V41.9188H41.3052V42.6332H38.6956ZM51.3468 41.2516C52.9724 41.898 55.3796 42.8612 58.6892 42.8612C60.5308 42.8612 61.6468 41.9684 61.6468 41.3748C61.6468 41.2932 61.618 41.0876 61.3612 41.0124C60.0732 40.6364 55.1948 39.2676 53.7076 38.8212C53.1572 38.6556 52.5556 38.3004 53.5852 38.2788C54.4532 38.2604 57.1732 38.3164 58.4748 37.6764C59.9708 36.9412 60.1036 36.0164 60.1036 35.6844C60.1036 35.6068 60.0436 35.5612 59.9748 35.5644C56.4724 35.7404 53.5956 35.6692 53.3996 35.658C53.082 35.6404 52.942 35.526 53.266 35.2364C53.626 34.9196 55.8036 33.1028 56.314 32.606C57.0228 31.918 57.202 31.2908 57.202 30.7508C57.202 30.0084 56.9772 29.602 56.846 29.4276C56.8012 29.3684 56.7156 29.3612 56.662 29.4132C54.4692 31.542 51.8116 32.9764 51.6612 33.0532C51.3788 33.1956 51.2604 33.0108 51.5676 32.4588C51.742 32.1452 51.974 31.8612 52.3684 31.1604C52.9612 30.1092 53.0548 28.9724 53.0244 28.0804C52.9948 27.2524 52.7132 26.342 51.7708 25.9252C51.6844 25.8876 51.582 25.9116 51.5228 25.9868C51.4292 26.1076 51.2844 26.3332 51.1428 26.7188C50.8628 27.478 50.838 28.4908 49.4964 29.2652C48.7564 29.6924 47.7244 30.4372 47.7244 31.11C47.7244 31.3892 47.7996 31.6436 47.7996 31.986C47.7996 32.2788 47.6628 32.3908 47.3732 32.3692C47.0252 32.3444 46.8028 32.2476 46.502 32.5436C45.6412 33.39 44.514 34.8052 43.35 34.8052C42.8652 34.8052 42.6148 34.1804 42.4956 33.41C42.4284 32.9812 42.402 32.5084 42.3988 32.074C42.394 31.2652 42.4852 30.5908 42.4852 30.5908C42.4852 30.5908 42.8516 30.6876 43.2388 30.6108C44.0716 30.4444 44.2916 29.7628 44.2916 29.2924C44.2916 29.15 44.254 29.0412 44.234 29.0084C44.234 29.0084 43.8372 29.4124 43.322 29.4124C42.8068 29.4124 42.6092 28.766 42.6092 28.3492C42.6092 27.3324 43.2892 26.8356 43.634 26.61C44.146 26.2748 44.1812 25.9476 44.1812 25.6308C44.1812 25.2308 44.114 24.9604 44.114 24.9604C43.894 25.3796 43.6804 25.7884 42.85 25.7884C41.9164 25.7884 40.6788 25.6524 40.2364 25.11C40.1596 25.0164 40.03 24.95 39.6812 24.95C37.9988 24.95 35.9068 25.2124 33.9532 26.3244C33.6932 26.4724 33.7092 26.67 33.7412 26.758C33.8084 26.9444 33.942 27.302 33.942 27.302C33.942 27.302 35.1004 26.4972 35.8884 26.4972C36.2748 26.4972 36.39 26.7156 36.594 27.7492C36.2316 27.8796 35.4516 27.9268 34.5804 27.9268C32.982 27.9268 32.942 27.3764 32.942 27.0228C32.942 27.002 32.9364 26.9828 32.8956 26.9828C32.7564 26.9828 32.3548 27.1084 32.3548 27.7044C32.3548 28.1284 32.69 28.7156 34.4572 28.7156C35.526 28.7156 36.4164 28.3572 36.7012 28.2516C36.8476 28.886 36.8788 29.0972 35.6764 29.0972C35.0004 29.0972 34.6428 28.9676 34.6428 28.9676C34.6428 28.9676 34.5644 29.2116 34.5644 29.3844C34.5644 29.5308 34.6412 29.5956 34.8708 29.7036C35.1788 29.8484 35.742 30.0604 36.7116 30.0604C37.1452 30.0604 37.3292 29.9428 37.4596 29.9428C37.7212 29.9428 37.9124 30.754 37.9124 31.0044C37.9124 31.2028 37.662 31.2124 37.0268 31.2124C36.4916 31.2124 36.5028 31.2796 36.4988 31.3116C36.478 31.462 37.2012 32.0588 37.3324 32.0588C37.5252 32.0588 37.9604 31.5572 37.9772 31.5412C37.9772 31.5412 38.0316 31.85 38.0316 32.442C38.0316 33.7156 37.4508 34.8052 36.6548 34.8052C35.49 34.8052 34.3636 33.39 33.502 32.5436C33.2012 32.2468 32.9788 32.3436 32.6308 32.3692C32.3404 32.3908 32.2044 32.2796 32.2044 31.986C32.2044 31.6444 32.2788 31.3892 32.2788 31.11C32.2788 30.4372 31.2476 29.6924 30.5076 29.2652C29.166 28.49 29.1404 27.4772 28.8604 26.7188C28.718 26.3332 28.5748 26.1076 28.4804 25.9868C28.422 25.9124 28.3196 25.8876 28.2324 25.9252C27.2908 26.342 27.0076 27.2524 26.9788 28.0804C26.9484 28.9724 27.0428 30.1092 27.6356 31.1604C28.0292 31.8604 28.2604 32.1444 28.4364 32.4588C28.7444 33.0108 28.626 33.1964 28.3428 33.0532C28.1916 32.9764 25.5348 31.542 23.342 29.4132C23.2884 29.362 23.202 29.3684 23.1572 29.4276C23.0268 29.602 22.8012 30.0092 22.8012 30.7508C22.8012 31.2908 22.9812 31.918 23.6892 32.606C24.2004 33.102 26.378 34.9196 26.738 35.2364C27.0612 35.526 26.922 35.6412 26.6036 35.658C26.4076 35.6692 23.5308 35.7404 20.0284 35.5644C19.9596 35.5612 19.9004 35.6148 19.8996 35.6844C19.8964 36.0164 20.0332 36.9412 21.5284 37.6764C22.8308 38.3164 25.5508 38.2596 26.418 38.2788C27.4484 38.3004 26.85 38.6652 26.2956 38.8212C24.8084 39.2692 19.93 40.6364 18.642 41.0132C18.386 41.0884 18.3564 41.2948 18.3564 41.3748C18.3564 41.9684 19.4732 42.8612 21.314 42.8612C24.6236 42.8612 27.0308 41.8988 28.6564 41.2516C29.4204 40.9364 29.5436 41.2276 28.7988 41.7548C27.4444 42.7132 23.3412 45.494 21.2404 46.8644C21.0644 46.9796 21.0212 47.2212 21.1516 47.3868C22.6732 49.3092 25.8628 47.2748 26.9676 46.6572C28.0012 46.0812 30.1652 44.5012 31.2148 43.898C31.9572 43.4708 31.9172 43.8796 31.5876 44.4636C31.3276 44.9252 30.8236 45.6588 29.7252 46.878L30.4044 47.4332C30.4044 47.4332 29.774 48.2308 29.1212 48.9476C28.8556 49.2356 28.1324 50.1172 27.7524 50.1172C27.3724 50.1172 26.9604 49.4396 26.5548 49.2436C26.2732 49.1068 25.83 49.4436 25.83 49.4436C25.83 49.4436 25.5484 49.27 25.0876 49.27C24.8284 49.27 24.586 49.3012 24.3172 49.526C23.958 49.826 24.0572 50.4732 24.0572 50.4732C24.146 50.09 24.4052 49.95 24.6732 49.95C25.4228 49.95 25.6468 50.47 26.0628 50.73C26.438 50.9652 26.8724 51.0708 26.8724 51.0708C26.5124 51.3916 25.6412 51.5228 25.2868 51.8508C25.1524 51.9748 25.1772 52.2676 25.1772 52.2676C24.6668 52.4484 24.4484 52.6124 24.4484 52.9628C24.4484 53.478 24.7596 53.9308 24.7596 53.9308C24.8036 53.5956 24.866 53.1116 25.5172 52.97C25.5172 52.97 25.6428 53.0796 25.7932 53.0796C26.1172 53.0796 27.1204 52.4084 27.2924 52.1868C27.2924 52.1868 27.3756 52.3468 27.2252 52.642C26.9388 53.206 26.8284 53.5916 26.8284 53.8588C26.8284 54.058 26.8492 54.1716 26.8876 54.2244C26.9596 54.3228 27.1436 54.302 27.1436 54.302C27.5316 55.494 28.366 55.8564 28.366 55.8564C28.1436 55.4284 28.026 54.7612 28.0244 54.4204C28.0244 54.3492 28.0324 54.2676 28.0324 54.2676C28.1588 54.2852 28.3004 54.274 28.3844 54.222C28.51 54.1436 28.6172 53.962 28.6172 53.5548C28.6172 53.1476 28.3996 52.8916 28.3996 52.6404C28.3996 52.3124 28.5596 52.1004 28.5596 52.1004C28.7684 52.4572 29.338 53.4684 29.6988 53.4684C29.8084 53.4684 29.9196 53.4244 30.0572 53.35C30.0572 53.35 30.4228 53.5972 30.8524 54.486C30.8524 54.486 31.0196 54.1692 31.0196 53.7164C31.0196 53.2636 30.6444 53.0004 30.55 52.9044C30.55 52.9044 30.7124 52.65 30.7124 52.4828C30.7124 51.9932 29.246 51.5604 29.246 50.85C29.246 50.6012 29.6188 50.1028 30.026 49.6132C30.9212 48.5332 31.2788 48.1468 31.2788 48.1468L31.9212 48.6724C32.914 47.2044 34.0188 45.4308 35.2444 45.4308C35.7492 45.4308 36.0268 45.746 36.0268 46.2324C36.0268 47.1124 34.6156 48.7652 33.9836 49.4596C33.0668 50.4668 31.6692 51.4724 31.6692 52.9484C31.6692 53.674 31.9668 54.686 31.9668 54.686C32.242 53.6964 32.3396 53.3372 32.4572 53.3372C32.6004 53.3372 32.6524 53.982 33.4308 55.3452C33.6308 55.6956 33.7308 55.8284 33.7308 55.8284C33.686 53.9972 33.706 53.1772 33.8668 53.1772C33.9492 53.1772 34.034 53.4324 34.2628 53.8396C34.59 54.4212 34.9012 54.8508 34.9012 54.8508C34.9012 51.7724 36.2748 50.238 37.114 50.238C37.6908 50.238 37.842 50.8844 37.842 51.5276C37.842 53.306 36.4092 54.3548 36.4092 56.1236C36.4092 57.7692 37.5548 58.5092 37.5548 58.5092C37.5564 58.3964 37.7796 56.8356 38.0268 56.3908C38.126 56.2124 38.2324 56.1228 38.3452 56.1228C38.5132 56.1228 38.6132 56.2836 39.0644 57.0932C39.3612 57.626 39.7692 58.1804 40.0004 58.4108C40.2316 58.1804 40.6412 57.6252 40.9364 57.0932C41.3876 56.2836 41.4884 56.1228 41.6556 56.1228C41.7684 56.1228 41.874 56.2124 41.974 56.3908C42.2212 56.8356 42.4444 58.3964 42.446 58.5092C42.446 58.5092 43.5916 57.7692 43.5916 56.1236C43.5916 54.3548 42.1588 53.306 42.1588 51.5276C42.1588 50.8836 42.3108 50.238 42.8868 50.238C43.726 50.238 45.0996 51.7724 45.0996 54.8508C45.0996 54.8508 45.4116 54.4212 45.7388 53.8396C45.9668 53.4324 46.0524 53.1772 46.1348 53.1772C46.2956 53.1772 46.3148 53.9972 46.2708 55.8284C46.2708 55.8284 46.3708 55.6956 46.5708 55.3452C47.3492 53.9812 47.4004 53.3372 47.5444 53.3372C47.662 53.3372 47.7596 53.6964 48.0348 54.686C48.0348 54.686 48.3324 53.674 48.3324 52.9484C48.3324 51.4716 46.934 50.4668 46.018 49.4596C45.386 48.7652 43.974 47.1124 43.974 46.2324C43.974 45.746 44.2524 45.4308 44.7572 45.4308C45.9828 45.4308 47.0876 47.2044 48.0804 48.6724L48.7228 48.1468C48.7228 48.1468 49.0796 48.534 49.9756 49.6132C50.3812 50.1036 50.7556 50.602 50.7556 50.85C50.7556 51.5604 49.2884 51.994 49.2884 52.4828C49.2884 52.6508 49.4516 52.9044 49.4516 52.9044C49.3564 53.0004 48.9812 53.2684 48.9812 53.7164C48.9812 54.1644 49.1492 54.486 49.1492 54.486C49.5788 53.5972 49.9444 53.35 49.9444 53.35C50.082 53.4244 50.1932 53.4684 50.302 53.4684C50.6628 53.4684 51.2324 52.4572 51.4412 52.1004C51.4412 52.1004 51.602 52.3124 51.602 52.6404C51.602 52.8916 51.3836 53.1644 51.3836 53.5548C51.3836 53.9452 51.4916 54.1428 51.6172 54.222C51.7012 54.274 51.8428 54.2852 51.9692 54.2676C51.9692 54.2676 51.9764 54.35 51.9764 54.4204C51.974 54.7612 51.8572 55.4284 51.6356 55.8564C51.6356 55.8564 52.4692 55.494 52.858 54.302C52.858 54.302 53.0428 54.322 53.1132 54.2244C53.1516 54.1716 53.1732 54.058 53.1732 53.8588C53.1732 53.5916 53.062 53.206 52.7756 52.642C52.6252 52.3468 52.7084 52.1868 52.7084 52.1868C52.8812 52.4084 53.8852 53.0796 54.2076 53.0796C54.358 53.0796 54.4836 52.97 54.4836 52.97C55.1348 53.1116 55.1964 53.5948 55.2412 53.9308C55.2412 53.9308 55.5516 53.478 55.5516 52.9628C55.5516 52.6116 55.3332 52.4484 54.8228 52.2676C54.8228 52.2676 54.8468 51.9748 54.7132 51.8508C54.358 51.5228 53.4868 51.3924 53.1268 51.0708C53.1268 51.0708 53.562 50.9652 53.9364 50.73C54.3524 50.47 54.5764 49.95 55.326 49.95C55.594 49.95 55.854 50.0908 55.9428 50.4732C55.9428 50.4732 56.042 49.826 55.6828 49.526C55.4132 49.3012 55.1708 49.27 54.9116 49.27C54.4516 49.27 54.1692 49.4436 54.1692 49.4436C54.1692 49.4436 53.7268 49.1076 53.4444 49.2436C53.0396 49.4396 52.6228 50.1172 52.2476 50.1172C51.8724 50.1172 51.1444 49.2356 50.878 48.9476C50.226 48.2316 49.5948 47.4332 49.5948 47.4332L50.2748 46.878C49.1756 45.6588 48.6724 44.9252 48.4116 44.4636C48.0828 43.8796 48.042 43.47 48.7844 43.898C49.834 44.5012 51.9988 46.0812 53.0324 46.6572C54.1372 47.2748 57.326 49.3092 58.8484 47.3868C58.9796 47.222 58.9364 46.9796 58.7596 46.8644C56.6596 45.494 52.5556 42.7132 51.202 41.7548C50.4564 41.2276 50.5772 40.946 51.3444 41.2516H51.3468ZM35.9748 39.594C34.9132 39.594 32.9572 38.806 31.194 35.5436C31.0028 35.7172 30.7484 35.8844 30.454 36.0228C29.9364 36.2636 29.4268 36.3476 29.1084 36.2724C29.2556 35.9788 29.6476 35.6428 30.166 35.402C30.4636 35.2628 30.7612 35.1756 31.0196 35.142C30.7116 34.946 30.402 34.5772 30.182 34.1052C29.9148 33.5316 29.8484 32.9548 29.9748 32.5812C30.342 32.7244 30.742 33.146 31.0092 33.7196C31.23 34.1924 31.3132 34.6668 31.2636 35.0284C31.4564 34.8516 31.714 34.6804 32.0132 34.5412C32.5308 34.3004 33.0396 34.2164 33.358 34.2916C33.2108 34.5852 32.8188 34.9204 32.302 35.1612C32.022 35.2916 31.746 35.3764 31.4996 35.4132C33.1268 38.2364 34.8668 38.8268 35.9748 38.942V39.5932V39.594ZM37.9964 26.3724C38.7524 25.978 39.6284 26.2196 39.6284 26.2196L38.2524 27.3324L37.9972 26.3724H37.9964ZM40.0004 45.9964C37.7172 43.4412 37.2796 38.5588 37.2796 36.882H42.7204C42.7204 38.5588 42.2836 43.4412 39.9996 45.9964H40.0004ZM49.546 36.0228C49.2516 35.8852 48.9972 35.7172 48.8068 35.5436C47.0436 38.806 45.0876 39.594 44.0252 39.594V38.9428C45.134 38.8276 46.874 38.2372 48.5012 35.414C48.254 35.3772 47.978 35.2924 47.6988 35.162C47.1812 34.9212 46.79 34.586 46.642 34.2924C46.9612 34.2164 47.4708 34.3004 47.9876 34.542C48.286 34.6812 48.5444 34.8524 48.7364 35.0292C48.6876 34.6676 48.7708 34.1932 48.9908 33.7204C49.258 33.1468 49.658 32.7252 50.0252 32.582C50.1516 32.9548 50.0852 33.5324 49.8188 34.106C49.5988 34.578 49.2884 34.9468 48.9804 35.1428C49.2396 35.1772 49.5356 35.2636 49.8348 35.4028C50.3524 35.6436 50.7444 35.9796 50.8924 36.2732C50.5732 36.3484 50.0636 36.2644 49.546 36.0236V36.0228Z" fill="#E30613"/>
</svg>
