<svg width="80" height="80" viewBox="0 0 80 80" fill="none" xmlns="http://www.w3.org/2000/svg">
<path d="M17.208 10.4004V46.8084C17.208 59.3964 27.4128 69.6004 40 69.6004C52.5872 69.6004 62.792 59.3956 62.792 46.8084V10.4004H17.208Z" fill="white"/>
<path d="M17.208 10.4004V46.8084C17.208 59.3964 27.4128 69.6004 40 69.6004C52.5872 69.6004 62.792 59.3956 62.792 46.8084V10.4004H17.208ZM60.8728 46.8084C60.8728 52.3836 58.7016 57.6252 54.7592 61.5676C50.8168 65.51 45.5752 67.6812 40 67.6812C34.4248 67.6812 29.1832 65.51 25.2408 61.5676C21.2984 57.6252 19.1272 52.3836 19.1272 46.8084V28.8548H60.8736V46.8084H60.8728ZM19.1272 26.9356V12.3196H60.8736V26.9356H19.1272Z" fill="#FFDD00"/>
<path d="M39.9998 67.6809V28.8545H19.127V46.8081C19.127 52.3833 21.2982 57.6249 25.2406 61.5673C29.183 65.5097 34.4246 67.6809 39.9998 67.6809Z" fill="#CD1719"/>
<path d="M17.8477 11.04V46.808C17.8477 49.7992 18.4333 52.7 19.5885 55.4304C20.7045 58.068 22.3013 60.4376 24.3365 62.472C26.3709 64.5064 28.7405 66.104 31.3781 67.22C34.1085 68.3752 37.0101 68.9608 40.0005 68.9608C42.9909 68.9608 45.8925 68.3752 48.6229 67.22C51.2605 66.104 53.6301 64.5072 55.6645 62.472C57.6989 60.4376 59.2965 58.068 60.4125 55.4304C61.5677 52.7 62.1533 49.7984 62.1533 46.808V11.04H17.8477ZM61.5133 11.6792V27.5744H18.4877V11.6792H61.5133ZM55.2125 62.0192C51.1493 66.0824 45.7469 68.32 40.0005 68.32C34.2541 68.32 28.8517 66.0824 24.7885 62.0192C20.7253 57.956 18.4877 52.5536 18.4877 46.8072V28.2144H61.5133V46.8072C61.5133 52.5536 59.2757 57.956 55.2125 62.0192Z" fill="#CD1719"/>
<path d="M34.3244 22.5416C34.3244 22.5416 36.2812 22.9608 41.1436 22.7088C41.1436 22.7088 43.3788 22.6904 43.3788 20.9576V19.3552H40.6116V20.0816C40.6116 20.0816 40.6324 20.6064 40.2396 20.6064H36.1924C36.1924 20.6064 35.386 20.5288 35.274 19.7744V17.0912C35.274 17.0912 35.3308 16.4952 36.0564 16.4488C36.0564 16.4488 37.2212 16.2808 39.774 16.4208C39.774 16.4208 40.6492 16.3648 40.6396 17.3992H43.2476L43.23 15.8528C43.23 15.8528 43.0988 14.3536 41.2548 14.2408C41.2548 14.2408 36.9516 14.0728 35.0516 14.2688C35.0516 14.2688 32.5916 14.3248 32.6484 16.1968V20.7528C32.6484 20.7528 32.5644 22.3168 34.3244 22.5416Z" fill="#CD1719"/>
<path d="M25.8764 19.9791L31.8732 19.9775L31.8748 17.9303H25.8764L25.8388 16.4495L32.1732 16.4399V14.3535H23.2676V22.9231L25.9132 22.9207L25.8764 19.9791Z" fill="#CD1719"/>
<path d="M51.8161 14.2148H47.6897L42.9297 23.4572V25.2332H45.1033L47.1121 21.1604L52.3937 21.154L54.3513 25.234H57.7025L51.8169 14.2148H51.8161ZM48.0113 19.2748L49.5009 16.2564H49.9113L51.3641 19.2748H48.0113Z" fill="#CD1719"/>
<path d="M29.8596 23.2627H23.2676V25.2347H29.8596V23.2627Z" fill="#CD1719"/>
<path d="M36.4514 23.2627H29.8594V25.2347H36.4514V23.2627Z" fill="#006139"/>
<path d="M43.0432 23.2627H36.4512V25.2347H43.0432V23.2627Z" fill="white"/>
<path d="M42.8256 23.4803V25.0171H36.6688V23.4803H42.8256ZM43.0432 23.2627H36.4512V25.2347H43.0432V23.2627Z" fill="#CC1719"/>
<path d="M33.292 64.4109V64.1557L33.8384 63.9989V62.0325L33.292 61.8621V61.6133H35.0312V61.8621L34.4848 62.0253V63.9989L35.0312 64.1557V64.4109H33.292Z" fill="white"/>
<path d="M37.5698 61.5215C36.753 61.5215 36.2354 62.1535 36.2354 62.9127C36.2354 63.8423 36.789 64.2967 37.5066 64.2967C37.705 64.2967 37.9394 64.2183 38.0882 64.1615C37.8178 64.7727 37.3074 65.2263 36.5402 65.5255L36.7106 65.8871C38.1946 65.4679 38.9762 64.2615 38.9546 63.1255C38.9402 62.2527 38.4786 61.5215 37.569 61.5215H37.5698ZM38.2378 63.7295C38.0818 63.7863 37.7906 63.8855 37.5498 63.8855C37.1162 63.8855 36.8754 63.4311 36.861 62.8927C36.8466 62.3247 37.0874 61.9551 37.4994 61.9407C37.9322 61.9191 38.2938 62.4087 38.3098 62.9983C38.3162 63.3247 38.273 63.5807 38.2378 63.7295Z" fill="white"/>
<path d="M42.2368 61.4932C41.3704 61.4932 40.668 62.1676 40.668 62.998C40.668 63.8284 41.3704 64.51 42.2368 64.51C43.1032 64.51 43.8128 63.8356 43.8128 62.998C43.8128 62.1604 43.1032 61.4932 42.2368 61.4932ZM42.2368 64.0276C41.6616 64.0276 41.2928 63.5724 41.2928 62.998C41.2928 62.4236 41.6616 61.9764 42.2368 61.9764C42.812 61.9764 43.188 62.43 43.188 62.998C43.188 63.566 42.8112 64.0276 42.2368 64.0276Z" fill="#CC1719"/>
<path d="M45.1331 65.7029H44.6011C44.7859 64.7869 45.2963 63.4453 46.1059 62.1317H44.2451V61.6133H46.8083V62.0181C46.2403 62.8557 45.3955 64.5677 45.1331 65.7029Z" fill="#CC1719"/>
<path d="M48.1238 50.6298L45.6078 48.3666C44.4646 48.5554 43.295 48.7058 42.111 48.7818L42.0846 47.009C44.1894 46.8202 45.1966 46.2546 46.1174 45.3866C47.223 44.3306 47.7398 42.9722 47.7398 41.0106C47.7398 37.6906 45.7854 34.5594 44.1142 32.8994C42.5446 31.3146 40.8958 30.8626 40.051 30.6738H39.9566C39.115 30.8626 37.463 31.3154 35.8934 32.8994C34.2222 34.5594 32.2718 37.6906 32.2718 41.0106C32.2718 42.9722 32.7846 44.3306 33.8902 45.3866C34.811 46.2546 35.8182 46.8202 37.927 47.009L37.8966 48.7818C36.7118 48.7066 35.5462 48.5554 34.3998 48.3666L31.8838 50.6298L32.9102 51.7618C32.8086 51.9882 32.759 52.2522 32.759 52.5162C32.759 53.3082 33.3926 53.9498 34.1774 53.9498C34.411 53.9498 34.8486 53.8746 35.1318 53.5346C35.215 53.4218 35.275 53.3082 35.3166 53.157C35.9654 54.5154 36.3542 56.6658 36.5238 59.8346L36.535 60.061H43.4726L43.4878 59.8346C43.6534 56.6658 44.0462 54.5154 44.695 53.157C44.7326 53.3082 44.7934 53.421 44.8758 53.5346C45.159 53.8738 45.5966 53.9498 45.8342 53.9498C46.615 53.9498 47.2526 53.3082 47.2526 52.5162C47.2526 52.2522 47.1998 51.9882 47.1014 51.7618L48.1238 50.6298Z" fill="black"/>
<path d="M40.4167 46.5552L41.9367 45.6496L40.0055 44.5176L38.0703 45.6496L39.5903 46.5552H40.4167Z" fill="#006139"/>
<path d="M42.8193 34.4077L44.7505 35.5773L45.3049 35.2381C44.9241 34.6341 44.5161 34.1061 44.1017 33.6533L42.8193 34.4077Z" fill="#006139"/>
<path d="M35.2561 44.5176L34.3281 45.0832C34.8601 45.536 35.4449 45.9128 36.3121 46.1776L37.1913 45.6496L35.2561 44.5176Z" fill="#006139"/>
<path d="M36.9385 46.3293C37.4249 46.4421 37.9873 46.4805 38.6585 46.5181L37.6289 45.9141L36.9385 46.3293Z" fill="#006139"/>
<path d="M41.3477 46.5181C42.0189 46.4805 42.5853 46.4429 43.0677 46.3293L42.3773 45.9141L41.3477 46.5181Z" fill="#006139"/>
<path d="M46.0068 44.7442C46.3988 44.2914 46.69 43.8386 46.886 43.2354L45.1924 44.2537L46.0076 44.7442" fill="#006139"/>
<path d="M47.1082 39.7653C47.0026 39.0861 46.825 38.4445 46.5914 37.8037L45.1914 38.6333L47.1082 39.7653Z" fill="#006139"/>
<path d="M47.1428 40.293H47.1236L45.1924 41.425L47.0708 42.557C47.1652 42.1042 47.21 41.5762 47.21 41.0106C47.21 40.7842 47.1908 40.5202 47.1684 40.2938H47.142" fill="#006139"/>
<path d="M42.8193 45.6496L43.6945 46.1776C44.5657 45.9136 45.1473 45.536 45.6785 45.0832L44.7505 44.5176L42.8193 45.6496Z" fill="#006139"/>
<path d="M33.124 43.2354C33.32 43.8394 33.6072 44.2914 33.9992 44.7442L34.8144 44.2537L33.124 43.2354Z" fill="#006139"/>
<path d="M41.65 31.7668C40.986 31.4652 40.4052 31.2764 40.0052 31.2012C39.6012 31.2764 39.0204 31.4652 38.3564 31.7668L40.0052 32.7476L41.65 31.7668Z" fill="#006139"/>
<path d="M39.564 33.0111L37.8928 32.0303C37.372 32.3319 36.8136 32.7471 36.2672 33.2751C36.252 33.2751 36.2368 33.3127 36.2256 33.3127L37.6288 34.1423L39.564 33.0103" fill="#006139"/>
<path d="M42.3786 34.1432L43.7858 33.3136C43.7706 33.3136 43.7554 33.276 43.7402 33.276C43.193 32.748 42.6386 32.3328 42.1146 32.0312L40.4434 33.012L42.3786 34.144" fill="#006139"/>
<path d="M37.1907 34.4077L35.9083 33.6533C35.4931 34.1061 35.0819 34.6341 34.7051 35.2381L35.2555 35.5773L37.1907 34.4077Z" fill="#006139"/>
<path d="M32.882 40.2928H32.8364C32.814 40.5192 32.7988 40.7832 32.7988 41.0096C32.7988 41.5752 32.8444 42.104 32.9348 42.556L34.8132 41.424L32.882 40.292" fill="#006139"/>
<path d="M33.4142 37.8027C33.1806 38.4443 33.003 39.0851 32.9014 39.7643L34.8142 38.6323L33.4142 37.8027Z" fill="#006139"/>
<path d="M34.4674 35.6143C34.3466 35.8031 34.2258 36.0295 34.1162 36.2183L34.8138 35.8031L34.4666 35.6143" fill="#006139"/>
<path d="M35.2563 38.369L37.1915 37.237L35.2563 36.0674L33.7587 36.973C33.6947 37.0858 33.6379 37.237 33.5811 37.3882L35.2563 38.369Z" fill="#006139"/>
<path d="M38.0693 40.0295L40.0045 41.1991L41.9357 40.0295L40.0045 38.8975L38.0693 40.0295Z" fill="#006139"/>
<path d="M35.2554 41.6895L33.3242 42.8591L35.2554 43.9911L37.1906 42.8591L35.2554 41.6895Z" fill="#006139"/>
<path d="M35.6963 44.2541L37.6275 45.3861L39.5627 44.2541L37.6275 43.1221L35.6963 44.2541Z" fill="#006139"/>
<path d="M37.1906 40.0295L35.2554 38.8975L33.3242 40.0295L35.2554 41.1991L37.1906 40.0295Z" fill="#006139"/>
<path d="M39.5637 35.8039L37.6285 34.6719L35.6973 35.8039L37.6285 36.9735L39.5637 35.8039Z" fill="#006139"/>
<path d="M39.5637 38.633L37.6285 37.501L35.6973 38.633L37.6285 39.765L39.5637 38.633Z" fill="#006139"/>
<path d="M40.0055 41.6895L38.0703 42.8591L40.0055 43.9911L41.9367 42.8591L40.0055 41.6895Z" fill="#006139"/>
<path d="M40.4434 44.2541L42.3786 45.3861L44.3098 44.2541L42.3786 43.1221L40.4434 44.2541Z" fill="#006139"/>
<path d="M40.4434 38.633L42.3786 39.765L44.3098 38.633L42.3786 37.501L40.4434 38.633Z" fill="#006139"/>
<path d="M44.7505 41.1981L46.6817 40.0285L44.7505 38.8965L42.8193 40.0285L44.7505 41.1981Z" fill="#006139"/>
<path d="M42.8193 42.8581L44.7505 43.9901L46.6817 42.8581L44.7505 41.6885L42.8193 42.8581Z" fill="#006139"/>
<path d="M40.4434 35.8039L42.3786 36.9735L44.3098 35.8039L42.3786 34.6719L40.4434 35.8039Z" fill="#006139"/>
<path d="M41.9367 34.4074L40.0055 33.2754L38.0703 34.4074L40.0055 35.577L41.9367 34.4074Z" fill="#006139"/>
<path d="M45.894 36.2183C45.7812 36.0295 45.6636 35.8031 45.5396 35.6143L45.1924 35.8031L45.894 36.2183Z" fill="#006139"/>
<path d="M44.7505 36.0674L42.8193 37.237L44.7505 38.369L46.4257 37.3882C46.3729 37.237 46.3129 37.0866 46.2521 36.973L44.7505 36.0674Z" fill="#006139"/>
<path d="M35.6963 41.424L37.6275 42.5936L39.5627 41.424L37.6275 40.292L35.6963 41.424Z" fill="#006139"/>
<path d="M40.0055 36.0674L38.0703 37.237L40.0055 38.369L41.9367 37.237L40.0055 36.0674Z" fill="#006139"/>
<path d="M44.3098 41.424L42.3786 40.292L40.4434 41.424L42.3786 42.5936L44.3098 41.424Z" fill="#006139"/>
<path d="M35.6853 50.4032H37.8733L37.8925 49.2336C36.7573 49.1584 35.6365 49.0448 34.5389 48.8184C33.7165 49.5728 32.9925 50.252 32.5205 50.6672L33.1469 51.3464C33.6149 50.7424 34.4941 50.4032 35.6861 50.4032" fill="#FFDD00"/>
<path d="M45.4676 48.8184C44.37 49.0072 43.2532 49.1576 42.1172 49.2336L42.1364 50.4032H44.3204C45.5124 50.4032 46.3916 50.7424 46.8628 51.3464L47.4852 50.6672C47.014 50.252 46.2892 49.5728 45.4668 48.8184" fill="#FFDD00"/>
<path d="M40.0056 50.4411H38.3232L38.376 47.0459C38.8624 47.0835 39.4024 47.0835 40.0056 47.0835C40.6088 47.0835 41.1488 47.0835 41.6352 47.0459L41.688 50.4411H40.0056Z" fill="#FFDD00"/>
<path d="M35.135 50.8564C33.9014 51.0076 33.207 51.6108 33.207 52.5164C33.207 53.0444 33.6406 53.4972 34.1766 53.4972C34.331 53.4972 34.6182 53.4596 34.7838 53.2708C34.931 53.082 34.9614 52.7804 34.8782 52.4028L35.2822 52.214C36.1086 53.3836 36.6062 55.27 36.863 58.2876L38.187 55.0436C37.2702 53.0444 36.2406 51.3844 35.135 50.8564Z" fill="#FFDD00"/>
<path d="M38.4208 54.478L39.9072 50.894L35.9688 50.8564C36.7688 51.498 37.5648 52.6676 38.4208 54.478Z" fill="#FFDD00"/>
<path d="M44.0379 50.8564L40.1035 50.894L41.5899 54.478C42.4427 52.6668 43.2387 51.498 44.0379 50.8564Z" fill="#FFDD00"/>
<path d="M38.6738 55.0433C39.1002 56.0241 39.5418 57.1185 40.0058 58.4009C40.4698 57.1185 40.9074 56.0241 41.3338 55.0433C40.7074 53.5345 40.149 52.1761 40.0058 51.8369C39.8586 52.1761 39.3042 53.5345 38.6738 55.0433Z" fill="#FFDD00"/>
<path d="M38.4401 55.6092C37.8817 56.9676 37.3049 58.3628 36.9385 59.2684C36.9425 59.3812 36.9497 59.4948 36.9577 59.6076H39.9529L39.7945 59.1548C39.3793 57.9852 38.9265 56.7404 38.4401 55.6084" fill="#FFDD00"/>
<path d="M44.8713 50.8564C43.7697 51.3844 42.7361 53.0444 41.8193 55.0436L43.1433 58.2876C43.4001 55.2692 43.9017 53.3836 44.7241 52.214L45.1281 52.4028C45.0449 52.7804 45.0793 53.082 45.2265 53.2708C45.3921 53.4596 45.6753 53.4972 45.8337 53.4972C46.3697 53.4972 46.8033 53.0444 46.8033 52.5164C46.8033 51.6108 46.1057 51.0076 44.8721 50.8564" fill="#FFDD00"/>
<path d="M40.2161 59.155L40.0537 59.6078H43.0489C43.0561 59.495 43.0641 59.3814 43.0713 59.2686C42.7017 58.363 42.1241 56.967 41.5697 55.6094C41.0793 56.7414 40.6265 57.9862 40.2153 59.1558" fill="#FFDD00"/>
</svg>
