<svg width="80" height="80" viewBox="0 0 80 80" fill="none" xmlns="http://www.w3.org/2000/svg">
<path d="M40.0004 10.4004C23.6532 10.4004 10.4004 23.6532 10.4004 40.0004C10.4004 56.3476 23.6532 69.6004 40.0004 69.6004C56.3476 69.6004 69.6004 56.3484 69.6004 40.0004C69.6004 23.6524 56.3484 10.4004 40.0004 10.4004Z" fill="#2A6CFF"/>
<path d="M40.0009 11.8809C24.4705 11.8809 11.8809 24.4705 11.8809 40.0009C11.8809 55.5313 24.4705 68.1209 40.0009 68.1209C55.5313 68.1209 68.1209 55.5313 68.1209 40.0009C68.1209 24.4705 55.5313 11.8809 40.0009 11.8809Z" fill="white"/>
<path d="M39.9999 13.2119C25.2055 13.2119 13.2119 25.2055 13.2119 39.9999C13.2119 54.7943 25.2055 66.7879 39.9999 66.7879C54.7943 66.7879 66.7879 54.7943 66.7879 39.9999C66.7879 25.2055 54.7943 13.2119 39.9999 13.2119ZM39.9999 56.7239C30.7631 56.7239 23.2759 49.2375 23.2759 39.9999C23.2759 30.7623 30.7639 23.2759 39.9999 23.2759C49.2359 23.2759 56.7239 30.7639 56.7239 39.9999C56.7239 49.2359 49.2375 56.7239 39.9999 56.7239Z" fill="#ED0037"/>
<path d="M25.2965 44.5511C25.9989 46.8199 27.1781 48.8095 28.6901 50.4439V43.5015L24.7685 37.7719C24.4445 39.9743 24.5949 42.2823 25.2973 44.5511M33.2141 50.0487V42.1015L28.7245 35.5431V29.5271C27.8933 30.4239 27.1741 31.4127 26.5797 32.4727L28.6893 35.5543V43.5023L33.1789 50.0607V53.7951C34.2677 54.3335 35.4197 54.7439 36.6125 55.0151L33.2141 50.0503V50.0487ZM37.7381 40.7007L42.2277 47.2591V55.2071L37.7381 48.6487V40.7007L33.2485 34.1423V26.1951L37.7381 32.7535V40.7015V40.7007ZM42.2629 39.3007L37.7733 32.7423V24.7951L42.2629 31.3535V39.3007L46.7517 45.8591V53.8071L42.2621 47.2487V39.3007H42.2629ZM35.4501 25.2967C33.1581 26.0063 31.1509 27.2023 29.5061 28.7367L33.2141 34.1535V42.1015L37.7037 48.6599V55.2239C39.9269 55.5607 42.2589 55.4143 44.5517 54.7047C46.8437 53.9951 48.8509 52.7991 50.4949 51.2647L46.7869 45.8479V37.9007L42.2973 31.3423V24.7783C40.0741 24.4415 37.7421 24.5879 35.4501 25.2967ZM51.3117 44.4479V36.4999L46.8221 29.9415V26.2071C45.7333 25.6687 44.5813 25.2583 43.3885 24.9871L46.7869 29.9519V37.8999L51.2765 44.4583V50.4743C52.1077 49.5775 52.8269 48.5879 53.4205 47.5287L51.3117 44.4471V44.4479ZM54.7045 35.4503C54.0021 33.1815 52.8229 31.1927 51.3117 29.5575V36.4999L55.2333 42.2287C55.5573 40.0263 55.4069 37.7183 54.7045 35.4495" fill="#2A6CFF"/>
<path d="M22.0913 45.5332L22.8513 47.1516L21.6153 49.4884C21.4297 49.8356 21.2681 50.1204 21.2681 50.1204L21.2849 50.1508C21.2849 50.1508 21.6113 50.1708 22.0041 50.2044L24.6369 50.442L25.5801 51.9612L19.8913 55.2852L18.9817 53.8268L21.3625 52.4364C21.9177 52.1148 22.3369 51.8876 22.3369 51.8876L22.3201 51.8572C22.3201 51.8572 22.0321 51.8356 21.4321 51.7476L19.0081 51.3868L18.9913 51.3564L20.0097 49.1276C20.2625 48.5764 20.4017 48.3236 20.4017 48.3236L20.3849 48.2932C20.3849 48.2932 19.9665 48.5204 19.3945 48.8116L16.9313 50.05L16.2041 48.4924L22.0913 45.534V45.5332Z" fill="white"/>
<path d="M26.4522 52.7168L27.7634 53.8816L25.1298 57.0152C24.6978 57.536 24.7194 58.0824 25.373 58.5976C26.0266 59.1128 26.5634 59.0056 26.9682 58.464L29.3978 55.1696L30.8378 56.1712L28.3442 59.548C27.201 61.0976 25.7202 60.792 24.4402 59.7832C23.1602 58.7752 22.5162 57.4072 23.7546 55.9328L26.4522 52.7168ZM29.0754 54.8488L27.457 55.9792L27.4298 55.9576L28.1498 54.1192L29.0762 54.8488H29.0754Z" fill="white"/>
<path d="M31.8518 56.7412L33.5646 57.366L34.5326 60.6724C34.7422 61.3876 34.8278 61.766 34.8278 61.766L34.8774 61.7812C34.8774 61.7812 34.9894 61.29 35.1526 60.6876L35.855 58.0572L37.5278 58.4532L35.8254 64.8196L34.0526 64.394L32.9486 60.938C32.7342 60.2668 32.6454 59.842 32.6454 59.842L32.5958 59.8268C32.5958 59.8268 32.4486 60.3436 32.2622 60.9028L31.3638 63.5828L29.751 62.9876L31.851 56.7412H31.8518Z" fill="white"/>
<path d="M44.6737 62.444C44.7097 64.0056 43.7313 65.08 41.8633 65.2064C40.1161 65.3249 38.4809 64.532 38.3865 61.984C38.2897 59.4016 39.7185 58.436 41.3961 58.3216C43.2121 58.1984 44.2633 59.2136 44.4433 60.5912L42.6793 60.7104C42.5169 60.1136 42.1977 59.7616 41.4193 59.8144C40.6929 59.864 40.1825 60.5328 40.2369 61.8584C40.2961 63.2448 40.8713 63.7792 41.6841 63.724C42.4969 63.6688 42.8529 63.28 42.8913 62.5648L44.6729 62.444H44.6737Z" fill="white"/>
<path d="M45.0661 57.8897L46.7029 57.2585L47.6309 59.4833L49.6733 58.5521L48.6029 56.3921L50.1533 55.5713L53.0741 61.4793L51.5237 62.3001L50.3669 59.9505L48.2293 60.9249L49.2437 63.3393L47.6077 63.9705L45.0685 57.8985L45.0645 57.8905L45.0661 57.8897Z" fill="white"/>
<path d="M51.1885 54.7968L54.3429 51.7744L55.3581 52.7712L53.3805 54.6664L54.1349 55.504L56.0501 53.6688L57.0413 54.64L55.0637 56.5352L55.8845 57.4544L58.1125 55.3192L59.1277 56.316L55.5981 59.6984L51.1901 54.7976L51.1885 54.7968Z" fill="white"/>
<path d="M55.1309 50.8396L56.0365 49.2572L59.4589 48.862C60.1989 48.7764 60.5869 48.7564 60.5869 48.7564L60.6101 48.71C60.6101 48.71 60.1445 48.5164 59.5789 48.2532L57.1045 47.1156L57.7773 45.5332L63.7653 48.2876L63.0461 49.9628L59.4533 50.466C58.7557 50.5636 58.3213 50.5796 58.3213 50.5796L58.2981 50.626C58.2981 50.626 58.7829 50.858 59.3029 51.1364L61.7925 52.4748L60.9333 53.9644L55.1317 50.838L55.1309 50.8396Z" fill="white"/>
<path d="M17.4431 29.0234L18.7655 29.5466L17.7095 32.473L18.9439 32.8818L19.9319 30.1426L21.2215 30.6538L20.2623 33.3114L22.5711 34.0618L22.0751 35.7434L15.7607 33.6858L17.4431 29.0234Z" fill="white"/>
<path d="M25.5168 24.6739C26.656 25.7067 26.8528 27.1211 25.7136 28.5627C24.6712 29.8819 23.0672 30.5147 20.992 28.9747C18.944 27.4563 19.2152 25.6595 20.3 24.2859C21.4496 22.8307 22.916 22.7083 24.0544 23.5187L22.9584 24.9059C22.4232 24.6043 21.9216 24.6387 21.4216 25.2715C20.9168 25.9107 21.032 26.6867 22.1416 27.5195C23.2032 28.3139 24.0328 28.2851 24.4952 27.7003C24.9896 27.0747 24.8928 26.5675 24.4096 26.0755L25.5168 24.6747V24.6739Z" fill="white"/>
<path d="M29.8492 17.2143C31.014 16.6759 32.1532 16.5599 32.6556 17.7503C33.0676 18.7247 32.8068 19.1511 32.2972 19.5775L32.3156 19.6167C32.8588 19.4895 33.5868 19.5159 34.05 20.6007C34.6068 21.9095 33.754 22.6663 32.5892 23.2047L30.1268 24.3431L27.1748 18.4503L29.85 17.2143H29.8492ZM30.838 19.6023C31.294 19.3911 31.4252 19.1783 31.2412 18.7383C31.0644 18.3143 30.7628 18.2815 30.322 18.4847L29.3388 18.9391L29.8948 20.0383L30.8388 19.6023H30.838ZM31.9508 22.0103C32.454 21.7775 32.5924 21.5799 32.3788 21.0775C32.1796 20.6063 31.8316 20.5951 31.3276 20.8279L30.478 21.2207L31.0772 22.4143L31.9508 22.0103Z" fill="white"/>
<path d="M41.8363 21.544L39.9659 21.54L39.4291 20.3592L37.1667 20.5536L36.8395 21.808L34.9971 22.132L36.8235 15.2416L38.8619 15.0664L41.8371 21.544H41.8363ZM38.9203 19.0896L38.3579 17.8072C38.1635 17.3712 38.0171 16.984 38.0171 16.984L37.9827 16.9872C37.9827 16.9872 37.9043 17.3944 37.7875 17.8568L37.4523 19.2168L38.9203 19.0904V19.0896Z" fill="white"/>
<path d="M43.5011 19.61L41.9707 14.9316L43.9467 15.3076L44.5451 17.2916C44.6579 17.6708 44.7571 18.074 44.7571 18.074L44.7907 18.0812C44.7907 18.0812 45.0475 17.7556 45.3075 17.4572L46.6747 15.9004L48.6291 16.378L45.2971 20.0004L44.7867 22.1868L43.0587 21.8116L43.5011 19.6108V19.61Z" fill="white"/>
<path d="M49.9411 16.945L54.0891 19.2226L53.3667 20.4474L50.8067 19.0418L50.2947 20.0458L52.6571 21.3434L51.9515 22.5378L49.6651 21.2818L49.1035 22.377L51.5955 23.745L50.8731 24.9698L46.9531 22.817L49.9411 16.9434V16.945Z" fill="white"/>
<path d="M56.3838 21.0067L58.3958 23.1595C59.4254 24.2611 59.6718 25.3243 58.4454 26.3987C57.6622 27.0835 57.091 27.2723 56.4014 27.0043L55.3494 29.6603L54.107 28.1403L55.0694 25.9715L54.495 25.3571L52.947 26.8987L51.6758 25.6907L56.3838 21.0059V21.0067ZM55.479 24.3795L56.1598 25.1075C56.5382 25.5131 56.8566 25.5235 57.2806 25.1515C57.6974 24.7859 57.691 24.4355 57.3126 24.0307L56.5966 23.2643L55.4798 24.3795H55.479Z" fill="white"/>
<path d="M58.0454 35.7311L57.4438 34.0103L59.3886 31.1671C59.8046 30.5631 60.0478 30.2463 60.0478 30.2463L60.0278 30.1983C60.0278 30.1983 59.5766 30.4231 59.007 30.6783L56.527 31.8007L55.7734 30.2551L61.7774 27.5391L62.571 29.1799L60.5966 32.2231C60.2174 32.8023 59.9406 33.1519 59.9406 33.1519L59.9606 33.1999C59.9606 33.1999 60.4534 32.9863 61.0046 32.7759L63.647 31.7735L64.2086 33.3983L58.0454 35.7295V35.7311Z" fill="white"/>
</svg>
