<svg width="80" height="80" viewBox="0 0 80 80" fill="none" xmlns="http://www.w3.org/2000/svg">
<path d="M10.4004 40.0004C10.4004 23.6524 23.6524 10.4004 40.0004 10.4004C56.3484 10.4004 69.6004 23.6524 69.6004 40.0004C69.6004 56.3484 56.3484 69.6004 40.0004 69.6004C23.6524 69.6004 10.4004 56.3484 10.4004 40.0004Z" fill="#604734"/>
<path d="M11.7324 40.0004C11.7324 24.3884 24.3884 11.7324 40.0004 11.7324C55.6124 11.7324 68.2684 24.3884 68.2684 40.0004C68.2684 55.6124 55.6124 68.2684 40.0004 68.2684C24.3884 68.2684 11.7324 55.6124 11.7324 40.0004Z" fill="white"/>
<path d="M22.5361 40.0001C22.5361 30.3553 30.3545 22.5361 40.0001 22.5361C49.6457 22.5361 57.4641 30.3553 57.4641 40.0001C57.4641 49.6449 49.6457 57.4641 40.0001 57.4641C30.3545 57.4641 22.5361 49.6457 22.5361 40.0001Z" fill="#EC1C24"/>
<path d="M21.7416 49.6778H20.4752L19.8344 48.5762L19.2016 49.6698H17.9512L18.584 50.7562L17.9512 51.8498H19.2168L19.8504 52.9354L20.4912 51.8498H21.7336L21.1008 50.7714L21.7416 49.6778Z" fill="#604734"/>
<path d="M62.1459 49.6778H60.8795L60.2387 48.5762L59.6059 49.6698H58.3555L58.9883 50.7562L58.3555 51.8498H59.6211L60.2547 52.9354L60.8955 51.8498H62.1379L61.5051 50.7714L62.1459 49.6778Z" fill="#604734"/>
<path d="M49.3351 28.6778H48.0687L47.4279 27.5762L46.7951 28.6698H45.5439L46.1775 29.7554L45.5439 30.8498H46.8103L47.4431 31.9354L48.0847 30.8498H49.3271L48.6943 29.7714L49.3351 28.6778Z" fill="white"/>
<path d="M40.4255 29.4716C41.7935 29.5588 42.7839 30.5892 42.8895 31.9356H37.2031C37.3031 30.5884 38.2983 29.558 39.6671 29.4716V26.818L37.9615 26.8212V26.0572L39.6671 26.0596V23.7852H40.4255V26.0596H42.1311V26.8212L40.4255 26.818V29.4716Z" fill="white"/>
<path d="M29.4336 32.6943H35.8776V33.8311H29.4336V32.6943Z" fill="white"/>
<path d="M36.8252 32.6943H43.2692V33.8311H36.8252V32.6943Z" fill="white"/>
<path d="M44.2168 32.6943H50.6608V33.8311H44.2168V32.6943Z" fill="white"/>
<path d="M29.4336 39.8965H50.6616V41.0333H29.4336V39.8965Z" fill="white"/>
<path d="M29.4336 46.1504H35.12V47.2872H29.4336V46.1504Z" fill="white"/>
<path d="M44.9756 46.1504H50.6612V47.2872H44.9756V46.1504Z" fill="white"/>
<path d="M30.2041 34.7242C30.7569 34.5586 31.6521 34.2818 32.3177 34.669C32.6513 34.8634 32.4433 35.1882 32.3329 35.4882C31.9665 35.7642 31.6737 35.8602 31.2153 35.8546C30.8017 35.8498 30.5449 35.7674 30.2041 35.533C30.0929 35.2386 29.8401 34.8346 30.2041 34.725V34.7242Z" fill="white"/>
<path d="M33.2037 35.6363C33.2037 35.6363 32.9733 34.9971 33.2045 34.7291C33.4581 34.4355 33.8413 34.6691 34.1973 34.6691C34.4525 34.6691 34.5957 34.7011 34.8509 34.6747C34.8509 34.6747 35.0397 35.3131 34.8509 35.6371C34.5269 36.1915 33.2045 35.6371 33.2045 35.6371L33.2037 35.6363Z" fill="white"/>
<path d="M30.5378 36.3105C30.3082 36.5449 30.2234 36.6089 30.2074 37.0345C30.1914 37.4585 30.3146 37.7089 30.6226 37.7089C30.7186 37.7089 30.773 37.7049 30.8682 37.6945C30.8682 37.4025 30.8842 37.1689 30.8842 36.8769C30.8842 36.6057 30.7986 36.3849 30.5378 36.3105Z" fill="white"/>
<path d="M37.6334 36.3418C37.5694 36.6178 37.5886 36.7946 37.5886 37.0762C37.5886 37.337 37.5942 37.6746 37.8542 37.6874C38.3094 37.7098 38.2774 36.9962 38.2774 36.6562C38.2774 36.3642 37.9254 36.3626 37.6326 36.3418H37.6334Z" fill="white"/>
<path d="M37.335 34.9417C37.335 35.1225 37.5798 35.3641 37.7126 35.4761C37.9622 35.6937 38.1694 35.6649 38.499 35.6649C38.6846 35.6649 38.895 35.6337 39.0814 35.6337C39.4694 35.6337 39.711 35.3457 39.711 34.9577C39.711 34.6177 39.2102 34.4961 38.8702 34.4961H38.0518C37.7542 34.4961 37.335 34.5017 37.335 34.9425V34.9417Z" fill="white"/>
<path d="M40.3861 35.6023C40.5085 35.7247 40.6357 35.6807 40.8109 35.6807H41.3773C41.6957 35.6807 41.8781 35.7175 42.1229 35.5151C42.3301 35.3447 42.2269 35.1655 42.2269 34.8943C42.2269 34.6231 41.6781 34.5135 41.2781 34.5023C40.9421 34.4927 40.6621 34.4767 40.4493 34.7367C40.2349 34.9983 40.3853 35.6015 40.3853 35.6015L40.3861 35.6023Z" fill="white"/>
<path d="M31.4315 36.6719C31.4315 36.8791 31.3643 37.1287 31.3643 37.3359C31.3643 37.5855 31.9283 37.6583 32.1731 37.6951C32.5819 37.7535 32.8627 37.7303 33.2771 37.7303C33.6171 37.7303 33.9363 37.4855 33.9363 37.1455C33.9363 36.8959 33.9947 36.6935 33.8299 36.5079C33.6171 36.2631 33.3627 36.2687 33.0331 36.2319C32.4595 36.1679 31.6123 36.1247 31.4315 36.6719Z" fill="white"/>
<path d="M38.8343 36.672C38.7647 36.9464 38.7871 37.1544 38.9439 37.3904C39.1807 37.7472 39.4463 37.7112 39.9943 37.7112C40.5423 37.7112 41.3471 37.444 41.2679 36.7048C41.2431 36.472 40.7679 36.396 40.4807 36.3272C40.4807 36.3272 38.9943 36.036 38.8343 36.6728V36.672Z" fill="white"/>
<path d="M41.7192 37.0711C41.7192 37.3743 41.6296 37.7415 42.0072 37.7415C42.3848 37.7415 42.3968 37.5719 42.3968 37.2799C42.3968 37.0303 42.6744 36.3303 42.2864 36.2847C42.1032 36.2631 41.9744 36.3207 41.844 36.4503C41.6696 36.6247 41.72 36.8215 41.72 37.0711H41.7192Z" fill="white"/>
<path d="M44.749 35.135C44.749 35.7086 45.2266 35.9422 46.125 35.8846C46.6234 35.8526 47.1786 35.9134 47.0938 34.9582C47.0842 34.8526 47.1762 34.7542 47.093 34.6926C46.469 34.227 46.3922 34.6878 45.941 34.6878C45.4898 34.6878 44.7498 34.6734 44.7498 35.135H44.749Z" fill="white"/>
<path d="M47.9902 34.9581V35.3621C47.9902 35.7021 48.1854 36.1157 48.5262 36.1157C48.675 36.1157 48.8806 36.0869 49.0294 36.0869C49.5238 36.0869 49.855 35.6429 49.855 35.1493C49.855 34.8885 49.5054 34.7029 49.255 34.6445L48.4822 34.7293L48.075 34.7509C48.0006 34.7773 47.9902 34.8733 47.9902 34.9581Z" fill="white"/>
<path d="M45.2999 36.3047C44.9527 36.6231 44.9375 36.6967 44.9375 37.1591C44.9375 37.2279 44.9663 37.6079 44.9663 37.6767C45.0407 37.6767 45.1959 37.7055 45.2703 37.7055C45.5623 37.7055 45.6615 37.3063 45.6615 37.0143C45.6615 36.7223 45.5599 36.4591 45.2991 36.3047H45.2999Z" fill="white"/>
<path d="M46.1257 37.0039C46.1441 37.1087 46.2585 37.3175 46.4153 37.4583C46.7097 37.7231 47.0441 37.6623 47.4105 37.6623C47.7769 37.6623 48.3257 37.4847 48.3609 36.9487C48.3897 36.5151 47.5321 36.3047 47.1497 36.3047C46.7353 36.3047 46.0321 36.4711 46.1257 37.0039Z" fill="white"/>
<path d="M47.9473 38.5838C47.9473 39.0622 48.4785 39.2854 48.9569 39.2854C49.1857 39.2854 49.2761 39.1262 49.4673 39.0094C49.6425 38.903 49.8289 38.8126 49.8289 38.6054C49.8289 38.2654 49.4785 38.0742 49.1385 38.0742C48.6337 38.0742 47.9481 38.0798 47.9481 38.5846L47.9473 38.5838Z" fill="white"/>
<path d="M46.7577 39.2844C47.0649 39.0828 47.3746 38.6132 47.077 38.398C46.8882 38.2612 46.6026 38.414 46.4802 38.414C46.2674 38.414 46.1337 38.2996 45.9033 38.2868C45.5449 38.2676 45.1906 38.1676 45.0018 38.4732C44.9354 38.5812 44.9074 38.7156 44.9074 38.7852C44.9074 39.0612 44.8978 39.186 45.0458 39.3644C45.3026 39.6732 45.6714 39.3708 46.0754 39.3708C46.325 39.3708 46.5322 39.4316 46.7562 39.2844H46.7577Z" fill="white"/>
<path d="M42.0169 39.2851C41.7729 39.3227 41.6225 39.3315 41.3777 39.3315C41.0057 39.3315 40.7641 39.2531 40.4649 39.0723C40.3857 39.0163 40.3857 38.9291 40.3857 38.7803C40.3857 38.3707 41.1409 38.2451 41.5505 38.2451C41.9385 38.2451 42.2289 38.3659 42.2289 38.7539C42.2289 38.9667 42.1441 39.1155 42.0161 39.2851H42.0169Z" fill="white"/>
<path d="M38.8606 38.3398C38.627 38.3398 38.459 38.3502 38.2254 38.3502C37.907 38.3502 37.3662 38.3518 37.3662 38.6702C37.3662 39.0846 37.7534 39.111 38.1678 39.111H38.9862C39.3742 39.111 39.6942 39.0422 39.6942 38.6542C39.6942 38.4838 39.4678 38.371 39.2982 38.371C39.1126 38.371 39.0462 38.3398 38.8606 38.3398Z" fill="white"/>
<path d="M34.1406 39.3319H33.2446C33.255 39.2047 32.9814 39.1343 32.9814 39.0063C32.9814 38.8631 33.0942 38.7479 33.2142 38.6191C33.6454 38.1575 34.2494 38.6591 34.8334 38.6591C34.8334 38.7391 34.8494 38.9063 34.8494 38.9863C34.8494 39.1087 34.683 39.1799 34.5822 39.2383C34.3694 39.3711 34.3966 39.3327 34.1414 39.3327L34.1406 39.3319Z" fill="white"/>
<path d="M31.9284 39.2856C31.2164 39.2856 31.1348 39.3536 30.4276 39.3C30.4276 39.2632 30.2252 38.9504 30.2228 38.8432C30.2156 38.4232 30.4796 38.4024 30.8996 38.4024C31.4308 38.4024 32.2836 38.1232 32.2836 38.6544C32.2836 38.8936 32.1668 39.2848 31.9276 39.2848L31.9284 39.2856Z" fill="white"/>
<path d="M30.1758 42.2732C30.2254 42.77 30.9198 42.5836 31.4198 42.5836C31.8238 42.5836 32.0734 42.6948 32.4558 42.5628C32.7374 42.4668 32.7958 42.1804 32.7958 41.8828C32.7958 41.734 32.559 41.6604 32.4102 41.6444C31.9958 41.602 31.891 41.69 31.5294 41.4876C31.083 41.238 30.1126 41.6444 30.1758 42.274V42.2732Z" fill="white"/>
<path d="M33.669 41.6438C33.3482 41.8838 33.689 42.5566 34.1402 42.5566C34.3418 42.5566 34.8346 42.5446 35.0362 42.5446C35.185 42.5446 35.2818 42.5566 35.4306 42.5566H36.1698C36.5474 42.5566 36.9706 42.3774 36.925 41.8798C36.8986 41.5886 36.4546 41.6094 36.1626 41.6094C35.6474 41.6094 35.3482 41.659 34.833 41.659H34.3138C34.0426 41.659 33.8706 41.4926 33.669 41.643V41.6438Z" fill="white"/>
<path d="M30.1699 43.2888C29.8811 43.4688 30.2059 43.8472 30.1915 44.1608C30.1755 44.4912 30.4355 44.444 30.6163 44.444C30.8875 44.444 31.1355 44.3216 31.1355 44.0504C31.1355 43.6096 30.9467 43.2168 30.5059 43.2168C30.4099 43.2168 30.2835 43.2176 30.1699 43.2888Z" fill="white"/>
<path d="M34.8328 43.7878C34.8328 44.0326 35.056 44.2126 35.3 44.2126C35.6984 44.2126 35.9176 43.767 35.9808 43.327C35.752 43.1142 35.4136 43.2958 35.1 43.2958C34.8664 43.2958 34.832 43.5534 34.832 43.7878H34.8328Z" fill="white"/>
<path d="M33.2119 45.2152C33.2119 45.4752 33.4239 45.5775 33.6839 45.5775C34.0455 45.5775 34.4615 45.6888 34.7431 45.4704C34.9343 45.3216 34.9343 45.1144 34.9343 44.8696C34.9343 44.7736 34.9263 44.7584 34.8159 44.68C34.7575 44.68 34.4967 44.6327 34.4383 44.6327C33.8063 44.6327 33.2119 44.5832 33.2119 45.2152Z" fill="white"/>
<path d="M32.8703 43.0778C32.6351 43.0978 32.5183 43.2666 32.2951 43.2666C32.0031 43.2666 31.5455 43.1698 31.5767 43.673C31.6095 44.1978 31.9375 44.4434 32.7719 44.4434C33.4799 44.4434 34.0431 44.1746 34.0431 43.6066C34.0431 43.1282 33.3703 43.0346 32.8703 43.0778Z" fill="white"/>
<path d="M42.9248 41.6528C43.5144 41.076 45.156 41.6528 46.5848 41.6528C46.8608 41.6528 47.1984 41.9344 47.1984 42.2112C47.1984 42.5408 46.6472 42.5736 46.3176 42.5736H43.7216C43.2224 42.5736 42.8248 42.432 42.9448 41.7544C42.9512 41.7176 42.896 41.6816 42.924 41.6536L42.9248 41.6528Z" fill="white"/>
<path d="M47.9902 41.6571V42.2147C47.9902 42.4115 47.8758 42.6027 48.3622 42.5707C48.643 42.5523 48.8214 42.5555 49.103 42.5555H49.5278C49.8198 42.5555 49.871 42.1403 49.871 41.8483C49.871 41.7099 49.7062 41.6835 49.5734 41.6571C49.3182 41.6043 49.1694 41.5723 48.9038 41.5723C48.5478 41.5723 48.3462 41.6571 47.9902 41.6571Z" fill="white"/>
<path d="M44.2842 43.5223C44.385 44.0271 44.7434 44.4287 45.2482 44.4287C45.657 44.4287 45.8042 43.9311 45.9314 43.5439C45.9314 43.5439 45.4714 43.1991 45.1298 43.1887C44.7754 43.1783 44.2842 43.5223 44.2842 43.5223Z" fill="white"/>
<path d="M46.6009 43.2806C46.4393 43.403 46.3809 43.5398 46.3809 43.7518C46.3809 43.9638 46.4001 44.2054 46.5681 44.4142C46.9033 44.8302 47.3905 44.4126 47.9377 44.4126C48.3257 44.4126 48.5041 44.0662 48.4569 43.5006C48.4305 43.1878 48.0001 43.2454 47.6865 43.2454H47.2241C47.2241 43.2454 46.7945 43.1326 46.6009 43.2798V43.2806Z" fill="white"/>
<path d="M49.1649 43.5795V44.0819C49.1649 44.3107 49.4809 44.4035 49.7089 44.4035C49.7833 44.4035 49.8313 44.3931 49.9057 44.3819C49.9057 44.3819 50.2017 43.9099 50.0873 43.6315C50.0001 43.4195 49.7465 43.2451 49.6449 43.2451C49.4537 43.2451 49.2865 43.4403 49.1641 43.5787L49.1649 43.5795Z" fill="white"/>
<path d="M49.8262 44.8848C49.4806 44.8848 49.2046 44.8968 48.859 44.8968C48.439 44.8968 47.8438 44.8384 47.8438 45.2584C47.8438 45.4496 48.0302 45.5872 48.1894 45.688C48.3598 45.7944 48.3438 45.7984 48.551 45.7984C48.7902 45.7984 49.0982 45.8256 49.3214 45.7512C49.4806 45.6984 49.7134 45.6688 49.8254 45.5464C49.9582 45.4032 49.8574 45.0816 49.8254 44.8856L49.8262 44.8848Z" fill="white"/>
<path d="M48.0015 47.8893C47.7679 48.0973 47.9943 48.4693 48.1591 48.6765C48.3295 48.8893 48.5799 48.7477 48.8559 48.7477C49.0151 48.7477 49.1479 48.7829 49.3071 48.7869C49.8735 48.8029 49.8071 48.2797 49.8287 47.8765C49.8287 47.8765 48.4719 47.4709 48.0015 47.8901V47.8893Z" fill="white"/>
<path d="M45.9347 48.793C45.6323 48.7834 45.4491 48.7682 45.2795 48.5186C45.1891 48.3858 45.0635 48.1554 45.0635 47.9906V47.8258C45.1115 47.8202 45.1379 47.8042 45.1859 47.8042C45.5787 47.8042 45.7323 47.7578 46.1259 47.7578C46.4019 47.7578 46.6259 47.8682 46.9027 47.8682C47.0355 47.8682 47.2635 48.0866 47.2627 48.2194C47.2579 48.8818 46.6803 48.8178 45.9363 48.793H45.9347Z" fill="white"/>
<path d="M45.2945 49.2742C45.1401 49.5398 44.9801 49.7526 44.9801 50.0614C44.9801 50.295 44.9057 50.4998 45.5625 50.4222C45.7521 50.3998 45.9873 50.5166 45.9985 50.127C46.0097 49.739 45.7225 49.2294 45.2945 49.2742Z" fill="white"/>
<path d="M46.3975 49.8724C46.3975 50.1908 46.4759 50.4699 47.0103 50.4379C47.2327 50.4251 47.7343 50.4379 47.7343 50.4379C47.7343 50.4379 48.1231 50.4564 48.3303 50.3556C48.5215 50.2596 48.6943 50.1532 48.6943 49.9356C48.6943 49.718 48.4775 49.6475 48.3639 49.4635C48.2383 49.2587 47.6559 49.2188 47.2679 49.2188C46.8591 49.2188 46.3975 49.4636 46.3975 49.8724Z" fill="white"/>
<path d="M49.2758 49.29C49.2758 49.29 48.9214 49.8132 49.0798 50.094C49.1846 50.2796 49.443 50.398 49.5334 50.398C49.7406 50.398 49.9526 50.2916 49.9638 50.0844C49.9998 49.4004 49.6878 49.2084 49.2758 49.29Z" fill="white"/>
<path d="M45.0632 51.358V51.4908C45.0632 51.6876 45.0368 51.8252 45.1272 51.9956C45.3288 52.3836 45.7968 52.2508 46.2376 52.2508C46.6096 52.2508 47.1568 52.3676 47.1568 51.9956C47.1568 51.7196 47.1992 51.5228 47.0504 51.294C46.88 51.034 46.5336 51.162 46.2232 51.13C45.5008 51.0572 45.468 51.1772 45.0632 51.3572V51.358Z" fill="white"/>
<path d="M48.0013 51.1459C47.9373 51.4435 47.7773 51.5651 47.7773 51.8675C47.7773 52.1859 48.0645 52.3411 48.5053 52.2499C48.7917 52.1907 49.0317 52.3507 49.2541 52.1651C49.5733 51.8939 49.5997 51.6283 49.6685 51.2083C49.5413 51.1603 49.3813 51.0811 49.2429 51.0811C49.1045 51.0811 49.0253 51.1235 48.8869 51.1235C48.5469 51.1235 48.3629 51.0979 48.0005 51.1459H48.0013Z" fill="white"/>
<path d="M47.0757 52.7959C46.6789 52.9551 46.3965 53.0655 46.3965 53.4431C46.3965 53.7463 46.7621 53.7103 47.0645 53.7103C47.5429 53.7103 48.1109 53.4591 48.0165 52.9399C47.9877 52.7831 47.7869 52.7119 47.6277 52.7119C47.3885 52.7119 47.3141 52.7599 47.0749 52.7967L47.0757 52.7959Z" fill="white"/>
<path d="M44.9991 53.3489C44.9991 53.7369 44.9799 54.1833 45.4879 54.2201C45.8055 54.2433 45.9399 53.8249 45.9399 53.5057C45.9399 53.3409 45.8711 53.237 45.8711 53.0722C45.7383 52.8858 45.5575 52.6313 45.3607 52.7537C45.1319 52.8921 44.9991 53.0777 44.9991 53.3489Z" fill="white"/>
<path d="M32.3472 52.7352C32.0232 52.7352 31.5928 52.7728 31.5928 53.0968C31.5928 53.5752 32.0952 53.7264 32.832 53.6672C33.0912 53.6464 33.4496 53.8048 33.4592 53.4336C33.4712 52.9768 32.8048 52.7344 32.348 52.7344L32.3472 52.7352Z" fill="white"/>
<path d="M34.124 50.8633C33.9488 50.9801 33.4976 51.0785 33.2904 51.0993C33.0616 51.1257 32.9912 51.3273 32.9912 51.5561C32.9912 51.7577 33.0072 51.9681 33.0072 52.1697C33.1664 52.3289 33.3712 52.2513 33.5944 52.2513C33.8176 52.2513 33.9952 52.3105 34.2184 52.3105C34.4784 52.3105 34.688 52.1649 34.7472 51.9113C34.8632 51.4145 34.6904 51.1153 34.124 50.8633Z" fill="white"/>
<path d="M30.8881 52.2504C30.6593 52.2504 30.4097 52.3304 30.3193 52.1232C30.2025 51.8472 30.2345 51.656 30.2345 51.3528C30.2345 51.2624 30.2449 51.2144 30.2561 51.124H32.0257C32.2545 51.124 32.4777 51.2784 32.4777 51.5064C32.4777 51.9104 32.2161 52.2784 31.8129 52.2784C31.4785 52.2784 31.2241 52.2504 30.8897 52.2504H30.8881Z" fill="white"/>
<path d="M32.2368 49.29C31.9608 49.29 31.796 49.6116 31.796 49.8884C31.796 50.0852 31.6648 50.2924 31.828 50.4228C32.5384 50.9892 34.596 50.4804 34.596 50.4804C34.692 50.2836 34.7616 50.0348 34.7616 49.8164C34.7616 49.3332 34.168 49.306 33.684 49.306C33.5568 49.306 32.5336 49.29 32.236 49.29H32.2368Z" fill="white"/>
<path d="M30.1443 50.4383C30.1443 50.1671 29.9395 49.9391 29.9395 49.6679C29.9395 49.4447 30.2363 49.3167 30.4579 49.2863C31.1043 49.1959 31.3155 50.1415 30.9307 50.4375C30.6875 50.6247 30.1443 50.4375 30.1443 50.4375V50.4383Z" fill="white"/>
<path d="M31.0882 48.8178C30.489 48.8066 30.1914 48.5562 30.1914 48.0938C30.1914 47.8282 30.3802 47.6386 30.7746 47.6778C31.2026 47.7202 31.4498 47.6562 31.8802 47.6562C32.1834 47.6562 32.289 48.0226 32.289 48.3258C32.289 48.7882 31.9218 48.8338 31.0882 48.8178Z" fill="white"/>
<path d="M34.2849 47.658C34.1145 47.658 34.0193 47.6644 33.8489 47.658C33.2905 47.638 33.0073 47.67 33.0073 47.9836C33.0073 48.1644 32.9913 48.3612 33.1529 48.5188C33.5089 48.5188 33.6105 48.802 33.9665 48.802C34.2849 48.802 34.6905 48.6132 34.6513 48.1364C34.6321 47.9036 34.5185 47.658 34.2849 47.658Z" fill="white"/>
<path d="M34.3448 52.7031C34.0776 52.7503 34.1184 53.1623 34.1104 53.4335C34.0936 53.9783 34.084 54.1511 34.3768 54.1511C34.488 54.1511 34.7656 54.0823 34.7624 53.8207C34.7592 53.5719 34.8848 53.4623 34.8848 53.2127C34.8848 53.0111 34.6608 52.7503 34.3456 52.7031H34.3448Z" fill="white"/>
<path d="M49.5931 37.4888H49.1299C48.9211 37.4888 48.8747 37.2024 48.8747 36.9928C48.8747 36.8176 48.8051 36.708 48.8747 36.5496C49.0331 36.192 49.8779 36.5496 49.8779 36.5496V36.976C49.8779 37.1512 49.6859 37.3464 49.5939 37.4888H49.5931Z" fill="white"/>
<path d="M34.551 28.6778H33.2846L32.6438 27.5762L32.011 28.6698H30.7598L31.3934 29.7554L30.7598 30.8498H32.0262L32.6598 31.9354L33.3006 30.8498H34.543L33.9102 29.7714L34.551 28.6778Z" fill="white"/>
<mask id="mask0_0_8411" style="mask-type:luminance" maskUnits="userSpaceOnUse" x="37" y="43" width="6" height="13">
<path d="M42.7796 54.981C41.9732 55.7138 41.0788 55.6874 40.0388 55.6882C38.7764 55.6858 38.17 55.6706 37.3164 54.981V46.1082C37.3172 44.6298 38.5092 43.4834 40.0476 43.4834C41.586 43.4834 42.778 44.6298 42.778 46.1082L42.7796 54.981Z" fill="white"/>
</mask>
<g mask="url(#mask0_0_8411)">
<path d="M42.3093 57.1855V46.0487C42.3093 44.8775 41.5061 43.9287 40.4165 43.9287C40.4133 43.9287 40.4165 54.7367 40.4165 57.1855H42.3093Z" fill="white"/>
<path d="M37.7959 57.1855V46.0487C37.7959 44.8775 38.6159 43.9287 39.6887 43.9287C39.6919 43.9287 39.6895 54.7367 39.6895 57.1855H37.7959Z" fill="white"/>
</g>
<mask id="mask1_0_8411" style="mask-type:luminance" maskUnits="userSpaceOnUse" x="36" y="42" width="8" height="14">
<path d="M43.9905 54.5381C42.8873 55.3197 41.6369 55.0173 40.1345 55.0189C38.6025 55.0141 37.2113 55.3261 36.1025 54.5381V45.9613C36.1025 43.8261 37.8249 42.1709 40.0465 42.1709C42.2681 42.1709 43.9905 43.8261 43.9905 45.9613V54.5381Z" fill="white"/>
</mask>
<g mask="url(#mask1_0_8411)">
<path fill-rule="evenodd" clip-rule="evenodd" d="M43.0657 57.1861C41.9961 57.1901 38.2713 57.1901 37.0297 57.1861V46.0213C37.0297 44.3877 38.3473 43.1213 40.0473 43.1213C41.7473 43.1213 43.0641 44.3877 43.0641 46.0213L43.0657 57.1861ZM43.9905 54.8693C42.8873 55.6509 41.5489 56.2325 40.0465 56.2341C38.5145 56.2293 37.2113 55.6573 36.1025 54.8693V45.9613C36.1025 43.8261 37.8249 42.1709 40.0465 42.1709C42.2681 42.1709 43.9905 43.8261 43.9905 45.9613V54.8693Z" fill="white"/>
</g>
<path d="M34.2994 37.2085C34.2994 37.2885 34.409 37.4965 34.409 37.5757C34.409 37.6285 34.5882 37.5813 34.641 37.5813C34.7842 37.5813 34.8962 37.4541 34.8962 37.3101C34.8962 36.9965 35.1602 36.7269 34.9946 36.2845C34.9098 36.0573 34.577 36.1549 34.373 36.2861C34.2514 36.6261 34.2994 36.9061 34.2994 37.2085Z" fill="white"/>
<path d="M29.9561 45.4669C29.9721 45.7029 30.6169 45.6653 30.9249 45.6861C31.4457 45.7285 31.3705 45.5765 31.8913 45.5765C32.0241 45.5765 32.5201 45.6021 32.5201 45.4693C32.5201 45.0917 32.2689 44.8997 31.6553 44.8837C30.4417 44.8525 30.1921 45.0093 29.9561 45.4661V45.4669Z" fill="white"/>
<path d="M47.3064 45.1938C47.0888 44.7898 46.7168 44.8746 46.3128 44.8746C46.1 44.8746 45.8544 44.9002 45.6416 44.9002C45.4288 44.9002 45.2168 45.0074 45.2168 45.2146C45.2168 45.385 45.3568 45.4602 45.5 45.545C45.7072 45.6722 47.2464 45.6082 47.3064 45.193V45.1938Z" fill="white"/>
<path fill-rule="evenodd" clip-rule="evenodd" d="M42.8698 20.6423L43.0674 18.3815C44.845 18.5831 46.1018 18.1399 46.2586 16.3463C46.417 14.5343 45.0842 13.8823 43.2922 13.7255L41.4194 13.5615L40.8154 20.4623L42.869 20.6423H42.8698ZM44.1866 16.1367C44.1418 16.6495 43.7642 16.9023 43.2034 16.8255L43.3426 15.2327L43.4946 15.2367C43.9978 15.2807 44.225 15.6975 44.1866 16.1367Z" fill="#665143"/>
<path d="M51.296 23.8363L52.9392 16.9163L50.6872 15.7939L45.96 21.1763L47.8592 22.1227L48.4104 21.4019L49.6496 22.0195L49.388 22.8843L51.296 23.8355V23.8363ZM49.3112 20.2091L50.2816 18.8971C50.5464 18.5467 50.7888 18.1747 51.0352 17.8155L51.0536 17.8243C50.9064 18.2331 50.7456 18.6459 50.6072 19.0595L50.0888 20.5971L49.3112 20.2091Z" fill="#604734"/>
<path d="M20.8499 36.1798L18.2347 35.7182L18.4907 34.2654L16.8803 33.9814L16.6243 35.4342L15.6379 35.2606L15.9115 33.7078L14.3011 33.4238L13.6699 37.007L20.4915 38.2094L20.8499 36.1798Z" fill="#604734"/>
<path d="M17.073 26.8594C16.8154 27.1026 16.6138 27.397 16.4482 27.721C15.9938 28.6122 15.3962 30.9394 18.1626 32.349C20.2746 33.425 21.9658 32.6762 22.7322 31.1722C22.9386 30.7674 23.0346 30.3962 23.0754 29.9522L21.4034 28.9642C21.4978 29.3866 21.5122 29.7226 21.301 30.137C20.833 31.0554 19.797 30.8226 19.0762 30.4554C18.397 30.109 17.5586 29.3874 18.045 28.433C18.2378 28.0546 18.4786 27.9058 18.841 27.761L17.073 26.8602V26.8594Z" fill="#604734"/>
<path d="M58.5871 33.939L60.0807 33.2742L59.4519 31.8614L64.2855 29.7094L63.4471 27.8262L57.1191 30.6438L58.5871 33.939Z" fill="#604734"/>
<path d="M59.7014 22.3455L56.511 25.3207C56.383 25.4399 56.2158 25.6103 56.0334 25.6975C55.8646 25.7855 55.6678 25.7903 55.4678 25.5759C55.275 25.3687 55.2926 25.1727 55.3926 24.9967C55.4854 24.8271 55.667 24.6719 55.8014 24.5463L58.9854 21.5775L57.5798 20.0703L54.2686 23.1583C53.6574 23.7279 52.5662 25.0223 54.1918 26.7663C55.8182 28.5103 57.1846 27.5119 57.7958 26.9415L61.107 23.8535L59.7014 22.3463V22.3455Z" fill="#604734"/>
<path d="M35.6855 21.1084C36.2871 20.9012 36.6351 20.2956 36.4463 19.7484C36.2463 19.1668 35.5831 18.9188 34.9623 19.1324C34.3983 19.3268 34.0671 19.946 34.2495 20.4756C34.4407 21.0316 35.0743 21.3188 35.6855 21.1084Z" fill="#604734"/>
<path d="M32.9005 21.8088L30.6869 17.0632L31.7589 16.5632L31.0445 15.0312L27.0781 16.8808L27.7933 18.4128L28.8189 17.9344L31.0317 22.68L32.9005 21.8088Z" fill="#604734"/>
<path d="M26.041 25.9591C26.5306 25.7879 27.0058 25.5215 27.4082 25.1831C28.5074 24.2607 28.605 22.8359 27.7778 21.8503C27.441 21.4495 27.1042 21.2519 26.7178 21.1687C26.3386 21.0791 25.9106 21.1023 25.4002 21.1711C25.2618 21.1791 25.0866 21.2063 24.9306 21.1935C24.7746 21.1807 24.6226 21.1407 24.5274 21.0279C24.3562 20.8239 24.4802 20.5159 24.6658 20.3599C25.0298 20.0543 25.3786 19.9135 25.8538 19.8503L24.721 18.5391C24.2522 18.6567 23.753 18.8951 23.3738 19.2135C22.0266 20.3439 22.5378 21.8335 23.0578 22.4527C23.3826 22.8399 23.7546 23.0311 24.1546 23.1151C24.5682 23.1999 25.0106 23.1759 25.5034 23.1343C25.657 23.1135 25.8034 23.0983 25.9378 23.1175C26.0802 23.1303 26.2034 23.1823 26.3098 23.3095C26.505 23.5415 26.357 23.8695 26.1402 24.0511C25.7378 24.3887 25.4418 24.4823 24.8714 24.5135L26.0386 25.9583L26.041 25.9591Z" fill="#604734"/>
<path d="M59.4046 38.2117L66.2646 37.2477L65.9782 35.2061L59.1182 36.1701L59.4046 38.2117Z" fill="#604734"/>
<path d="M47.024 58.2831C45.02 58.9735 45.1416 61.0951 45.6408 62.5439C46.14 63.9927 47.3496 65.7399 49.3544 65.0503C51.3584 64.3599 51.2369 62.2383 50.7377 60.7895C50.2385 59.3407 49.0288 57.5935 47.024 58.2831ZM47.544 59.7927C48.136 59.5887 48.5656 60.7127 48.8192 61.4495C49.0728 62.1871 49.4264 63.3367 48.8344 63.5407C48.2424 63.7447 47.8128 62.6207 47.5592 61.8839C47.3056 61.1463 46.952 59.9967 47.544 59.7927Z" fill="#604734"/>
<path d="M30.6235 64.954L33.3403 58.5836L31.0755 57.6172L30.0643 58.9236L30.8171 59.2452L28.7275 64.1452L30.6235 64.954Z" fill="#604734"/>
<path d="M43.8476 66.3377L43.154 59.4473L40.7044 59.6937L40.4492 61.3257L41.2636 61.2441L41.7972 66.5441L43.8476 66.3377Z" fill="#604734"/>
<path d="M36.6805 60.7042C37.3413 60.845 37.2733 61.4162 37.2053 61.737C37.1405 62.0418 36.9429 62.5338 36.3325 62.4042C35.7221 62.2746 35.7005 61.753 35.7637 61.4562C35.8301 61.1434 36.0197 60.5634 36.6813 60.7034L36.6805 60.7042ZM34.0165 65.9058L36.0253 66.2922L37.0517 65.2738C37.7837 64.453 38.8117 63.2634 39.0365 62.2034C39.3245 60.8466 38.6997 59.5594 37.1189 59.2234C35.5085 58.881 34.2885 59.7106 33.9853 61.1394C33.7829 62.0914 34.1613 63.421 35.3669 63.677C35.6437 63.7354 35.8565 63.7058 36.0989 63.6354L34.0165 65.9074V65.9058Z" fill="#604734"/>
</svg>
