<svg width="80" height="80" viewBox="0 0 80 80" fill="none" xmlns="http://www.w3.org/2000/svg">
<g clip-path="url(#clip0_0_8071)">
<path d="M78.9834 36.128C76.757 35.0392 72.8866 33.7832 72.8866 33.7832C72.721 33.7392 72.3858 33.6296 72.3858 33.6296C72.3858 33.6296 72.5554 33.3784 72.6034 33.192C72.737 32.7112 72.7098 32.1512 72.4002 31.976C72.4002 31.976 74.089 32.0696 74.4562 31.9272C75.4946 31.5224 75.893 30.1288 75.5282 29.1424C75.3378 28.6256 74.5242 28.3024 74.3578 27.8712C74.1986 27.4624 74.0954 27.1408 73.6602 26.9208C72.9586 26.5664 71.1818 26.256 70.4002 26.324C69.741 26.3824 69.6138 27.144 69.2058 27.3192C67.5746 28.0216 66.8474 27.692 66.8626 30.1264C66.8626 30.1264 66.8626 30.2408 66.881 30.3376C66.2906 30.052 64.8154 29.328 64.1314 29.024V14.292H15.869V29.024C15.185 29.328 13.7098 30.052 13.1194 30.3376C13.1378 30.2408 13.1378 30.1264 13.1378 30.1264C13.153 27.692 12.4258 28.0216 10.7946 27.3192C10.3874 27.144 10.2602 26.3824 9.60022 26.324C8.81862 26.256 7.04182 26.5664 6.34022 26.9208C5.90502 27.1408 5.80182 27.4624 5.64262 27.8712C5.47622 28.3032 4.66262 28.6264 4.47222 29.1424C4.10662 30.1288 4.50502 31.5224 5.54422 31.9272C5.91062 32.0696 7.59942 31.976 7.59942 31.976C7.28902 32.1512 7.26262 32.7112 7.39622 33.192C7.44422 33.3792 7.61382 33.6296 7.61382 33.6296C7.61382 33.6296 7.27862 33.7392 7.11302 33.7832C7.11302 33.7832 3.24182 35.0392 1.01622 36.128C1.01622 36.128 -1.65338 37.3824 1.65702 37.1424C1.81702 37.1424 4.29782 36.9504 6.88582 36.5664L6.87062 36.712C6.86742 37.5488 7.04902 37.544 7.74422 37.7832L7.72182 37.9376C6.84982 38.1136 5.11702 38.2872 4.51382 38.6904C3.85302 39.132 2.04662 38.7904 0.963424 40.2656C0.677824 40.6528 0.204224 41.8304 0.482624 42.2144C0.940224 42.84 3.55782 43.7552 3.89942 43.7624C4.71702 43.78 4.80182 43.1096 5.37862 42.7128C5.65622 42.5208 5.98822 42.6504 6.29542 42.5688C6.75862 42.4464 7.01542 42.0248 7.42262 41.8128C7.66022 41.6904 8.16982 41.5728 8.49462 41.7616C9.93222 42.6464 14.3386 41.524 15.8682 40.62V48.6024C15.8682 51.444 16.229 52.5304 17.0922 54.0336L17.1634 54.152C22.0738 61.496 30.397 65.708 39.9986 65.708C49.6002 65.708 57.9154 61.508 62.8114 54.1848L62.885 54.0704C63.7634 52.5408 64.1298 51.4432 64.1298 48.6024V40.62C65.6594 41.524 70.065 42.6456 71.5026 41.7616C71.8274 41.572 72.3378 41.6904 72.5746 41.8128C72.9818 42.024 73.2386 42.4456 73.7018 42.5688C74.009 42.6496 74.341 42.5208 74.6186 42.7128C75.1954 43.1096 75.2802 43.78 76.0978 43.7624C76.4394 43.7552 79.057 42.8392 79.5146 42.2144C79.7938 41.8304 79.3194 40.6528 79.0338 40.2656C77.9506 38.7904 76.1442 39.132 75.4834 38.6904C74.8802 38.2872 73.1474 38.1144 72.2754 37.9376L72.253 37.7832C72.9482 37.5432 73.1306 37.5488 73.1274 36.712L73.1114 36.5664C75.6994 36.9504 78.1794 37.1424 78.3402 37.1424C81.6506 37.3824 78.981 36.128 78.981 36.128H78.9834Z" fill="white"/>
<path d="M37.6454 43.1125C35.0782 43.1125 32.6846 42.3741 30.6582 41.1045C32.8246 43.8845 36.2022 45.6749 39.9998 45.6749C44.5294 45.6749 48.463 43.1301 50.4534 39.3933L50.4398 39.3893C50.2062 39.3253 49.8582 39.1885 49.4558 39.0293C49.0038 38.8517 48.1798 38.5269 47.8998 38.4941C47.8462 38.5253 47.747 38.6061 47.6718 38.6669C47.5414 38.7725 47.3782 38.9013 47.1766 39.0285C44.7766 41.5421 41.3958 43.1117 37.6454 43.1117V43.1125Z" fill="#DADADA"/>
<path d="M74.4111 30.5331C74.5536 30.3219 74.5551 29.9323 74.4447 29.7043C74.3167 29.4427 73.9279 29.3643 73.6807 29.2739C73.3719 29.3403 73.7151 29.6107 73.4487 29.7267L72.852 29.6499C72.4767 29.2619 73.2607 29.3155 73.3047 29.1083C73.3687 28.8075 73.0855 28.5299 73.2719 28.2347C73.2392 28.1627 73.1959 28.0867 73.1167 28.0579C72.8095 27.9483 70.9719 27.5083 70.7183 27.5275L70.6407 27.6163C70.7143 27.7187 71.0247 27.9995 71.0383 28.0251C71.1607 28.2467 70.3351 28.4051 70.1983 28.4339C69.5383 28.5731 67.7735 28.7851 68.032 29.8267C68.1527 30.3171 69.9072 31.5635 70.1208 32.1035C70.1663 32.2195 70.3951 32.4635 70.2423 32.5675C69.92 32.7867 68.2959 32.4939 68.2079 32.7451C68.2991 33.0851 69.2647 33.3419 69.5783 33.4627C69.9487 33.6043 70.2927 33.7099 70.6831 33.5187C71.1199 33.3043 71.4039 32.7267 71.3255 32.2467C71.2879 32.0267 71.0519 31.4891 70.9167 31.3075C70.7896 31.1379 69.7224 30.2931 70.0215 30.1795C70.3815 30.2947 70.8727 30.1907 71.1264 30.5331C71.7983 30.7235 72.5159 30.8411 73.2039 30.9643C73.6463 31.0435 74.1479 30.9211 74.4087 30.5331H74.4111ZM59.7111 38.8219C59.7671 38.7003 59.7895 38.5451 59.7231 38.4123C59.6679 38.3579 59.6127 38.2907 59.5239 38.2795C59.2143 38.3467 58.9047 38.4891 58.5519 38.4019C58.2303 38.4019 57.7111 38.1147 57.5679 38.5459C57.5127 38.8227 57.3575 39.0547 57.2911 39.3195C57.2911 39.4627 57.4239 39.5963 57.5559 39.6619C57.7551 39.7059 57.9983 39.8163 58.1751 39.7835C58.5071 39.5515 58.4847 39.1315 58.8159 38.8891C58.9935 38.9323 59.0151 39.1763 59.2135 39.1539C59.4127 39.1315 59.6119 39.0099 59.7103 38.8219H59.7111ZM67.7687 33.6835C67.8263 33.3707 67.4735 33.3203 67.2599 33.2515C66.7495 33.0859 66.2415 32.9243 65.7255 32.7779C65.3471 32.6699 64.9663 32.4691 64.5863 32.3899C64.1063 32.2907 63.7271 32.2811 63.3919 31.8595L63.4687 31.8147C63.9231 31.9955 64.6527 32.3851 65.1279 32.0691C65.3527 31.9187 65.5887 31.5155 65.4807 31.2411C65.3999 31.0339 65.1471 31.0067 64.9719 30.9307C64.2271 30.6067 63.4975 30.2067 62.7695 29.8443C61.2311 29.0787 59.6967 28.3043 58.1639 27.5275C57.4671 27.1747 56.6751 26.7667 55.9095 26.5995C55.2855 26.4635 54.5743 26.6363 54.0303 26.9635C53.4919 27.2883 53.5047 28.0515 53.1015 27.9699C53.0439 27.9059 52.9951 27.8259 53.0023 27.7379C52.8391 27.4803 52.3311 28.2051 51.9191 28.4115C51.0007 28.8739 49.3879 30.6355 48.7247 31.4731C48.3063 32.0019 48.1391 32.6771 47.9847 33.3187L48.0735 33.4403C48.2751 33.4883 48.4599 33.4059 48.6375 33.3187C48.8047 33.3611 48.7895 33.5723 48.8807 33.6939C49.5511 34.5971 51.3319 34.0723 52.3071 34.4011C52.3215 34.4611 52.3071 34.5147 52.2407 34.5227C51.8047 34.5787 51.2263 34.4875 50.7791 34.4755C49.7487 34.4483 48.7167 34.4363 47.6871 34.3795L47.5647 34.4459C47.4687 34.6571 46.9031 35.8707 46.8135 35.9699C46.6759 36.1219 46.4711 36.2387 46.3255 36.4027C45.9255 36.8491 45.6359 37.3907 45.1343 37.7379C44.9839 37.8419 44.6823 37.8995 44.6151 38.0691L44.6919 38.1579C46.2143 38.2819 46.3687 36.6843 47.3887 36.3235C47.4447 36.3339 47.4655 36.3939 47.4543 36.4451C47.2015 36.6979 46.9279 37.0619 46.7695 37.3835C46.1735 38.5899 45.7503 38.2227 45.1775 38.7763L45.2663 38.9091C46.9519 38.8595 47.2583 37.9115 47.8079 37.8363C48.2767 37.7707 50.0343 38.5939 50.6151 38.7539C50.9063 38.8339 51.1935 38.9331 51.5007 38.9291C51.6039 38.9275 51.7423 38.8723 51.8303 38.8763C52.0559 38.8835 52.1007 39.2859 52.5935 39.0531C52.8903 38.9123 52.9095 38.4899 52.9463 38.2011C52.9911 37.8555 52.5615 37.5603 52.5935 37.3715C52.6367 37.1059 52.9695 37.4611 53.0455 37.2275C53.0919 37.0875 52.9191 36.8043 52.8359 36.6979C52.6143 36.4139 51.9879 35.9283 52.0735 35.5155C52.0815 35.4763 52.1999 35.3891 52.2391 35.3947L54.2839 35.6483C54.3551 35.6571 54.6663 36.3819 54.6711 36.4555C54.6767 36.5651 54.3783 37.3139 54.3175 37.4611C54.1463 37.8675 53.8479 38.1627 53.8527 38.6331C53.8583 39.2099 54.2471 39.7459 54.5383 40.2235C54.8599 40.7531 55.3751 40.5011 55.8423 40.6539C56.0343 40.7179 56.2407 40.8507 56.4295 40.9347C57.0231 41.1947 57.6879 41.4643 58.3175 41.6163C58.6623 41.6995 59.1967 41.5835 59.3999 41.2635C59.5487 41.0275 59.0463 40.9571 59.2679 40.6987C59.3855 40.5619 59.5327 40.5699 59.6991 40.5883C60.0535 40.6275 61.8735 40.8491 62.0639 40.6435C62.1287 40.5755 62.0319 40.4827 61.9767 40.4555C61.6095 40.2787 61.0423 40.1931 60.6391 40.0811C60.1511 39.9435 59.6463 39.9091 59.1583 39.7603C58.7431 39.6331 58.7695 40.0579 58.4735 40.2467C58.0271 40.5323 56.8279 39.9627 56.6831 39.4499C56.5431 38.9579 56.9927 38.3347 57.3127 38.0027C57.5647 37.7411 57.8719 37.7043 58.1199 37.5051C58.2775 37.3795 58.1647 37.1291 58.1639 36.9635C58.4095 36.6555 59.3327 37.1451 59.7103 37.0411C60.1199 36.9275 59.8143 36.3851 60.1639 36.2787C60.4719 36.3659 60.7143 36.5875 61.0151 36.6979C61.2383 36.7795 61.6311 36.8211 61.7775 37.0179C61.8943 37.1747 61.7743 37.3931 61.7439 37.5595C61.8519 37.7643 62.1959 37.8283 62.4071 37.8587C62.7471 37.9075 63.1175 37.8883 63.4647 37.9243C63.8095 37.9603 64.1567 38.0595 64.4959 38.0907L65.6455 38.2011C65.9223 38.3339 65.5783 38.5715 65.8335 39.1075C65.5599 39.0675 64.4367 38.7331 64.3079 39.1075C65.2999 40.0323 67.5503 40.6851 68.8839 40.8755C69.6999 40.9923 70.5631 40.9659 71.3823 40.8979C71.5055 40.8883 71.6151 40.8675 71.6887 40.8035C71.6903 40.8091 72.1272 40.4403 72.3615 40.4771C72.6815 40.5307 73.0559 41.1443 73.7224 41.3995C74.1768 41.6555 74.6071 41.2115 74.9607 41.4115C75.3935 41.6555 75.6631 42.8875 76.3527 42.6939C76.4927 42.6547 77.0903 42.4483 77.1727 42.3675C77.3999 42.1811 77.0159 41.6899 76.8199 41.3635C76.7487 41.2635 76.7007 41.1875 76.6175 41.1667C75.8167 40.9627 76.1951 40.0491 75.0495 39.8315C74.5335 39.7347 74.4072 39.6923 73.8904 39.5955C73.7503 39.5683 73.4351 39.6387 73.4191 39.4379C73.4159 39.4379 73.5047 39.3411 73.5047 39.3411L74.4223 39.3195L74.4007 39.1987C72.9327 39.0139 71.4927 38.5971 70.0239 38.4235C69.9135 38.3587 69.7743 38.0195 69.7911 37.9155C69.8351 37.6475 70.2583 38.1451 70.4767 37.6163C70.604 37.3099 70.2983 37.0483 70.5431 36.8979C71.1879 36.9811 71.8327 37.0619 72.4775 37.1523C68.8327 36.2827 65.1559 35.5539 61.5119 34.6883C60.7223 34.5011 59.9143 34.3763 59.1359 34.1355L59.1471 34.0475C62.3623 34.4979 65.5455 35.2731 68.7743 35.6163V35.5387C66.9887 35.1987 65.2223 34.7443 63.4351 34.4219C60.7711 33.9427 58.0863 33.5435 55.4103 33.1331C53.6639 32.8651 51.8895 32.5395 50.1287 32.3891L50.0735 32.5107C50.1911 32.6555 50.3559 32.7235 50.5159 32.8091C50.5383 32.8451 50.5407 32.8915 50.5055 32.9195C50.2807 32.8955 49.2791 32.9603 49.2783 32.7211C49.6511 32.3683 49.7415 32.1835 50.2831 32.2347C51.1263 32.3123 51.9751 32.4371 52.8151 32.5435C57.6511 33.1643 62.5223 33.8123 67.3263 34.6443C72.3935 35.5211 75.0743 35.9139 79.2383 36.7147C77.8239 36.2075 71.4439 34.4187 68.1871 33.8587C68.0351 33.8315 67.8415 33.8555 67.7679 33.6827L67.7687 33.6835ZM66.5751 39.3643C66.8287 39.3859 66.9663 39.3803 67.2975 39.4483C67.8391 39.5595 68.38 39.6027 68.9319 39.7579C69.0208 39.7907 69.1167 39.9163 69.1279 40.0043C69.0943 40.0595 69.0159 40.0755 68.9719 40.0755L66.8167 39.5243L66.5751 39.3651V39.3643ZM54.6823 38.4787L55.2791 37.0755C55.3015 36.9755 55.4007 36.8763 55.5007 36.8875C55.6335 36.9315 55.7991 36.9531 55.8439 37.1075L55.3351 38.2027C54.9807 38.6675 55.2359 39.3083 55.3575 39.7715C55.3463 39.8379 55.2791 39.8723 55.2239 39.8827C54.8711 39.5283 54.5495 39.0315 54.6823 38.4787ZM50.1407 37.4971C50.0047 37.5987 49.7663 37.5427 49.5959 37.5195C49.3903 37.4067 49.3455 37.1675 49.3223 36.9395C49.3223 36.8835 49.3343 36.8259 49.3911 36.7803C49.6303 36.7803 49.8687 36.8379 50.0279 37.0307C50.0967 37.1787 50.2215 37.3371 50.1415 37.4963L50.1407 37.4971ZM57.3919 31.7667L57.6887 31.9035C57.6887 31.9035 53.3127 31.2843 51.2015 30.9747C51.1127 30.9643 50.8391 30.9371 50.8839 30.7819C50.9383 30.7483 51.0047 30.7259 51.0711 30.7379L57.3919 31.7667ZM58.5183 29.8147L58.4735 29.8595C57.3567 29.6435 56.2095 29.3795 55.1135 29.0747C55.0295 29.0515 54.8343 29.0355 54.8591 28.9099C55.2599 28.8323 57.0951 29.3171 57.5559 29.4723C57.7607 29.5419 57.8815 29.4939 58.0871 29.4723C58.2431 29.5707 58.4015 29.6691 58.5183 29.8147ZM20.2767 38.4123C20.2103 38.5451 20.2327 38.7003 20.2887 38.8219C20.3871 39.0099 20.5863 39.1315 20.7855 39.1539C20.9847 39.1763 21.0063 38.9323 21.1839 38.8891C21.5151 39.1323 21.4927 39.5515 21.8247 39.7835C22.0015 39.8163 22.2447 39.7059 22.4439 39.6619C22.5759 39.5963 22.7087 39.4627 22.7087 39.3195C22.6423 39.0547 22.4871 38.8219 22.4319 38.5459C22.2887 38.1147 21.7695 38.4019 21.4479 38.4019C21.0951 38.4899 20.7855 38.3467 20.4759 38.2795C20.3871 38.2907 20.3327 38.3571 20.2767 38.4123ZM35.3087 38.1587L35.3855 38.0699C35.3191 37.8995 35.0167 37.8427 34.8663 37.7387C34.3647 37.3915 34.0751 36.8499 33.6751 36.4035C33.5287 36.2395 33.3239 36.1227 33.1871 35.9707C33.0967 35.8715 32.5311 34.6571 32.4351 34.4467L32.3135 34.3803C31.2839 34.4371 30.2519 34.4491 29.2215 34.4763C28.7743 34.4883 28.1959 34.5795 27.7599 34.5235C27.6935 34.5155 27.6791 34.4619 27.6927 34.4019C28.6671 34.0731 30.4487 34.5971 31.1191 33.6947C31.2111 33.5723 31.1959 33.3619 31.3631 33.3195C31.5399 33.4067 31.7255 33.4891 31.9263 33.4411L32.0151 33.3195C31.8607 32.6771 31.6927 32.0019 31.2743 31.4739C30.6111 30.6363 28.9991 28.8739 28.0807 28.4123C27.6687 28.2059 27.1607 27.4811 26.9975 27.7387C27.0047 27.8275 26.9551 27.9067 26.8983 27.9707C26.4951 28.0515 26.5079 27.2891 25.9695 26.9643C25.4255 26.6363 24.7151 26.4635 24.0903 26.6003C23.3239 26.7675 22.5327 27.1747 21.8359 27.5283C20.3031 28.3059 18.7679 29.0795 17.2303 29.8451C16.5031 30.2075 15.7727 30.6075 15.0279 30.9315C14.8527 31.0083 14.5999 31.0355 14.5191 31.2419C14.4119 31.5163 14.6471 31.9195 14.8719 32.0699C15.3471 32.3859 16.0767 31.9963 16.5311 31.8155L16.6079 31.8603C16.2727 32.2819 15.8935 32.2915 15.4135 32.3907C15.0335 32.4691 14.6527 32.6707 14.2743 32.7787C13.7575 32.9259 13.2503 33.0867 12.7399 33.2523C12.5263 33.3211 12.1735 33.3715 12.2311 33.6843C12.1575 33.8571 11.9647 33.8331 11.8119 33.8603C8.55514 34.4211 2.17514 36.2091 0.760742 36.7163C4.92474 35.9155 7.60554 35.5227 12.6727 34.6459C17.4775 33.8139 22.3479 33.1659 27.1839 32.5451C28.0247 32.4387 28.8727 32.3139 29.7159 32.2363C30.2575 32.1859 30.3479 32.3699 30.7207 32.7227C30.7207 32.9611 29.7183 32.8971 29.4935 32.9211C29.4583 32.8931 29.4599 32.8467 29.4831 32.8107C29.6423 32.7251 29.8079 32.6571 29.9255 32.5123L29.8703 32.3907C28.1095 32.5411 26.3343 32.8667 24.5887 33.1347C21.9127 33.5451 19.2279 33.9443 16.5639 34.4235C14.7759 34.7451 13.0103 35.1995 11.2247 35.5403V35.6179C14.4527 35.2755 17.6359 34.4995 20.8511 34.0491L20.8631 34.1371C20.0855 34.3779 19.2767 34.5019 18.4871 34.6899C14.8431 35.5547 11.1663 36.2835 7.52154 37.1539C8.16634 37.0635 8.81114 36.9819 9.45594 36.8995C9.70074 37.0499 9.39514 37.3115 9.52234 37.6179C9.74074 38.1467 10.1639 37.6491 10.2079 37.9171C10.2247 38.0211 10.0855 38.3603 9.97514 38.4251C8.50634 38.5987 7.06714 39.0155 5.59834 39.2003L5.57674 39.3211L6.49354 39.3427C6.49354 39.3427 6.58234 39.4395 6.57914 39.4395C6.56234 39.6403 6.24714 39.5699 6.10714 39.5971C5.58954 39.6939 5.46314 39.7363 4.94794 39.8331C3.80314 40.0507 4.18154 40.9643 3.37994 41.1683C3.29674 41.1891 3.24874 41.2651 3.17754 41.3651C2.98154 41.6923 2.59674 42.1827 2.82474 42.3691C2.90714 42.4499 3.50474 42.6563 3.64474 42.6955C4.33434 42.8891 4.60394 41.6571 5.03674 41.4131C5.39034 41.2139 5.82154 41.6579 6.27514 41.4011C6.94154 41.1467 7.31514 40.5323 7.63594 40.4787C7.87114 40.4411 8.30714 40.8099 8.30954 40.8051C8.38394 40.8691 8.49354 40.8891 8.61594 40.8995C9.43434 40.9675 10.2983 40.9947 11.1143 40.8771C12.4479 40.6867 14.6975 40.0339 15.6895 39.1091C15.5607 38.7347 14.4367 39.0691 14.1639 39.1091C14.4191 38.5731 14.0751 38.3355 14.3519 38.2027L15.5015 38.0923C15.8407 38.0603 16.1879 37.9619 16.5327 37.9259C16.8799 37.8891 17.2503 37.9091 17.5903 37.8603C17.8015 37.8299 18.1455 37.7659 18.2535 37.5611C18.2231 37.3955 18.1031 37.1771 18.2199 37.0195C18.3663 36.8227 18.7599 36.7811 18.9823 36.6995C19.2831 36.5891 19.5255 36.3675 19.8335 36.2803C20.1831 36.3867 19.8775 36.9283 20.2871 37.0427C20.6647 37.1467 21.5887 36.6571 21.8343 36.9651C21.8335 37.1299 21.7215 37.3803 21.8783 37.5067C22.1263 37.7059 22.4335 37.7435 22.6855 38.0043C23.0055 38.3363 23.4551 38.9595 23.3151 39.4515C23.1703 39.9643 21.9711 40.5339 21.5247 40.2483C21.2287 40.0603 21.2551 39.6347 20.8399 39.7619C20.3511 39.9107 19.8463 39.9451 19.3591 40.0827C18.9551 40.1947 18.3879 40.2803 18.0215 40.4571C17.9663 40.4851 17.8695 40.5771 17.9335 40.6451C18.1239 40.8507 19.9439 40.6291 20.2983 40.5899C20.4639 40.5715 20.6119 40.5635 20.7295 40.7003C20.9511 40.9587 20.4487 41.0291 20.5975 41.2651C20.8007 41.5859 21.3359 41.7011 21.6799 41.6179C22.3095 41.4659 22.9751 41.1955 23.5679 40.9363C23.7567 40.8523 23.9631 40.7203 24.1551 40.6555C24.6223 40.5027 25.1375 40.7547 25.4591 40.2251C25.7503 39.7475 26.1391 39.2107 26.1447 38.6347C26.1495 38.1643 25.8511 37.8691 25.6799 37.4627C25.6191 37.3155 25.3215 36.5667 25.3263 36.4571C25.3303 36.3843 25.6423 35.6587 25.7135 35.6499L27.7583 35.3963C27.7975 35.3907 27.9159 35.4779 27.9239 35.5171C28.0095 35.9307 27.3831 36.4155 27.1615 36.6995C27.0783 36.8059 26.9055 37.0891 26.9519 37.2291C27.0287 37.4627 27.3607 37.1075 27.4039 37.3731C27.4359 37.5611 27.0063 37.8563 27.0511 38.2027C27.0879 38.4907 27.1079 38.9139 27.4039 39.0547C27.8975 39.2875 27.9415 38.8851 28.1679 38.8779C28.2559 38.8739 28.3943 38.9291 28.4975 38.9307C28.8047 38.9355 29.0919 38.8355 29.3831 38.7555C29.9639 38.5955 31.7215 37.7723 32.1903 37.8379C32.7399 37.9131 33.0471 38.8611 34.7319 38.9107L34.8207 38.7779C34.2479 38.2235 33.8239 38.5907 33.2287 37.3851C33.0703 37.0635 32.7967 36.6995 32.5447 36.4467C32.5335 36.3955 32.5543 36.3355 32.6103 36.3251C33.6303 36.6859 33.7847 38.2827 35.3079 38.1595L35.3087 38.1587ZM13.4247 39.3643L13.1831 39.5235L11.0279 40.0747C10.9839 40.0747 10.9047 40.0587 10.8719 40.0035C10.8831 39.9147 10.9791 39.7899 11.0679 39.7571C11.6199 39.6019 12.1607 39.5579 12.7023 39.4475C13.0343 39.3795 13.1711 39.3859 13.4247 39.3635V39.3643ZM25.3175 38.4787C25.4503 39.0323 25.1295 39.5291 24.7759 39.8827C24.7207 39.8723 24.6535 39.8379 24.6423 39.7715C24.7639 39.3083 25.0191 38.6675 24.6647 38.2027L24.1559 37.1075C24.2007 36.9531 24.3663 36.9315 24.4983 36.8875C24.5983 36.8763 24.6975 36.9755 24.7199 37.0755L25.3167 38.4787H25.3175ZM25.1407 28.9091C25.1655 29.0347 24.9703 29.0507 24.8855 29.0739C23.7903 29.3787 22.6423 29.6419 21.5263 29.8587L21.4815 29.8139C21.5983 29.6683 21.7559 29.5699 21.9127 29.4715C22.1183 29.4931 22.2391 29.5411 22.4439 29.4715C22.9039 29.3163 24.7399 28.8315 25.1407 28.9091ZM28.7983 30.9747C26.6863 31.2843 22.3111 31.9035 22.3111 31.9035L22.6079 31.7667L28.9287 30.7379C28.9951 30.7259 29.0615 30.7483 29.1159 30.7819C29.1615 30.9371 28.8871 30.9643 28.7983 30.9747ZM30.6783 36.9395C30.6551 37.1675 30.6095 37.4059 30.4047 37.5195C30.2343 37.5419 29.9959 37.5987 29.8599 37.4971C29.7799 37.3379 29.9047 37.1795 29.9735 37.0315C30.1327 36.8379 30.3711 36.7811 30.6103 36.7811C30.6671 36.8267 30.6791 36.8843 30.6791 36.9403L30.6783 36.9395ZM11.9655 29.8259C12.2239 28.7843 10.4591 28.5723 9.79914 28.4331C9.66234 28.4043 8.83754 28.2459 8.95914 28.0243C8.97274 27.9987 9.28314 27.7179 9.35674 27.6155L9.27914 27.5267C9.02554 27.5075 7.18874 27.9475 6.88154 28.0571C6.80234 28.0859 6.75914 28.1619 6.72634 28.2339C6.91274 28.5291 6.62954 28.8067 6.69354 29.1075C6.73754 29.3147 7.52154 29.2619 7.14634 29.6491L6.54954 29.7259C6.28314 29.6099 6.62634 29.3403 6.31754 29.2731C6.07114 29.3635 5.68154 29.4419 5.55434 29.7035C5.44394 29.9315 5.44554 30.3203 5.58794 30.5323C5.84874 30.9203 6.35034 31.0427 6.79274 30.9635C7.47994 30.8395 8.19834 30.7219 8.87034 30.5323C9.12394 30.1907 9.61514 30.2939 9.97514 30.1787C10.2751 30.2923 9.20714 31.1371 9.07994 31.3067C8.94474 31.4875 8.70794 32.0259 8.67114 32.2459C8.59194 32.7251 8.87674 33.3035 9.31354 33.5179C9.70394 33.7091 10.0479 33.6035 10.4183 33.4619C10.7319 33.3419 11.6975 33.0843 11.7895 32.7443C11.7015 32.4931 10.0775 32.7859 9.75514 32.5667C9.60234 32.4627 9.83114 32.2187 9.87674 32.1027C10.0911 31.5627 11.8447 30.3163 11.9655 29.8259ZM3.83514 39.8147C3.77994 39.6403 2.68954 39.8339 2.62874 40.0451C2.54074 40.3547 3.44794 40.7611 3.83514 39.8147ZM1.39514 41.7123C1.41754 41.7459 1.54474 41.8083 1.60154 41.8443C1.83274 41.9691 2.05194 42.1891 2.20634 41.9899C2.28634 41.8883 2.71354 41.1515 2.79354 40.8739C2.82634 40.7611 2.75114 40.6019 2.48394 40.5907H2.43034C1.73594 40.6603 1.51594 41.2587 1.39434 41.7115L1.39514 41.7123ZM77.3703 40.0451C77.3095 39.8339 76.2191 39.6403 76.1639 39.8147C76.5511 40.7611 77.4576 40.3547 77.3703 40.0451ZM77.2056 40.8739C77.2855 41.1515 77.7127 41.8883 77.7927 41.9899C77.9471 42.1891 78.1663 41.9683 78.3975 41.8443C78.4543 41.8083 78.5815 41.7467 78.6039 41.7123C78.4823 41.2595 78.2623 40.6603 77.5679 40.5915H77.5143C77.2471 40.6019 77.1719 40.7619 77.2048 40.8747L77.2056 40.8739Z" fill="#DD0741"/>
<path d="M62.8606 48.6033V41.5073H61.5366V48.6033C61.5366 51.1241 61.2446 51.7169 60.6582 52.7409C56.1742 59.4457 48.595 63.1105 40.0006 63.1105C31.4062 63.1105 23.8278 59.4457 19.3454 52.7409C18.759 51.7177 18.4654 51.1241 18.4654 48.6033V41.4929H17.1406V48.6033C17.1406 51.2817 17.4622 52.1233 18.1966 53.4017L18.2446 53.4785C23.143 60.8041 31.2766 64.4377 40.0006 64.4377C48.7246 64.4377 56.859 60.8049 61.7582 53.4785L61.8046 53.4017C62.5382 52.1241 62.8598 51.2833 62.8598 48.6033H62.8606ZM30.0358 28.6041C30.6726 27.1849 31.367 25.9705 31.7214 25.3785C30.759 26.3209 29.9558 27.4249 29.3582 28.6489C29.4838 28.7553 29.6102 28.8673 29.7382 28.9849C29.835 28.8585 29.9342 28.7313 30.0358 28.6041ZM50.5166 56.4993L52.7166 55.1201L52.2206 54.3281L50.843 55.1921L48.8694 48.9857L48.395 48.2257L46.195 49.6049L46.691 50.3961L48.0686 49.5321L50.0422 55.7385L50.5166 56.4985V56.4993ZM49.4326 29.7745C48.2758 28.9713 46.5582 28.1193 46.5582 28.1193C45.3366 29.8401 44.319 31.9673 44.319 31.9673C44.9206 33.2249 45.8214 34.6441 46.3166 35.5209C46.983 34.5441 47.2558 33.6225 47.6702 32.3017C47.9718 31.3417 48.3774 30.8233 49.4318 29.7745H49.4326ZM39.2566 32.0153C39.2566 32.0153 37.7798 29.6625 36.2342 27.9081C36.2342 27.9081 32.9782 29.3609 31.7782 29.9849L31.7254 30.8737C31.7438 30.9337 32.1742 31.5529 32.355 32.2257L32.7206 33.3905C32.7638 33.5225 32.803 33.6409 32.803 33.6409C32.8846 33.8801 32.9974 34.1761 33.1326 34.4833C33.2558 34.7625 33.399 35.0505 33.5558 35.3121C33.6814 35.5217 33.8358 35.7137 34.0206 35.8745C34.0254 35.8785 34.0302 35.8833 34.035 35.8873C34.199 36.0297 34.3926 36.1321 34.6022 36.1897C35.1662 36.3457 35.799 36.5121 36.487 36.6785C36.487 36.6785 38.5406 33.4025 39.2558 32.0153H39.2566ZM40.0006 21.9985C38.6662 21.9985 37.3838 22.2225 36.187 22.6297L38.4398 24.4073C38.4398 24.4073 41.1886 24.1465 43.6582 24.4641C44.011 23.8801 44.1926 23.3881 44.283 23.0809C46.8918 24.3161 48.9566 26.5081 50.0318 29.2017C50.2358 29.0057 50.4414 28.8193 50.643 28.6481C48.7198 24.7113 44.6774 21.9985 40.0006 21.9985ZM55.2806 53.1969L55.943 52.5401L50.2478 46.7985L50.2126 46.7625L49.5502 47.4201L55.2454 53.1617L55.2814 53.1977L55.2806 53.1969ZM55.7454 46.9217L58.0006 48.3441L57.6118 48.9617L52.3094 45.6185L52.699 45.0009L53.4134 45.4513L53.911 44.6625L53.4494 44.3713C53.2422 44.2409 53.0038 44.1721 52.759 44.1721C52.307 44.1721 51.895 44.3977 51.6574 44.7761C51.2758 45.3817 51.4582 46.1849 52.0638 46.5681L56.8614 49.5929C57.0678 49.7233 57.307 49.7921 57.551 49.7921C58.003 49.7921 58.4142 49.5665 58.6534 49.1881C59.0342 48.5825 58.8518 47.7785 58.2454 47.3969L55.4518 45.6353L54.7622 46.7281L55.5526 47.2265L55.7446 46.9225L55.7454 46.9217ZM46.2014 58.2433L45.1494 54.7993L45.8966 54.5713C46.123 54.5025 46.3086 54.3497 46.419 54.1417C46.5294 53.9345 46.5518 53.6953 46.4822 53.4681L45.6742 50.8209C45.5598 50.4465 45.2214 50.1945 44.8318 50.1945C44.7446 50.1945 44.6574 50.2081 44.5726 50.2337L42.9334 50.7345L45.2958 58.4673L45.311 58.5161L46.203 58.2433H46.2014ZM44.8766 53.9057L44.0982 51.3553L44.7966 51.1417L45.5758 53.6921L44.8766 53.9057ZM42.427 58.9953L41.723 50.8881L40.7934 50.9689L41.4974 59.0761L42.427 58.9953ZM38.9118 58.2017L37.2598 58.0057L37.5742 55.3569L38.8126 55.5041L38.923 54.5761L37.6846 54.4289L37.999 51.7801L39.651 51.9769L39.7606 51.0497L38.059 50.8473C37.5678 50.7889 37.1358 51.1417 37.0782 51.6209L36.3278 57.9465C36.2702 58.4297 36.6166 58.8697 37.0998 58.9281L38.8014 59.1305L38.9118 58.2025V58.2017ZM40.0006 45.6753C44.5302 45.6753 48.4638 43.1305 50.4542 39.3937L50.4406 39.3897C50.207 39.3257 49.859 39.1889 49.4566 39.0297C49.439 39.0225 49.4174 39.0145 49.3982 39.0073C48.3654 40.8617 46.8414 42.4049 44.9918 43.4449L44.0478 40.7905L38.9214 40.9289L36.9142 43.7449C36.9142 43.7449 37.7542 44.3753 39.2606 44.9081C36.7822 44.8825 34.4974 44.0665 32.6358 42.7057C32.6974 42.6537 32.7566 42.5993 32.8054 42.5449C32.8054 42.5449 31.4166 40.5449 30.5662 39.0201C30.5598 39.0233 30.551 39.0265 30.5446 39.0289C30.1422 39.1873 29.7942 39.3241 29.5606 39.3889L29.547 39.3929C31.5374 43.1297 35.471 45.6745 40.0006 45.6745V45.6753ZM34.5022 57.4993L32.9302 56.9569L35.2798 50.1481L34.3982 49.8441L31.7438 57.5361L34.1982 58.3825L34.503 57.4993H34.5022ZM28.9534 51.4385C28.9934 51.4433 29.0286 51.4457 29.063 51.4457C29.267 51.4457 29.4398 51.3553 29.607 51.1609L31.267 49.2337C31.4222 49.0545 31.4974 48.8265 31.4798 48.5921C31.463 48.3577 31.3542 48.1433 31.1758 47.9889L29.8774 46.8697L24.5646 53.0345L25.863 54.1537C26.023 54.2921 26.2278 54.3681 26.439 54.3681C26.6958 54.3681 26.9398 54.2561 27.1086 54.0601L28.703 52.2097C28.9566 51.9161 29.0358 51.6737 28.9526 51.4377L28.9534 51.4385ZM28.2254 51.3889L28.203 51.4145L26.439 53.4609L25.835 52.9393L27.6206 50.8673L28.2254 51.3889ZM28.787 50.6849L28.2342 50.2081L29.9758 48.1873L30.5286 48.6641L28.787 50.6849ZM24.7662 47.6241L25.1854 48.2225L22.7654 49.9169C22.5814 50.0465 22.4454 50.2641 22.3638 50.4249L22.3502 50.4521L22.907 51.2473L22.9454 51.1697C23.0366 50.9833 23.1222 50.8065 23.3014 50.6809L25.4958 49.1457C25.8134 48.9225 25.9502 48.7073 25.9278 48.4593C26.0038 48.4897 26.0894 48.5137 26.1862 48.5137C26.3294 48.5137 26.4742 48.4609 26.6294 48.3521L28.7126 46.8937C28.9062 46.7585 29.0358 46.5561 29.0766 46.3241C29.1174 46.0921 29.0662 45.8577 28.9302 45.6641L27.947 44.2601L21.2822 48.9265L21.8166 49.6905L24.767 47.6249L24.7662 47.6241ZM25.4838 47.0809L25.5118 47.0609L27.7246 45.5121L28.1822 46.1657L28.1542 46.1849L25.9414 47.7345L25.4838 47.0809ZM61.5358 27.8249L62.8598 28.4401V15.5625H17.1406V28.4289L18.4654 27.8073V16.8905H61.5358V27.8249Z" fill="#001F47"/>
</g>
<defs>
<clipPath id="clip0_0_8071">
<rect width="80" height="80" fill="white"/>
</clipPath>
</defs>
</svg>
