<svg width="80" height="80" viewBox="0 0 80 80" fill="none" xmlns="http://www.w3.org/2000/svg">
<path d="M20.0371 40.0005C20.0371 24.0685 28.9747 11.1533 40.0003 11.1533C51.0259 11.1533 59.9643 24.0685 59.9643 40.0005C59.9643 55.9325 51.0267 68.8477 40.0003 68.8477C28.9739 68.8477 20.0371 55.9325 20.0371 40.0005Z" fill="white"/>
<path d="M40.0002 69.6004C28.577 69.6004 19.2842 56.322 19.2842 40.0004C19.2842 23.6788 28.577 10.4004 40.0002 10.4004C51.4234 10.4004 60.7162 23.6788 60.7162 40.0004C60.7162 56.322 51.4226 69.6004 40.0002 69.6004ZM40.0002 11.9052C29.4074 11.9052 20.789 24.5084 20.789 40.0004C20.789 55.4924 29.4066 68.0956 40.0002 68.0956C50.5938 68.0956 59.2114 55.4924 59.2114 40.0004C59.2114 24.5084 50.593 11.9052 40.0002 11.9052Z" fill="black"/>
<path d="M21.8086 39.9521C21.8086 24.9809 29.9702 12.8457 40.0374 12.8457C50.1046 12.8457 58.2654 24.9817 58.2654 39.9521C58.2654 54.9225 50.1046 67.0585 40.0374 67.0585C29.9702 67.0585 21.8086 54.9225 21.8086 39.9521Z" fill="black"/>
<path d="M40.0364 12.8457C29.9692 12.8457 21.8076 24.9817 21.8076 39.9521C21.8076 49.8545 25.3788 58.5145 30.71 63.2449L48.5188 15.9553C45.9852 13.9705 43.0988 12.8457 40.0364 12.8457Z" fill="white"/>
<path d="M40.0359 67.2958C29.8543 67.2958 21.5703 55.0294 21.5703 39.9526C21.5703 24.8758 29.8543 12.6094 40.0359 12.6094C50.2175 12.6094 58.5015 24.8758 58.5015 39.9526C58.5015 55.0294 50.2183 67.2958 40.0359 67.2958ZM40.0359 13.083C30.1151 13.083 22.0447 25.1366 22.0447 39.9526C22.0447 54.7686 30.1159 66.8222 40.0359 66.8222C49.9559 66.8222 58.0271 54.7686 58.0271 39.9526C58.0271 25.1366 49.9559 13.083 40.0359 13.083Z" fill="black"/>
<path d="M41.3781 21.7749C42.0965 22.7101 42.4229 23.9957 42.1941 25.1381C42.0341 25.9661 41.5669 26.6661 41.5917 27.5725C41.4821 28.3125 41.7269 29.0157 41.4285 29.6805C41.3653 29.7749 41.2181 29.9253 41.1021 29.7933C40.9237 29.6805 40.7821 29.3757 40.5373 29.3669C40.1485 29.6741 40.0437 30.1525 39.9349 30.6221C39.7189 31.4221 40.0701 32.2381 40.0229 33.0445C40.0005 33.2141 39.9789 33.3829 39.8845 33.5213C39.7997 33.6157 39.6429 33.6157 39.5581 33.5213C39.2949 33.2677 39.2853 32.8597 38.9437 32.6805C38.7645 32.7117 38.6205 32.9005 38.5669 33.0693C38.3725 33.2325 38.3373 34.2557 38.3285 34.8765C38.3005 35.5541 38.5389 36.2317 38.4165 36.8845C38.2757 37.0069 38.1029 36.8213 37.9397 36.8093C37.8365 36.7429 37.7261 36.7717 37.6261 36.8221C37.0181 37.7853 36.8765 38.9397 36.5597 40.0221C36.2829 41.4901 36.1205 43.0085 36.0701 44.4765C35.9821 44.6053 35.8069 44.7053 35.6437 44.6269C34.9813 44.1717 34.8501 43.3597 34.7901 42.6317C34.7301 41.4773 34.8997 40.2949 34.8405 39.2181C34.8093 38.9989 34.8341 38.6437 34.5773 38.5781C34.5709 38.6093 34.5269 38.6413 34.5021 38.6157C34.1069 38.9101 33.9653 39.3909 33.7365 39.8077C32.8077 42.0165 31.9613 44.2629 31.1517 46.5213C31.0861 46.7093 31.0573 46.9701 30.8253 47.0229C30.4205 46.9253 30.4077 46.4645 30.3613 46.1197C30.0189 43.6821 31.0133 41.3765 31.6285 39.1677C31.5877 38.9853 31.6725 38.8229 31.5029 38.7157L31.2013 38.7405C29.3565 40.3621 27.9197 42.3109 26.3573 44.1613C26.2509 44.2301 26.1405 44.1485 26.0565 44.0861C25.8621 43.8573 25.9501 43.5093 25.9813 43.2333C26.6621 40.8989 28.2181 38.8381 29.7837 36.9589C29.9909 36.6173 30.4421 36.2909 30.1725 35.8797C29.9781 35.7445 29.7053 35.7637 29.4949 35.8173C28.2717 36.2877 27.1109 36.9181 25.9309 37.4989C25.8181 37.5181 25.7989 37.3861 25.7549 37.3237C25.8109 36.5925 26.3573 36.0501 26.7837 35.5165C28.1325 34.2525 29.7861 33.5341 31.3389 32.6301C32.9797 31.8645 34.5917 31.0333 36.1325 30.0325C36.3613 29.7661 36.5869 29.3925 36.4213 29.0037C36.0637 28.5077 35.3637 28.7029 34.8277 28.6269C33.4661 28.6429 31.9101 28.6709 30.7997 27.8485C30.6333 27.6821 30.5453 27.4685 30.5861 27.2333L30.6613 27.1829C32.1925 27.3053 33.8141 27.1645 35.2789 27.1701C35.6901 27.0789 36.1981 27.2301 36.5589 26.8941C36.5901 26.6085 36.2861 26.5837 36.1325 26.4301C35.0685 26.0101 33.8925 25.8525 32.7317 25.6645C32.7037 25.6205 32.6693 25.5485 32.7189 25.5013C32.9765 25.2093 33.4061 25.3349 33.7477 25.2501C34.4693 25.2093 35.1469 25.5013 35.8309 25.4381C35.9597 25.3661 36.0317 25.2909 36.0941 25.1621C36.1005 24.9893 36.0533 24.8421 35.9813 24.6853C35.2157 24.0989 34.2213 24.0173 33.2837 23.8821C32.5405 23.8917 31.7405 24.0669 30.9117 24.0205C30.3597 23.9981 29.8261 23.9453 29.3053 24.0709C28.9229 24.1901 28.8005 24.5949 28.7661 24.9493C28.7317 25.1157 29.0013 25.2757 28.7789 25.4013C28.3237 25.4421 27.8629 25.3293 27.5365 25.0125C27.2509 24.3253 27.2821 23.5381 27.4109 22.7909C27.6117 22.2165 28.3141 22.3765 28.6909 21.9877C28.9389 21.3853 29.7069 21.8373 30.0205 21.3101C30.3157 21.0181 30.5725 20.6669 30.9741 20.4941C32.9317 20.6069 34.8797 20.5877 36.7965 20.2685C38.5125 19.9013 40.3733 20.2469 41.3765 21.7741L41.3781 21.7749Z" fill="black"/>
<path d="M37.2995 22.2011C37.4059 22.3611 37.4691 22.6275 37.3875 22.8163C37.1835 23.2779 36.6283 23.2275 36.2203 23.2931C35.9851 23.1835 35.6363 23.1491 35.5171 22.8539C35.4235 22.7099 35.4795 22.5027 35.5171 22.3523C35.6771 22.0291 36.0539 21.8627 36.3835 21.8379C36.7099 21.8691 37.1235 21.8499 37.2995 22.2019V22.2011Z" fill="white"/>
<path d="M29.9705 22.4776C29.9265 22.6064 29.7385 22.5496 29.6441 22.528C29.5689 22.4272 29.3049 22.368 29.4561 22.2144C29.5313 22.164 29.5937 22.1168 29.6945 22.1016C29.8361 22.1992 29.9489 22.2928 29.9705 22.4776Z" fill="white"/>
<path d="M36.6972 22.2896C36.8476 22.4528 37.0332 22.528 37.0612 22.7416C36.7852 22.792 36.4812 23.0024 36.2332 22.7792C36.114 22.6536 35.9164 22.5064 35.97 22.3272C35.9764 22.2552 36.0452 22.2296 36.1076 22.2264C36.3052 22.2104 36.5252 22.2488 36.6972 22.2888V22.2896Z" fill="#1D1D1B"/>
<path d="M29.3058 23.0167C29.569 23.1799 29.8482 23.2271 30.1338 23.1927C30.2778 23.1991 30.3562 22.9639 30.5098 23.0671L30.7354 23.3431C30.0138 23.4807 29.0634 23.2831 28.5522 23.9455C28.4738 24.1583 28.2482 24.3591 28.2634 24.5983C28.1978 24.5887 28.1258 24.6391 28.1002 24.5479C28.0314 24.0807 27.9122 23.5879 28.025 23.0919C28.229 22.7719 28.593 22.7407 28.9034 22.6279C29.0418 22.7127 29.1234 22.9415 29.305 23.0167H29.3058Z" fill="white"/>
<path fill-rule="evenodd" clip-rule="evenodd" d="M40.6504 25.0246C40.6728 25.7246 40.6976 26.6278 40.0984 27.0702V27.0446H40.1112C39.964 26.7998 40.0616 26.503 40.0736 26.1662C40.0672 25.7078 39.9856 25.2974 39.9984 24.8614C40.1928 24.711 40.6256 24.7422 40.6512 25.0246H40.6504Z" fill="white"/>
<path d="M39.1952 27.7986C39.3112 28.1058 39.3088 28.8138 39.3088 28.8138C39.324 29.1682 39.2352 29.6146 39.044 29.8442C38.8648 29.157 38.856 28.4074 38.5672 27.7234C38.536 27.5698 38.7088 27.5506 38.7808 27.485C38.8656 27.4594 38.9624 27.4506 39.0568 27.4722C39.1824 27.5474 39.1096 27.7074 39.1952 27.7986Z" fill="white"/>
<path d="M37.6754 29.9688C37.8106 30.176 37.845 30.38 37.9266 30.6088C37.9706 31.1512 38.033 31.7416 37.7762 32.2152C37.6698 32.152 37.6786 31.9672 37.613 31.864C37.4626 31.2928 37.3242 30.6528 37.0986 30.0824C37.2402 29.9128 37.4906 29.8752 37.6762 29.9696L37.6754 29.9688Z" fill="white"/>
<path d="M33.9618 33.1555C32.033 33.8579 30.0658 34.6395 28.2402 35.5267C30.0434 33.7467 33.3642 32.5323 33.8242 32.4395C33.997 32.6403 34.0122 32.9227 33.9618 33.1547V33.1555Z" fill="white"/>
<path d="M36.6796 34.469C36.4092 35.373 35.8732 39.1402 35.7228 41.261C35.4388 38.6714 35.2908 37.0282 35.9444 34.3226C36.1996 34.261 36.5788 34.3706 36.6796 34.4682V34.469Z" fill="white"/>
<path d="M33.5715 34.7116C32.0755 36.3012 29.6475 39.2724 27.7363 41.5004C28.8315 38.8764 31.6603 35.2412 32.9603 34.37C33.2571 34.2996 33.4787 34.4972 33.5715 34.7116Z" fill="white"/>
<path d="M34.7613 35.2988C33.4125 38.3444 32.4229 40.5396 31.2637 44.0476C31.6549 40.242 32.8445 37.0444 34.1085 35.0116C34.3557 34.9172 34.6077 35.1292 34.7613 35.2988Z" fill="white"/>
<path d="M53.3179 45.8704C52.0659 43.5192 49.5955 41.9088 46.7459 41.9088C42.6315 41.9088 39.2963 45.244 39.2963 49.3584C39.2963 53.4728 42.6315 56.808 46.7459 56.808C49.9435 56.808 52.6731 54.7936 53.7291 51.964L54.9707 51.9656C53.8659 55.4544 50.5995 57.9824 46.7451 57.9824C41.9819 57.9824 38.1211 54.1216 38.1211 49.3584C38.1211 44.5952 41.9819 40.7344 46.7451 40.7344C50.2675 40.7344 53.2971 42.8464 54.6355 45.8728L53.3171 45.8712L53.3179 45.8704Z" fill="white"/>
<path d="M45.4512 46.1748H50.904V47.2012H46.4688V50.1596H50.7744V51.2428H46.4688V55.9276C46.2136 55.9276 45.6744 55.9324 45.4512 55.9324V46.1748Z" fill="white"/>
<path d="M49.6169 45.1218C49.1137 44.0386 47.8289 43.2578 46.6449 43.2578C44.9577 43.2578 43.4713 44.4418 43.4713 46.205C43.4713 48.1698 45.2849 48.8498 46.8713 49.429C48.0297 49.8322 49.1385 50.285 49.1385 51.721C49.1385 53.157 47.9793 54.341 46.5185 54.341C44.9817 54.341 44.0505 53.3586 43.6217 51.973L42.5137 52.3258C42.9921 54.2146 44.5793 55.3986 46.5185 55.3986C48.6089 55.3986 50.2713 53.9122 50.2713 51.7714C50.2713 47.565 44.6041 48.925 44.6041 46.129C44.6041 45.1218 45.6113 44.3154 46.5937 44.3154C47.5001 44.3154 48.2561 44.8186 48.6337 45.625L49.6161 45.121L49.6169 45.1218Z" fill="white"/>
</svg>
