<svg width="80" height="80" viewBox="0 0 80 80" fill="none" xmlns="http://www.w3.org/2000/svg">
<path d="M39.9998 5.2002L16.7998 40.0002L39.9998 74.8002L63.1998 40.0002L39.9998 5.2002Z" fill="#008149"/>
<path d="M27.4557 35.2216C27.4557 33.5656 27.6509 31.352 28.6957 29.2816C29.4069 27.8704 30.7517 26.4632 32.8365 26.5728C33.5941 26.612 35.8981 27.148 35.9149 29.7112C35.9205 30.9072 35.1997 33.0952 31.9685 33.0952C31.9685 33.0952 31.5669 36.2944 31.5669 37.9616C31.5669 39.444 31.5973 46.1008 34.0533 51.3344L39.9285 38.288L45.5261 51.3664C45.5261 51.3664 47.8925 45.548 47.8925 40.548C47.8925 35.548 46.5197 32.2976 45.3709 30.5384C43.7301 28.0216 41.6181 27.1472 40.6421 27.2152C40.6421 27.2152 39.5837 28.2496 37.9669 28.136C35.9989 27.9968 34.7933 26.6032 34.7677 24.7824C34.7437 23.2696 35.7661 21.5816 37.3165 20.5904C38.7749 19.6576 41.3693 19.7464 43.0381 20.2656C45.7269 21.1024 48.0309 24.0296 49.2221 26.1592C50.3485 28.1712 51.5285 32.2048 51.5365 37.4704C51.5461 41.8512 49.9509 48.5152 47.9221 53.584C45.9373 58.5408 44.7677 60.5688 44.7677 60.5688L39.9277 50.796L35.1373 60.5776C35.1373 60.5776 30.5421 50.8744 29.3245 46.4376C28.1053 42 27.4541 36.7968 27.4541 35.2216H27.4557Z" fill="white"/>
<path d="M39.9998 72.8014L18.1318 39.9998L39.9998 7.19824L61.8678 39.9998L39.9998 72.8014ZM19.7718 39.9998L39.9998 70.3422L60.2278 39.9998L39.9998 9.65744L19.7718 39.9998Z" fill="white"/>
</svg>
