<svg width="80" height="80" viewBox="0 0 80 80" fill="none" xmlns="http://www.w3.org/2000/svg">
<path d="M64.394 46.1056L64.3836 46.0216L63.9028 45.5112C59.6148 40.8576 57.5956 36.2712 57.9004 31.8792C58.2892 26.2832 62.438 22.852 62.4788 22.8184L63.0444 22.3648L59.9116 14.608L58.9356 15.208C58.9076 15.2248 56.0996 16.904 52.174 16.904C48.0468 16.904 44.1828 15.1296 40.69 11.6304L40.0044 10.9424L39.318 11.6304C35.8252 15.1296 31.9612 16.904 27.8332 16.904C23.7052 16.904 21.1012 15.2264 21.074 15.2096L20.0956 14.604L17.234 21.692L16.9644 22.3632L17.5268 22.8168C17.5692 22.8504 21.718 26.2752 22.1068 31.8776C22.4172 36.3408 20.3276 41.0032 15.8956 45.7344L15.6172 46.0376L15.6404 46.2776C15.626 46.3864 17.142 57.8864 27.6076 60.6384C36.6692 63.0216 39.1284 67.2056 39.1508 67.244L39.9924 68.8L40.8532 67.2496C40.8772 67.208 43.342 63.04 52.4012 60.6376C57.726 59.2256 60.698 55.504 62.2532 52.6304C63.8876 49.6104 64.4476 46.5152 64.3948 46.1048L64.394 46.1056Z" fill="white"/>
<path d="M39.9883 69.6002L38.8163 67.433C38.7891 67.3882 38.166 66.373 36.49 65.0906C34.9276 63.8954 32.1012 62.2178 27.5108 61.0106C25.062 60.3666 22.8924 59.197 21.0628 57.5338C19.5996 56.2042 18.3523 54.5594 17.3539 52.645C15.7731 49.6122 15.3115 46.8482 15.2635 46.3154H15.2587L15.2188 45.905L15.6139 45.4754C19.9723 40.8226 22.0267 36.257 21.7243 31.905C21.3491 26.4954 17.3259 23.1482 17.2859 23.1154L16.5035 22.4842L16.8787 21.5498L19.9115 14.0378L21.2771 14.8834C21.3011 14.8978 24.0315 16.5202 27.8339 16.5202C31.8555 16.5202 35.6283 14.7842 39.0467 11.3594L40.0044 10.3994L40.962 11.3594C44.3804 14.7834 48.1523 16.5202 52.174 16.5202C55.9627 16.5202 58.7099 14.8954 58.7379 14.8794L60.0979 14.0434L63.5075 22.4858L62.7196 23.1178C62.6819 23.149 58.658 26.5146 58.2844 31.905C57.9867 36.1874 59.9724 40.677 64.186 45.2506L64.7491 45.8482L64.7756 46.0554C64.8484 46.6202 64.2108 49.8202 62.5916 52.813C61.0004 55.753 57.958 59.561 52.5004 61.0082C49.966 61.6802 46.3507 62.9354 43.5179 65.0986C41.8443 66.377 41.2187 67.3874 41.1875 67.4394L39.9891 69.5978L39.9883 69.6002ZM16.0267 46.2866C16.1027 46.8722 17.7355 57.6466 27.7051 60.269C30.3259 60.9578 34.0659 62.2546 37.0035 64.5178C38.8323 65.9266 39.4788 67.045 39.4852 67.0562L39.4891 67.0634L39.9971 68.0034L40.5179 67.0658C40.5267 67.0506 41.1764 65.9338 43.0051 64.5266C44.6276 63.2786 47.5571 61.5274 52.3027 60.269C57.4955 58.8922 60.3964 55.257 61.9156 52.4498C63.4228 49.665 64.0179 46.7226 64.0148 46.1906L63.6236 45.7754C59.2587 41.0378 57.2051 36.3546 57.5171 31.8538C57.7243 28.873 58.9844 26.5058 60.0051 25.0442C61.13 23.4338 62.2252 22.5314 62.2355 22.5226L62.5812 22.2458L59.7252 15.1746L59.1364 15.537C59.1052 15.5554 56.1995 17.2898 52.1731 17.2898C47.9403 17.2898 43.9851 15.4778 40.4171 11.9034L40.0027 11.4882L39.5883 11.9034C36.0203 15.4778 32.0651 17.2898 27.8323 17.2898C23.5995 17.2898 20.902 15.557 20.8732 15.5394L20.2795 15.1722L17.5883 21.8378L17.4252 22.245L17.7667 22.5202C17.8091 22.5546 22.0859 26.0602 22.4883 31.8538C22.8059 36.4274 20.6819 41.1874 16.1747 45.9994L16.0147 46.173L16.0259 46.285V46.2866H16.0267Z" fill="#1F5DA6"/>
<path d="M51.8756 35.8742L50.2548 34.5174C50.1644 34.4414 49.942 34.223 49.9428 34.0294C49.9452 33.8534 49.9764 33.8062 50.1004 33.659C50.3644 33.3454 50.6444 33.4662 50.8876 33.6694L52.5556 35.0662L52.8836 34.6766L51.0532 33.1446C50.486 32.6694 50.0892 33.0262 49.8764 33.2782C49.6924 33.4966 49.5612 33.7598 49.706 34.1086C49.4108 34.015 49.1084 34.1918 48.9244 34.4102C48.6884 34.691 48.6068 34.971 48.7684 35.3006L48.7604 35.3102L48.4604 35.059L48.1124 35.4726C48.2916 35.5982 48.466 35.7278 48.6332 35.8678L50.5396 37.4638L50.8676 37.0742L49.2468 35.7174C49.1564 35.6414 49.0292 35.503 48.97 35.3318C48.9276 35.199 48.9924 34.9774 49.0916 34.8582C49.3556 34.5438 49.6356 34.6654 49.8788 34.8686L51.5476 36.2654L51.8756 35.8758V35.8742ZM46.618 36.003L46.986 35.5654L46.5668 35.2142L46.1988 35.6518L46.6188 36.003H46.618ZM47.5804 36.1038L47.2524 36.4942L49.6596 38.5094L49.9876 38.1198L47.5804 36.1046V36.1038ZM48.126 38.1494L47.9212 37.9774C47.1252 37.311 46.6044 37.167 46.0284 37.8518C45.3284 38.6838 45.842 39.2518 46.5476 39.8422C47.6108 40.7318 48.1028 40.455 48.5308 39.9462C48.9548 39.4422 48.9876 38.911 48.458 38.459L48.098 38.887C48.3292 39.1046 48.4276 39.4222 48.2036 39.6886C47.9476 39.9934 47.662 40.0622 46.99 39.499L48.126 38.1486V38.1494ZM46.6948 39.2526C46.0316 38.6894 46.0844 38.3854 46.2924 38.1374C46.5324 37.8518 46.782 37.7286 47.4828 38.315L46.6948 39.2518V39.2526ZM47.3316 41.2766L45.6252 39.8478C45.082 39.3926 44.6844 39.4494 44.3412 39.8582C44.0772 40.1718 44.0012 40.4166 44.1508 40.8086L44.1348 40.8278L42.7908 39.703L42.4628 40.0926L45.9044 42.9734L46.2324 42.5838L44.8164 41.3982C44.4116 41.059 44.1804 40.6958 44.5084 40.3062C44.7884 39.9734 45.078 40.0542 45.3732 40.3014L47.0036 41.6662L47.3316 41.2766ZM45.4116 43.5598L43.7436 42.163C43.2668 41.7638 42.8492 41.6334 42.4172 42.147C42.1572 42.4558 42.0908 42.7086 42.2348 43.0878L42.2188 43.107L41.9092 42.8478L41.5612 43.2614C41.7404 43.387 41.9148 43.5166 42.082 43.6566L43.9884 45.2526L44.3164 44.863L42.8908 43.6702C42.562 43.395 42.2324 43.0142 42.5924 42.5854C42.8724 42.2526 43.158 42.3382 43.4156 42.5534L45.0836 43.9502L45.4116 43.5606V43.5598ZM42.4468 44.9022L42.242 44.731C41.446 44.0646 40.9252 43.9206 40.3492 44.6054C39.6492 45.4374 40.1628 46.0054 40.8684 46.5958C41.9316 47.4854 42.4236 47.2094 42.8516 46.7006C43.2756 46.1966 43.3084 45.6646 42.7788 45.2134L42.4188 45.6414C42.65 45.859 42.7484 46.1766 42.5244 46.443C42.2684 46.747 41.9828 46.8166 41.3108 46.2542L42.4468 44.903V44.9022ZM41.0156 46.0054C40.3524 45.4414 40.4052 45.1382 40.6132 44.8902C40.8532 44.6046 41.1028 44.4822 41.8036 45.0686L41.0156 46.0054ZM38.3772 47.047L38.6732 47.2942L38.9852 46.923L41.0964 48.691L41.4244 48.3014L39.3124 46.5334L39.7204 46.0486L39.4252 45.8014L39.0172 46.2862L38.6076 45.943C38.4124 45.779 38.2956 45.5606 38.6724 45.1702L38.3908 44.935C38.3332 44.9838 38.2884 45.0278 38.2204 45.1086C37.9284 45.4558 37.7356 45.8782 38.222 46.2854L38.6892 46.6766L38.3772 47.0478V47.047ZM37.2652 48.3686L37.5604 48.6158L37.8724 48.2446L39.9844 50.0126L40.3124 49.6222L38.2004 47.8542L38.6084 47.3686L38.3132 47.1214L37.9052 47.6062L37.4956 47.263C37.3004 47.0998 37.1836 46.8806 37.5604 46.491L37.2796 46.2558C37.222 46.3054 37.1772 46.3486 37.1092 46.4294C36.8172 46.7766 36.6244 47.199 37.1108 47.6062L37.578 47.9974L37.266 48.3686H37.2652ZM38.6836 51.655C39.1116 51.1462 39.2988 50.6142 38.2364 49.7246C37.5308 49.1342 36.8812 48.7278 36.1812 49.5598C35.4812 50.3918 35.9948 50.9598 36.7004 51.5502C37.7636 52.4398 38.2556 52.1638 38.6836 51.6542M38.3644 51.3878C38.0244 51.7926 37.6588 51.6566 36.8772 51.0022C36.2196 50.4518 36.2484 50.1278 36.5004 49.8278C36.7524 49.5278 37.0676 49.4438 37.7252 49.9942C38.5068 50.6486 38.7044 50.9838 38.3644 51.3878ZM36.0684 54.6686L34.4956 53.3518L35.5076 52.1486L37.0804 53.4654L37.4484 53.0278L34.0068 50.147L33.6388 50.5846L35.126 51.8294L34.114 53.0326L32.6268 51.7878L32.2588 52.2254L35.7004 55.1062L36.0684 54.6686Z" fill="#1F5DA6"/>
<path d="M44.6244 28.2C44.3332 27.9568 43.9908 27.9296 43.7468 28.2192C43.4628 28.5568 43.6308 28.908 43.8836 29.1192C43.998 29.2152 44.4356 29.5248 44.7836 29.1112C45.0796 28.7592 44.858 28.3952 44.6244 28.2Z" fill="#1F5DA6"/>
<path d="M41.4439 34.7355C41.1439 34.4843 40.7743 34.5555 40.5623 34.8083C40.3303 35.0843 40.3719 35.4595 40.6535 35.6947C40.9919 35.9779 41.3615 35.8579 41.5535 35.6299C41.7215 35.4299 41.8159 35.0475 41.4439 34.7363V34.7355Z" fill="#1F5DA6"/>
<path d="M42.3208 30.9395C42.0304 30.6963 41.6872 30.6683 41.4432 30.9587C41.1592 31.2963 41.3272 31.6475 41.5792 31.8587C41.6936 31.9547 42.132 32.2643 42.48 31.8507C42.776 31.4987 42.5544 31.1347 42.3208 30.9387V30.9395Z" fill="#1F5DA6"/>
<path d="M39.1546 33.6128C38.9546 33.8504 38.953 34.1816 39.205 34.3928C39.4386 34.588 39.7738 34.5856 39.9938 34.324C40.1978 34.0816 40.2074 33.7416 39.941 33.5176C39.6698 33.2904 39.3426 33.3896 39.1546 33.6128Z" fill="#1F5DA6"/>
<path d="M59.3871 16.2137L59.0351 16.3913C58.0807 16.8729 55.5023 17.9929 52.1743 17.9929C47.8823 17.9929 43.8727 16.2225 40.2559 12.7305L40.0039 12.4873L39.7519 12.7305C36.1351 16.2225 32.1255 17.9929 27.8335 17.9929C24.4959 17.9929 21.9231 16.8729 20.9727 16.3913L20.6207 16.2129L18.2759 22.0209L18.4607 22.1905C19.4791 23.1257 22.8303 26.5825 23.1927 31.8025C23.5199 36.5137 21.3959 41.3841 16.8783 46.2769L16.7559 46.4097L16.7879 46.5873C17.0663 48.1353 18.6599 55.1825 24.9343 58.4521L59.8287 17.3081L59.3871 16.2137ZM30.5623 49.6233L27.6879 47.2169L26.8279 48.2393L26.2559 47.7601L28.5999 44.9737L29.1719 45.4529L28.3119 46.4753L31.1863 48.8817L30.5623 49.6233ZM33.4311 46.3761C32.3231 47.6937 31.4671 46.9929 31.1287 46.7177L31.7607 45.9665C31.9231 46.1025 32.4055 46.5225 32.9375 45.8905C33.2735 45.4913 33.2943 45.0793 33.0039 44.8361C32.6991 44.5809 32.4663 44.7513 31.9935 45.1001C31.1007 45.7465 30.4815 45.9897 29.8855 45.4913C29.3183 45.0161 29.1575 44.1929 29.9615 43.2377C30.2615 42.8809 30.6983 42.5257 31.2383 42.5401C31.6503 42.5529 31.9263 42.7841 32.0407 42.8801L31.4447 43.5889C31.3175 43.4985 30.8807 43.1977 30.4527 43.7065C30.1647 44.0489 30.1623 44.4281 30.4439 44.6633C30.7631 44.9305 31.0327 44.7265 31.5727 44.3353C32.2159 43.8609 32.8695 43.4113 33.5415 43.9737C34.1615 44.4921 34.2295 45.4249 33.4295 46.3761H33.4311ZM36.5983 42.6017C35.9383 43.3865 35.4079 43.6305 34.9127 43.6785C34.2119 43.7489 33.6039 43.3609 33.2415 43.0577C32.0215 42.0361 32.0079 40.7281 32.8839 39.6873C33.2559 39.2449 33.7639 38.8921 34.3015 38.8801C34.7559 38.8713 35.0391 39.0841 35.2295 39.2353L34.5855 40.0009C34.4911 39.9297 34.3631 39.8305 34.1575 39.8049C33.8087 39.7561 33.5423 39.9953 33.4063 40.1569C32.7023 40.9945 33.3439 41.8145 33.8735 42.2577C34.1071 42.4537 34.5543 42.7713 35.0383 42.7465C35.3727 42.7353 35.6695 42.5945 36.0135 42.1857C36.3135 41.8289 36.3743 41.6697 36.4183 41.5689L35.6943 40.9625L35.1343 41.6281L34.5623 41.1489L35.7423 39.7465L37.4631 41.1873C37.3543 41.4609 37.1775 41.9129 36.5975 42.6025L36.5983 42.6017ZM40.0135 38.3857L37.4255 36.2185C37.4143 36.4441 37.3535 36.8641 37.1975 37.3489L36.5351 36.7945C36.6615 36.3737 36.7423 35.9393 36.7743 35.4953L37.2903 34.8817L40.6175 37.6673L40.0135 38.3857ZM42.0231 36.1033C41.4551 36.7785 40.6295 36.8817 40.0959 36.4345C39.8383 36.2193 39.7367 35.9641 39.7183 35.7049C39.6967 35.4113 39.7775 35.2193 39.8383 35.0601C39.6455 35.1825 39.1151 35.5241 38.5999 35.0937C38.1951 34.7545 37.9543 33.9777 38.6343 33.1697C39.1943 32.5041 39.9639 32.3617 40.4831 32.7969C40.8831 33.1321 40.8959 33.6777 40.6647 34.0593C40.8151 33.9577 41.0599 33.7825 41.4559 33.8137C41.7143 33.8353 41.9175 33.9409 42.0799 34.0769C42.6903 34.5873 42.5719 35.4529 42.0239 36.1041L42.0231 36.1033ZM44.2487 33.4761C44.0927 33.6617 43.3847 34.5033 42.5127 33.7737L43.1167 33.0553C43.3327 33.2041 43.5647 33.1793 43.7327 32.9793C44.1487 32.4849 43.6655 32.0153 43.1959 31.6465C43.2103 32.0641 43.0447 32.2897 42.9207 32.4369C42.2367 33.2505 41.4127 32.9169 41.0167 32.5857C40.3975 32.0673 40.2967 31.2297 40.9135 30.4969C41.8735 29.3553 42.9839 30.2369 43.5183 30.6841C44.9247 31.8617 44.9247 32.6721 44.2487 33.4753V33.4761ZM46.5519 30.7377C46.3959 30.9233 45.6879 31.7649 44.8159 31.0345L45.4199 30.3161C45.6359 30.4649 45.8679 30.4401 46.0359 30.2409C46.4519 29.7465 45.9687 29.2777 45.4999 28.9081C45.5143 29.3257 45.3487 29.5513 45.2247 29.6985C44.5407 30.5121 43.7167 30.1785 43.3207 29.8473C42.7007 29.3289 42.6015 28.4913 43.2175 27.7585C44.1775 26.6169 45.2879 27.4985 45.8223 27.9449C47.2287 29.1225 47.2287 29.9329 46.5527 30.7369L46.5519 30.7377Z" fill="#1F5DA6"/>
</svg>
