<svg width="80" height="80" viewBox="0 0 80 80" fill="none" xmlns="http://www.w3.org/2000/svg">
<path d="M13.4509 10.4002L13.4485 11.4602C13.4469 12.041 13.4445 12.6386 13.4413 13.2514C13.4301 15.5714 13.4181 18.201 13.4869 20.9818C13.6045 25.7402 13.9061 31.2578 15.2493 36.0962C16.9173 42.1034 19.3717 47.4002 22.7533 52.2906C26.8205 58.1722 32.4069 63.8322 39.3589 69.113L40.0013 69.601L40.6437 69.113C47.5941 63.833 53.1813 58.1738 57.2485 52.2906C60.6301 47.4002 63.0844 42.1026 64.7524 36.0962C66.1693 30.993 66.4389 25.3338 66.5157 20.9738C66.5485 19.0938 66.5429 17.3234 66.5373 15.6114C66.5325 14.1538 66.5285 12.7762 66.5493 11.481L66.5669 10.4018H65.4877L14.5109 10.3994H13.4509V10.4002Z" fill="white"/>
<path d="M40.001 68.2667C32.6282 62.6667 27.3722 57.1027 23.6266 51.6859C19.8362 46.2043 17.6722 40.8531 16.2722 35.8115C14.9802 31.1587 14.6698 25.8875 14.5482 20.9547C14.4618 17.4683 14.5034 14.2763 14.5098 11.4619L65.4874 11.4643C65.4426 14.2787 65.5154 17.4691 65.4538 20.9547C65.3674 25.8883 65.0218 31.1587 63.7298 35.8115C62.3298 40.8531 60.1658 46.2043 56.3754 51.6859C52.6298 57.1019 47.3738 62.6659 40.0018 68.2667H40.001Z" fill="#D30029"/>
<path d="M15.5691 12.5264C15.7859 26.0152 12.6883 46.2384 40.0011 66.9856C67.3131 46.2408 64.2163 26.0176 64.4331 12.5288L15.5699 12.5264H15.5691Z" fill="white"/>
<path d="M50.3426 40.0412L51.0411 39.9572C51.0635 40.1348 51.1235 40.2708 51.2211 40.366C51.3187 40.4604 51.4371 40.5068 51.5755 40.5068C51.7243 40.5068 51.8498 40.4508 51.9522 40.338C52.0546 40.2244 52.1051 40.0716 52.1051 39.8796C52.1051 39.698 52.0562 39.5548 51.9586 39.4484C51.8602 39.342 51.7419 39.2892 51.6019 39.2892C51.5091 39.2892 51.3987 39.3068 51.2698 39.3436L51.3498 38.7548C51.545 38.7596 51.6938 38.718 51.797 38.6276C51.8994 38.5372 51.9507 38.418 51.9507 38.2692C51.9507 38.142 51.913 38.042 51.8378 37.966C51.7626 37.8908 51.6618 37.8524 51.537 37.8524C51.4122 37.8524 51.3083 37.8948 51.2211 37.9812C51.1339 38.0668 51.0803 38.1916 51.0619 38.3564L50.3963 38.2436C50.4427 38.0156 50.5123 37.834 50.6059 37.6972C50.6987 37.5612 50.8299 37.454 50.9963 37.3764C51.1635 37.298 51.3506 37.2596 51.5578 37.2596C51.913 37.2596 52.1971 37.3724 52.4115 37.5988C52.5883 37.7836 52.6763 37.9932 52.6763 38.226C52.6763 38.5564 52.4954 38.8204 52.1339 39.018C52.3498 39.0636 52.5226 39.1676 52.6522 39.3292C52.781 39.49 52.8451 39.6844 52.8451 39.9116C52.8451 40.2428 52.725 40.5244 52.4834 40.7572C52.2418 40.9908 51.9411 41.1076 51.5811 41.1076C51.2403 41.1076 50.9578 41.0092 50.733 40.8124C50.5082 40.6164 50.3779 40.3596 50.3419 40.0428L50.3426 40.0412ZM49.0915 38.5924C49.0915 38.3596 49.0371 38.178 48.9307 38.05C48.8235 37.922 48.6994 37.8572 48.5595 37.8572C48.4195 37.8572 48.3147 37.91 48.2267 38.0148C48.1387 38.1204 48.0938 38.2932 48.0938 38.5324C48.0938 38.7716 48.1418 38.9548 48.2378 39.0684C48.3338 39.182 48.4538 39.2396 48.5978 39.2396C48.7418 39.2396 48.853 39.1844 48.9482 39.0748C49.0426 38.9644 49.0915 38.8036 49.0915 38.5916V38.5924ZM47.457 40.17L48.1563 40.0932C48.1731 40.2356 48.2178 40.3404 48.2899 40.4092C48.361 40.4772 48.4571 40.5116 48.5755 40.5116C48.7243 40.5116 48.8507 40.4428 48.9555 40.306C49.0595 40.1684 49.1267 39.8844 49.1555 39.4532C48.9739 39.6636 48.7466 39.7692 48.4739 39.7692C48.1778 39.7692 47.9219 39.6556 47.7067 39.4268C47.4915 39.198 47.3843 38.9004 47.3843 38.5332C47.3843 38.166 47.4979 37.8436 47.7243 37.6092C47.9515 37.3756 48.241 37.2588 48.5922 37.2588C48.9746 37.2588 49.2874 37.4068 49.533 37.702C49.7778 37.9972 49.9003 38.4836 49.9003 39.1604C49.9003 39.8372 49.7722 40.346 49.517 40.6508C49.2618 40.9564 48.9298 41.1084 48.5195 41.1084C48.2259 41.1084 47.9875 41.0292 47.8059 40.8732C47.6235 40.7164 47.5067 40.4828 47.4555 40.1708L47.457 40.17ZM30.5915 39.8956C30.5915 40.094 30.6427 40.2492 30.7451 40.3604C30.8475 40.4716 30.9739 40.5276 31.1267 40.5276C31.2795 40.5276 31.3994 40.474 31.4962 40.3668C31.5946 40.2596 31.6427 40.1044 31.6427 39.9028C31.6427 39.726 31.5923 39.5844 31.4931 39.4772C31.3939 39.37 31.2683 39.3164 31.1155 39.3164C30.9387 39.3164 30.8074 39.3772 30.721 39.498C30.6346 39.6196 30.5915 39.7524 30.5915 39.894V39.8956ZM30.6586 38.2812C30.6586 38.4244 30.6995 38.5372 30.7803 38.6172C30.8619 38.698 30.9706 38.738 31.1058 38.738C31.241 38.738 31.3523 38.6972 31.4347 38.6156C31.5171 38.5348 31.5579 38.422 31.5579 38.278C31.5579 38.1428 31.5171 38.034 31.4355 37.9532C31.3547 37.8716 31.2467 37.8308 31.1131 37.8308C30.9795 37.8308 30.8634 37.8724 30.781 37.954C30.6986 38.0364 30.6579 38.1452 30.6579 38.2804L30.6586 38.2812ZM30.5091 39.0084C30.3227 38.9292 30.1867 38.822 30.1019 38.6836C30.0171 38.5452 29.9747 38.3948 29.9747 38.2308C29.9747 37.9492 30.0722 37.7172 30.2682 37.534C30.4642 37.3508 30.7435 37.2588 31.1051 37.2588C31.4667 37.2588 31.741 37.35 31.9386 37.534C32.1363 37.7172 32.2355 37.9492 32.2355 38.2308C32.2355 38.4044 32.1898 38.5612 32.0986 38.6972C32.0082 38.8332 31.8803 38.9372 31.7155 39.0084C31.9243 39.0924 32.0835 39.2148 32.1923 39.3764C32.3011 39.538 32.3555 39.7228 32.3555 39.9332C32.3555 40.2812 32.2443 40.5644 32.0227 40.7812C31.8011 40.9988 31.5059 41.1084 31.1371 41.1084C30.7947 41.1084 30.5099 41.018 30.2819 40.838C30.0131 40.626 29.8779 40.3348 29.8779 39.9644C29.8779 39.7604 29.9283 39.574 30.0299 39.4036C30.1307 39.2332 30.2899 39.102 30.5075 39.0092L30.5091 39.0084ZM28.8107 41.0412H28.0891V38.3196C27.8251 38.566 27.5138 38.7492 27.1562 38.8668V38.2116C27.3442 38.15 27.5491 38.0332 27.7699 37.8612C27.9907 37.6884 28.1427 37.4884 28.2251 37.2588H28.8107V41.042V41.0412Z" fill="#D30029"/>
<path d="M53.2991 14.7624C51.3175 13.9352 49.2239 13.9808 47.6927 14.8648C46.3415 15.6448 45.4287 17.0776 45.4167 19.14C45.3935 19.5632 45.2903 19.9992 45.1087 20.4176L45.0967 20.4016C44.4279 21.5072 43.3127 22.6128 42.0615 22.5184C41.8383 21.4032 41.1023 19.8832 40.3951 18.9128C41.1567 18.9528 42.4047 19.7536 42.6759 20.3304C43.3007 19.6512 44.1911 17.9616 43.9863 16.596C42.7431 16.596 41.5343 16.3072 40.2919 15.7744C40.2919 16.6112 38.8343 18.628 37.8247 19.084C38.3303 19.8336 38.7559 21.4632 38.7351 22.9224C37.9863 23.5352 36.9999 23.6488 36.2047 23.6328C35.5951 22.6864 34.7751 21.988 34.7639 20.8C34.7527 19.5672 35.9687 17.7944 37.2783 16.6456L36.6271 15.8344C35.8079 16.1168 35.1071 16.5888 34.4887 17.208L34.4551 17.1608C33.7079 16.0784 32.4231 14.1376 30.5599 13.6904C30.0255 13.8744 29.2927 14.9944 28.7471 16.1408C26.7399 16.552 25.1447 18.0048 24.4823 19.2336C23.7903 18.6552 23.2935 18.052 23.2575 17.2856C23.1591 15.2008 25.8783 15.5424 27.2103 16.1408L27.2215 14.6272C25.2399 13.8 23.1471 13.8456 21.6159 14.7296C20.2647 15.5096 19.3519 16.9424 19.3399 19.0048C19.3359 20.4112 18.4711 21.5424 16.6495 22.1376C17.4423 22.4856 18.5335 22.2192 19.9911 21.7856C19.2807 22.7824 18.4239 23.2968 16.6455 23.68C17.7567 24.0632 19.4807 23.9112 21.0439 23.4024C20.6391 24.2816 19.2999 25.04 16.7863 25.3336C18.9815 26.0648 20.0415 25.8288 22.3031 25.1568C25.4671 24.2176 27.5207 26.792 23.8303 27.6856C22.9343 27.9024 21.8383 27.5008 20.7335 27.0384L19.6831 28.324C21.1271 29.0728 23.6047 29.6576 24.7823 29.6352C28.3959 29.5664 29.8879 26.7088 28.9871 23.8344C28.4135 22.0032 26.7927 20.9296 25.4207 19.9448C26.6279 18.2992 30.9719 16.4048 32.5167 20.24C31.8247 21.876 31.5135 23.624 31.5791 24.9088C31.6983 27.212 34.0655 29.3624 32.5599 30.5192C32.1935 30.7776 31.2439 31.1632 30.5183 31.3944C27.3767 31.2104 25.4759 29.5984 23.0759 29.484C21.2775 29.3984 19.8463 29.5568 18.9255 30.908C17.6191 32.8256 18.7999 36.0336 21.6751 36.0896C21.7071 34.9496 21.9871 34.3416 22.1967 33.9232C21.3127 33.9232 19.3639 34.0736 19.3663 32.8C19.3671 32.1512 19.9183 31.9416 20.5455 31.9272C23.6967 31.8568 26.4599 35.9888 30.1799 36.2384C30.2055 34.3968 32.9279 32.2376 35.0407 33.7072C36.0591 32.2128 35.8903 30.9104 35.2447 29.8536C36.3423 28.64 36.8287 27.2584 36.8511 25.7936C36.8567 25.4272 36.8143 25.1024 36.7375 24.8064C37.4175 24.7064 38.2775 24.4864 38.7375 24.1584V37.4536C39.3559 37.368 39.5327 37.2624 40.1015 36.8064V34.6256C40.7271 34.5472 41.4151 34.5184 42.0727 33.9664V23.7352C43.2415 23.6824 44.9887 23.0808 46.0911 21.8424C46.0975 21.8408 46.1039 21.8392 46.1095 21.8368C45.7775 23.0392 44.8359 24.1296 43.0583 24.5128C44.3791 24.9376 45.9775 24.4152 47.2039 23.536C46.8839 24.4152 45.5855 25.8728 43.1983 26.1664C45.3935 26.8976 46.2847 26.1264 48.5463 25.4544C51.7103 24.5152 53.5959 26.9256 49.9055 27.8192C49.0095 28.036 47.9135 27.6344 46.8087 27.172L45.7583 28.4576C47.2023 29.2072 49.6799 29.7912 50.8575 29.7688C54.3535 29.7024 55.8631 27.0256 55.1423 24.248C58.2567 24.472 60.7575 29.6936 58.1511 31.064C57.0983 31.6176 56.1863 31.4504 55.1439 31.2392C52.8431 30.7728 51.1263 29.716 49.1519 29.6224C47.3535 29.5368 45.9231 29.6904 45.0015 31.0416C43.6951 32.9592 44.8759 36.1672 47.7503 36.2232C47.7823 35.0832 48.0631 34.4752 48.2727 34.056C47.3887 34.056 45.4399 34.2064 45.4423 32.9328C45.4431 32.284 45.9943 32.0744 46.6223 32.06C49.7727 31.9896 52.5367 36.1216 56.2567 36.3712C56.2815 34.5296 59.0047 32.3704 61.1167 33.84C62.1607 32.3072 61.9567 30.9768 61.2703 29.9064C62.4135 28.4128 63.1183 26.876 62.9183 25.5912C62.7695 23.42 60.8559 22.7496 60.8383 20.9312C60.8271 19.6984 62.0431 17.9256 63.3527 16.776L62.7015 15.9648C61.9087 16.2384 61.1583 16.6888 60.5135 17.2672C59.7639 16.18 58.4847 14.264 56.6343 13.82C56.0999 14.004 55.3671 15.1248 54.8215 16.2704C52.8143 16.6816 51.2255 18.1 50.5623 19.328C49.7559 18.6536 48.6999 17.2536 49.7207 16.272C50.5063 15.5168 52.2855 15.8216 53.2847 16.2704L53.2967 14.7568L53.2991 14.7624ZM54.5487 22.4576C53.7911 21.2624 52.4279 20.44 51.3767 19.792C52.0759 18.84 53.9455 17.6832 55.5951 17.7224C57.9639 17.7784 59.8639 20.564 57.6015 22.244C57.0807 22.6304 56.2223 22.648 54.5487 22.4576Z" fill="#D30029"/>
<path d="M40.0015 65.7022C30.4383 58.439 24.7871 51.2422 21.3975 44.2678C30.2015 43.995 35.9727 41.4782 40.0015 38.4102C44.8095 41.7358 51.1911 44.4558 58.6063 44.2654C55.2159 51.2398 49.5655 58.4366 40.0015 65.7022Z" fill="black"/>
<path d="M40.0009 64.421C31.3353 57.8402 26.4585 51.573 23.2529 45.321C29.7649 44.785 35.6081 42.981 40.0009 39.7578C44.3937 42.9802 50.2377 44.7834 56.7497 45.3202C53.5433 51.5722 48.6665 57.8394 40.0009 64.4218V64.421Z" fill="#FFDC00"/>
<path d="M36.7095 56.9135C37.0023 56.8743 37.3007 56.8375 37.6047 56.8031C36.7095 55.0759 37.9079 53.6135 39.5071 53.5823C38.2911 54.7423 38.3255 56.0055 39.2079 56.6487C39.7863 56.6015 39.9159 56.5847 40.5095 56.5559C39.4719 55.0007 40.6159 53.6463 42.1927 53.4679C41.4303 54.2279 41.0399 55.6351 41.9751 56.5015C42.5103 56.4887 42.7831 56.4839 43.3135 56.4863C42.7023 54.8791 43.9175 53.8799 45.2391 53.8319C44.5143 54.4783 43.9607 55.7751 44.8143 56.6247C45.2271 56.7103 45.6583 56.7023 46.3519 56.9071C46.8055 57.1375 47.1743 57.4959 47.2823 57.7839C41.6783 57.1047 40.8471 57.2759 36.6959 57.9631C35.0191 58.8407 34.2327 59.0751 33.3943 58.2911C33.2503 58.0847 33.3727 57.5423 33.9495 57.4199C33.9431 57.0391 34.2199 56.8279 34.5255 56.7351C35.3215 56.4935 35.7303 57.1631 36.7103 56.9119L36.7095 56.9135ZM34.1455 52.0767C34.4583 52.0319 34.7783 51.9895 35.1031 51.9503C34.0455 50.2183 35.2263 48.5383 36.9367 48.5023C35.7367 49.8343 35.8743 51.0343 36.8175 51.7727C37.4359 51.7191 38.0655 51.6743 38.7007 51.6415C37.4407 50.1567 38.9143 48.4503 40.6015 48.2455C39.7863 49.1183 39.2679 50.5847 40.2679 51.5799C40.8407 51.5647 41.4127 51.5583 41.9799 51.5615C41.1247 49.9175 42.6255 48.5679 44.0399 48.5135C43.2647 49.2559 42.6959 50.6199 43.6079 51.5959C44.2127 51.6191 44.8063 51.6535 45.3815 51.6999C44.8471 50.5391 45.5991 49.5775 47.0511 49.2975C46.4263 49.9895 46.0679 50.9639 46.6983 51.8319C47.4951 51.9279 48.4423 52.2871 49.1167 52.4391C49.7863 52.8247 49.9855 52.9447 50.5207 53.3303C44.2855 52.3719 37.5023 52.5895 34.1303 53.2831C32.3367 54.2903 31.4951 54.5599 30.5991 53.6599C30.4455 53.4231 30.5767 52.7999 31.1927 52.6599C31.1799 51.8831 31.8463 51.8447 32.4983 51.8447C33.0287 52.3367 33.5519 52.2407 34.1455 52.0767ZM32.0199 47.5047C32.4079 47.4543 33.0559 47.2575 33.4591 47.2143C32.2719 45.0239 33.8615 42.7943 36.0335 43.0063C34.4199 44.4767 34.3151 46.0519 35.4855 46.8679C36.2527 46.8087 36.7823 46.7095 37.5703 46.6719C36.4087 44.8071 37.8831 42.3911 39.8535 42.6319C38.7415 43.6455 38.3239 45.5551 39.5647 46.6535C40.2751 46.6375 40.9847 46.6311 41.6879 46.6343C40.8767 44.5967 42.3879 42.5007 44.5447 43.1447C43.4319 43.4615 42.5759 45.5943 43.7079 46.6727C44.4583 46.6983 45.1943 46.7359 45.9071 46.7871C45.4311 45.2279 46.3287 43.5655 48.3311 44.2119C47.4047 44.8255 46.7591 45.9743 47.5407 46.9327C48.5295 47.0391 49.7047 47.2623 50.5407 47.4295C51.3735 47.8135 52.1063 48.4311 52.4335 48.6143C44.6991 47.5567 37.2695 47.6695 32.1519 48.7135C29.9271 49.8263 28.7319 50.0727 27.6207 49.0791C27.4303 48.8167 27.5919 48.1295 28.3575 47.9743C28.3423 47.1175 29.1687 47.0743 29.9775 47.0743C30.6359 47.6175 31.2847 47.6855 32.0215 47.5047H32.0199Z" fill="black"/>
</svg>
