<svg width="80" height="80" viewBox="0 0 80 80" fill="none" xmlns="http://www.w3.org/2000/svg">
<path d="M67.274 27.8988C65.7972 24.334 63.6628 21.1852 60.93 18.5396C55.5068 13.2908 48.074 10.4004 40.0012 10.4004C23.6796 10.4004 10.4004 23.7036 10.4004 40.0556C10.4004 47.9476 13.4796 55.3668 19.07 60.9468C24.6604 66.5268 32.094 69.6004 40.0012 69.6004C47.9084 69.6004 55.3404 66.5276 60.9308 60.9468C66.5212 55.3668 69.6004 47.9468 69.6004 40.0556C69.6004 35.7156 68.818 31.6252 67.2748 27.8988H67.274Z" fill="white"/>
<path d="M11.0477 39.9834C11.6261 22.0002 23.9845 14.669 32.0989 12.1154C35.8085 10.9474 39.0565 10.909 39.0429 11.329C39.0309 11.6978 36.2477 11.3914 32.3085 12.8122C25.4437 15.293 15.7229 21.4586 15.1309 37.2402C15.1309 51.7522 26.9037 63.5154 41.4269 63.5154C55.9501 63.5154 67.7229 51.7522 67.7229 37.2402C67.7605 34.1378 67.2013 31.6842 66.4981 29.5626C65.2669 25.833 63.6765 24.105 64.3661 24.089C64.8397 24.0802 66.2725 27.0098 67.2693 29.7418C68.4309 32.9226 68.9645 35.813 68.9509 39.9834C68.9509 55.9642 55.9877 68.9154 39.9981 68.9154C24.0085 68.9154 11.0469 55.9642 11.0469 39.9834H11.0477Z" fill="#41A639"/>
<path d="M37.1184 30.8758C37.1184 25.731 45.556 26.2182 45.556 26.2182V44.5662C45.556 45.8478 46.3664 46.6198 47.8264 46.6198C50.1568 46.6198 49.9968 44.5662 49.9968 44.5662C49.9968 45.8478 49.9888 31.2326 49.9888 25.691C49.9888 21.083 58.3736 21.083 58.3736 21.083V45.5046L58.3376 47.0206C57.6216 51.631 53.628 55.1574 48.908 55.1574C45.8056 55.1574 43.0544 53.6358 41.328 51.2854C39.6016 53.6358 36.8472 55.1574 33.7496 55.1574C29.028 55.1574 25.1136 51.631 24.3976 47.0206L24.284 45.5046C24.284 45.5046 24.2744 32.0374 24.2744 25.691C24.2744 21.083 32.668 21.083 32.668 21.083C32.668 21.083 32.6664 44.551 32.6664 44.5702C32.6664 45.867 33.5872 46.619 34.8384 46.619C36.0896 46.619 37.1288 45.8294 37.1288 44.5702C37.1288 44.5702 37.1176 35.1958 37.1176 30.875L37.1184 30.8758Z" fill="#41A639"/>
</svg>
